<svg width="428" height="926" viewBox="0 0 428 926" fill="none" xmlns="http://www.w3.org/2000/svg">
<g filter="url(#filter0_d_47_215)">
<g clip-path="url(#clip0_47_215)">
<rect width="428" height="926" fill="#2F3136"/>
<rect width="405" height="926" fill="#35393F"/>
<path d="M41.8929 38.4688H91.1071C92.1526 38.4688 93 37.6293 93 36.5938V31.9062C93 30.8707 92.1526 30.0312 91.1071 30.0312H41.8929C40.8474 30.0312 40 30.8707 40 31.9062V36.5938C40 37.6293 40.8474 38.4688 41.8929 38.4688ZM41.8929 57.2188H91.1071C92.1526 57.2188 93 56.3793 93 55.3438V50.6562C93 49.6207 92.1526 48.7812 91.1071 48.7812H41.8929C40.8474 48.7812 40 49.6207 40 50.6562V55.3438C40 56.3793 40.8474 57.2188 41.8929 57.2188ZM41.8929 75.9688H91.1071C92.1526 75.9688 93 75.1293 93 74.0938V69.4062C93 68.3707 92.1526 67.5312 91.1071 67.5312H41.8929C40.8474 67.5312 40 68.3707 40 69.4062V74.0938C40 75.1293 40.8474 75.9688 41.8929 75.9688Z" fill="#FBF4E4"/>
<rect x="35" y="321" width="331" height="197" fill="#FBF4E4"/>
<path d="M70.03 136.766C70.198 137.13 70.282 137.494 70.282 137.858C70.282 138.502 70.016 139.048 69.484 139.496C68.98 139.944 68.392 140.168 67.72 140.168C67.272 140.168 66.852 140.056 66.46 139.832C66.068 139.58 65.76 139.202 65.536 138.698L63.016 133.07H48.232L45.712 138.698C45.488 139.202 45.18 139.58 44.788 139.832C44.396 140.056 43.962 140.168 43.486 140.168C42.842 140.168 42.254 139.944 41.722 139.496C41.19 139.048 40.924 138.502 40.924 137.858C40.924 137.494 41.008 137.13 41.176 136.766L52.768 111.86C53.02 111.3 53.398 110.88 53.902 110.6C54.434 110.292 54.994 110.138 55.582 110.138C56.17 110.138 56.716 110.292 57.22 110.6C57.752 110.88 58.144 111.3 58.396 111.86L70.03 136.766ZM50.08 128.87H61.168L55.624 116.396L50.08 128.87ZM93.1379 110.18C93.9219 110.18 94.5659 110.404 95.0699 110.852C95.5739 111.3 95.8259 111.888 95.8259 112.616V137.732C95.8259 138.488 95.5879 139.09 95.1119 139.538C94.6359 139.986 94.0059 140.21 93.2219 140.21C92.4379 140.21 91.8079 139.986 91.3319 139.538C90.8559 139.09 90.6179 138.488 90.6179 137.732V136.682C90.0019 137.83 89.1059 138.726 87.9299 139.37C86.7819 140.014 85.4659 140.336 83.9819 140.336C82.2179 140.336 80.6359 139.888 79.2359 138.992C77.8639 138.096 76.7859 136.836 76.0019 135.212C75.2459 133.56 74.8679 131.67 74.8679 129.542C74.8679 127.414 75.2459 125.552 76.0019 123.956C76.7859 122.36 77.8639 121.128 79.2359 120.26C80.6079 119.392 82.1899 118.958 83.9819 118.958C85.4659 118.958 86.7819 119.266 87.9299 119.882C89.0779 120.498 89.9599 121.366 90.5759 122.486V112.532C90.5759 111.832 90.7999 111.272 91.2479 110.852C91.7239 110.404 92.3539 110.18 93.1379 110.18ZM85.3679 136.262C87.0479 136.262 88.3359 135.688 89.2319 134.54C90.1559 133.392 90.6179 131.754 90.6179 129.626C90.6179 127.498 90.1559 125.874 89.2319 124.754C88.3359 123.606 87.0619 123.032 85.4099 123.032C83.7299 123.032 82.4279 123.592 81.5039 124.712C80.5799 125.832 80.1179 127.442 80.1179 129.542C80.1179 131.67 80.5799 133.322 81.5039 134.498C82.4279 135.674 83.7159 136.262 85.3679 136.262ZM120.462 110.18C121.246 110.18 121.89 110.404 122.394 110.852C122.898 111.3 123.15 111.888 123.15 112.616V137.732C123.15 138.488 122.912 139.09 122.436 139.538C121.96 139.986 121.33 140.21 120.546 140.21C119.762 140.21 119.132 139.986 118.656 139.538C118.18 139.09 117.942 138.488 117.942 137.732V136.682C117.326 137.83 116.43 138.726 115.254 139.37C114.106 140.014 112.79 140.336 111.306 140.336C109.542 140.336 107.96 139.888 106.56 138.992C105.188 138.096 104.11 136.836 103.326 135.212C102.57 133.56 102.192 131.67 102.192 129.542C102.192 127.414 102.57 125.552 103.326 123.956C104.11 122.36 105.188 121.128 106.56 120.26C107.932 119.392 109.514 118.958 111.306 118.958C112.79 118.958 114.106 119.266 115.254 119.882C116.402 120.498 117.284 121.366 117.9 122.486V112.532C117.9 111.832 118.124 111.272 118.572 110.852C119.048 110.404 119.678 110.18 120.462 110.18ZM112.692 136.262C114.372 136.262 115.66 135.688 116.556 134.54C117.48 133.392 117.942 131.754 117.942 129.626C117.942 127.498 117.48 125.874 116.556 124.754C115.66 123.606 114.386 123.032 112.734 123.032C111.054 123.032 109.752 123.592 108.828 124.712C107.904 125.832 107.442 127.442 107.442 129.542C107.442 131.67 107.904 133.322 108.828 134.498C109.752 135.674 111.04 136.262 112.692 136.262ZM155.955 118.958C157.719 118.958 159.287 119.406 160.659 120.302C162.059 121.198 163.137 122.472 163.893 124.124C164.677 125.748 165.069 127.624 165.069 129.752C165.069 131.88 164.677 133.742 163.893 135.338C163.137 136.934 162.073 138.166 160.701 139.034C159.329 139.902 157.747 140.336 155.955 140.336C154.499 140.336 153.197 140.028 152.049 139.412C150.901 138.796 150.019 137.942 149.403 136.85V145.418C149.403 146.146 149.165 146.72 148.689 147.14C148.213 147.56 147.583 147.77 146.799 147.77C146.015 147.77 145.371 147.546 144.867 147.098C144.391 146.65 144.153 146.062 144.153 145.334V121.52C144.153 120.764 144.377 120.162 144.825 119.714C145.301 119.266 145.931 119.042 146.715 119.042C147.499 119.042 148.129 119.266 148.605 119.714C149.081 120.162 149.319 120.764 149.319 121.52V122.57C149.935 121.422 150.817 120.54 151.965 119.924C153.141 119.28 154.471 118.958 155.955 118.958ZM154.569 136.262C156.221 136.262 157.509 135.702 158.433 134.582C159.357 133.434 159.819 131.824 159.819 129.752C159.819 127.624 159.357 125.972 158.433 124.796C157.509 123.62 156.221 123.032 154.569 123.032C152.889 123.032 151.587 123.606 150.663 124.754C149.767 125.902 149.319 127.54 149.319 129.668C149.319 131.768 149.767 133.392 150.663 134.54C151.587 135.688 152.889 136.262 154.569 136.262ZM180.382 118.958C183.238 118.958 185.352 119.672 186.724 121.1C188.124 122.5 188.824 124.642 188.824 127.526V137.774C188.824 138.53 188.6 139.132 188.152 139.58C187.704 140 187.088 140.21 186.304 140.21C185.576 140.21 184.974 139.986 184.498 139.538C184.05 139.09 183.826 138.502 183.826 137.774V136.85C183.35 137.942 182.594 138.796 181.558 139.412C180.55 140.028 179.374 140.336 178.03 140.336C176.658 140.336 175.412 140.056 174.292 139.496C173.172 138.936 172.29 138.166 171.646 137.186C171.002 136.206 170.68 135.114 170.68 133.91C170.68 132.398 171.058 131.208 171.814 130.34C172.598 129.472 173.858 128.842 175.594 128.45C177.33 128.058 179.724 127.862 182.776 127.862H183.826V126.896C183.826 125.524 183.532 124.53 182.944 123.914C182.356 123.27 181.404 122.948 180.088 122.948C179.276 122.948 178.45 123.074 177.61 123.326C176.77 123.55 175.776 123.886 174.628 124.334C173.9 124.698 173.368 124.88 173.032 124.88C172.528 124.88 172.108 124.698 171.772 124.334C171.464 123.97 171.31 123.494 171.31 122.906C171.31 122.43 171.422 122.024 171.646 121.688C171.898 121.324 172.304 120.988 172.864 120.68C173.844 120.148 175.006 119.728 176.35 119.42C177.722 119.112 179.066 118.958 180.382 118.958ZM179.08 136.556C180.48 136.556 181.614 136.094 182.482 135.17C183.378 134.218 183.826 133 183.826 131.516V130.634H183.07C181.194 130.634 179.738 130.718 178.702 130.886C177.666 131.054 176.924 131.348 176.476 131.768C176.028 132.188 175.804 132.762 175.804 133.49C175.804 134.386 176.112 135.128 176.728 135.716C177.372 136.276 178.156 136.556 179.08 136.556ZM207.726 119.042C208.454 118.986 209.028 119.14 209.448 119.504C209.868 119.868 210.078 120.414 210.078 121.142C210.078 121.898 209.896 122.458 209.532 122.822C209.168 123.186 208.51 123.424 207.558 123.536L206.298 123.662C204.646 123.83 203.428 124.39 202.644 125.342C201.888 126.294 201.51 127.484 201.51 128.912V137.732C201.51 138.544 201.258 139.174 200.754 139.622C200.25 140.042 199.62 140.252 198.864 140.252C198.108 140.252 197.478 140.042 196.974 139.622C196.498 139.174 196.26 138.544 196.26 137.732V121.478C196.26 120.694 196.498 120.092 196.974 119.672C197.478 119.252 198.094 119.042 198.822 119.042C199.55 119.042 200.138 119.252 200.586 119.672C201.034 120.064 201.258 120.638 201.258 121.394V123.074C201.79 121.842 202.574 120.89 203.61 120.218C204.674 119.546 205.85 119.168 207.138 119.084L207.726 119.042ZM226.993 136.346C228.393 136.43 229.093 137.06 229.093 138.236C229.093 138.908 228.813 139.426 228.253 139.79C227.721 140.126 226.951 140.266 225.943 140.21L224.809 140.126C220.105 139.79 217.753 137.27 217.753 132.566V123.41H215.653C214.897 123.41 214.309 123.242 213.889 122.906C213.497 122.57 213.301 122.08 213.301 121.436C213.301 120.792 213.497 120.302 213.889 119.966C214.309 119.63 214.897 119.462 215.653 119.462H217.753V115.598C217.753 114.842 217.991 114.24 218.467 113.792C218.943 113.344 219.587 113.12 220.399 113.12C221.183 113.12 221.813 113.344 222.289 113.792C222.765 114.24 223.003 114.842 223.003 115.598V119.462H226.573C227.329 119.462 227.903 119.63 228.295 119.966C228.715 120.302 228.925 120.792 228.925 121.436C228.925 122.08 228.715 122.57 228.295 122.906C227.903 123.242 227.329 123.41 226.573 123.41H223.003V132.944C223.003 135.016 223.955 136.122 225.859 136.262L226.993 136.346ZM236.532 140.252C235.776 140.252 235.146 140.042 234.642 139.622C234.166 139.174 233.928 138.544 233.928 137.732V121.52C233.928 120.708 234.166 120.092 234.642 119.672C235.146 119.252 235.776 119.042 236.532 119.042C237.288 119.042 237.918 119.252 238.422 119.672C238.926 120.092 239.178 120.708 239.178 121.52V137.732C239.178 138.544 238.926 139.174 238.422 139.622C237.918 140.042 237.288 140.252 236.532 140.252ZM236.532 115.304C235.58 115.304 234.824 115.052 234.264 114.548C233.704 114.016 233.424 113.33 233.424 112.49C233.424 111.65 233.704 110.978 234.264 110.474C234.824 109.97 235.58 109.718 236.532 109.718C237.456 109.718 238.198 109.97 238.758 110.474C239.346 110.978 239.64 111.65 239.64 112.49C239.64 113.33 239.36 114.016 238.8 114.548C238.24 115.052 237.484 115.304 236.532 115.304ZM255.806 140.336C253.762 140.336 251.956 139.902 250.388 139.034C248.848 138.166 247.658 136.934 246.818 135.338C245.978 133.742 245.558 131.88 245.558 129.752C245.558 127.624 245.992 125.748 246.86 124.124C247.756 122.472 249.002 121.198 250.598 120.302C252.194 119.406 254.028 118.958 256.1 118.958C257.192 118.958 258.284 119.112 259.376 119.42C260.496 119.728 261.476 120.148 262.316 120.68C263.212 121.268 263.66 122.01 263.66 122.906C263.66 123.522 263.506 124.026 263.198 124.418C262.918 124.782 262.54 124.964 262.064 124.964C261.756 124.964 261.434 124.894 261.098 124.754C260.762 124.614 260.426 124.446 260.09 124.25C259.474 123.886 258.886 123.606 258.326 123.41C257.766 123.186 257.122 123.074 256.394 123.074C254.658 123.074 253.314 123.648 252.362 124.796C251.438 125.916 250.976 127.54 250.976 129.668C250.976 131.768 251.438 133.392 252.362 134.54C253.314 135.66 254.658 136.22 256.394 136.22C257.094 136.22 257.71 136.122 258.242 135.926C258.802 135.702 259.418 135.408 260.09 135.044C260.51 134.792 260.874 134.61 261.182 134.498C261.49 134.358 261.798 134.288 262.106 134.288C262.554 134.288 262.932 134.484 263.24 134.876C263.548 135.268 263.702 135.758 263.702 136.346C263.702 136.822 263.59 137.242 263.366 137.606C263.17 137.942 262.834 138.25 262.358 138.53C261.49 139.09 260.482 139.538 259.334 139.874C258.186 140.182 257.01 140.336 255.806 140.336ZM271.904 140.252C271.148 140.252 270.518 140.042 270.014 139.622C269.538 139.174 269.3 138.544 269.3 137.732V121.52C269.3 120.708 269.538 120.092 270.014 119.672C270.518 119.252 271.148 119.042 271.904 119.042C272.66 119.042 273.29 119.252 273.794 119.672C274.298 120.092 274.55 120.708 274.55 121.52V137.732C274.55 138.544 274.298 139.174 273.794 139.622C273.29 140.042 272.66 140.252 271.904 140.252ZM271.904 115.304C270.952 115.304 270.196 115.052 269.636 114.548C269.076 114.016 268.796 113.33 268.796 112.49C268.796 111.65 269.076 110.978 269.636 110.474C270.196 109.97 270.952 109.718 271.904 109.718C272.828 109.718 273.57 109.97 274.13 110.474C274.718 110.978 275.012 111.65 275.012 112.49C275.012 113.33 274.732 114.016 274.172 114.548C273.612 115.052 272.856 115.304 271.904 115.304ZM293.866 118.958C295.63 118.958 297.198 119.406 298.57 120.302C299.97 121.198 301.048 122.472 301.804 124.124C302.588 125.748 302.98 127.624 302.98 129.752C302.98 131.88 302.588 133.742 301.804 135.338C301.048 136.934 299.984 138.166 298.612 139.034C297.24 139.902 295.658 140.336 293.866 140.336C292.41 140.336 291.108 140.028 289.96 139.412C288.812 138.796 287.93 137.942 287.314 136.85V145.418C287.314 146.146 287.076 146.72 286.6 147.14C286.124 147.56 285.494 147.77 284.71 147.77C283.926 147.77 283.282 147.546 282.778 147.098C282.302 146.65 282.064 146.062 282.064 145.334V121.52C282.064 120.764 282.288 120.162 282.736 119.714C283.212 119.266 283.842 119.042 284.626 119.042C285.41 119.042 286.04 119.266 286.516 119.714C286.992 120.162 287.23 120.764 287.23 121.52V122.57C287.846 121.422 288.728 120.54 289.876 119.924C291.052 119.28 292.382 118.958 293.866 118.958ZM292.48 136.262C294.132 136.262 295.42 135.702 296.344 134.582C297.268 133.434 297.73 131.824 297.73 129.752C297.73 127.624 297.268 125.972 296.344 124.796C295.42 123.62 294.132 123.032 292.48 123.032C290.8 123.032 289.498 123.606 288.574 124.754C287.678 125.902 287.23 127.54 287.23 129.668C287.23 131.768 287.678 133.392 288.574 134.54C289.498 135.688 290.8 136.262 292.48 136.262ZM318.293 118.958C321.149 118.958 323.263 119.672 324.635 121.1C326.035 122.5 326.735 124.642 326.735 127.526V137.774C326.735 138.53 326.511 139.132 326.063 139.58C325.615 140 324.999 140.21 324.215 140.21C323.487 140.21 322.885 139.986 322.409 139.538C321.961 139.09 321.737 138.502 321.737 137.774V136.85C321.261 137.942 320.505 138.796 319.469 139.412C318.461 140.028 317.285 140.336 315.941 140.336C314.569 140.336 313.323 140.056 312.203 139.496C311.083 138.936 310.201 138.166 309.557 137.186C308.913 136.206 308.591 135.114 308.591 133.91C308.591 132.398 308.969 131.208 309.725 130.34C310.509 129.472 311.769 128.842 313.505 128.45C315.241 128.058 317.635 127.862 320.687 127.862H321.737V126.896C321.737 125.524 321.443 124.53 320.855 123.914C320.267 123.27 319.315 122.948 317.999 122.948C317.187 122.948 316.361 123.074 315.521 123.326C314.681 123.55 313.687 123.886 312.539 124.334C311.811 124.698 311.279 124.88 310.943 124.88C310.439 124.88 310.019 124.698 309.683 124.334C309.375 123.97 309.221 123.494 309.221 122.906C309.221 122.43 309.333 122.024 309.557 121.688C309.809 121.324 310.215 120.988 310.775 120.68C311.755 120.148 312.917 119.728 314.261 119.42C315.633 119.112 316.977 118.958 318.293 118.958ZM316.991 136.556C318.391 136.556 319.525 136.094 320.393 135.17C321.289 134.218 321.737 133 321.737 131.516V130.634H320.981C319.105 130.634 317.649 130.718 316.613 130.886C315.577 131.054 314.835 131.348 314.387 131.768C313.939 132.188 313.715 132.762 313.715 133.49C313.715 134.386 314.023 135.128 314.639 135.716C315.283 136.276 316.067 136.556 316.991 136.556ZM346.099 118.958C348.563 118.958 350.397 119.658 351.601 121.058C352.805 122.458 353.407 124.572 353.407 127.4V137.732C353.407 138.516 353.169 139.132 352.693 139.58C352.245 140.028 351.615 140.252 350.803 140.252C349.991 140.252 349.347 140.028 348.871 139.58C348.395 139.132 348.157 138.516 348.157 137.732V127.694C348.157 126.098 347.849 124.936 347.233 124.208C346.645 123.48 345.707 123.116 344.419 123.116C342.907 123.116 341.689 123.592 340.765 124.544C339.869 125.496 339.421 126.77 339.421 128.366V137.732C339.421 138.516 339.183 139.132 338.707 139.58C338.231 140.028 337.587 140.252 336.775 140.252C335.963 140.252 335.319 140.028 334.843 139.58C334.395 139.132 334.171 138.516 334.171 137.732V121.478C334.171 120.75 334.409 120.162 334.885 119.714C335.361 119.266 336.005 119.042 336.817 119.042C337.545 119.042 338.133 119.266 338.581 119.714C339.057 120.134 339.295 120.694 339.295 121.394V122.528C339.995 121.38 340.933 120.498 342.109 119.882C343.285 119.266 344.615 118.958 346.099 118.958ZM371.507 136.346C372.907 136.43 373.607 137.06 373.607 138.236C373.607 138.908 373.327 139.426 372.767 139.79C372.235 140.126 371.465 140.266 370.457 140.21L369.323 140.126C364.619 139.79 362.267 137.27 362.267 132.566V123.41H360.167C359.411 123.41 358.823 123.242 358.403 122.906C358.011 122.57 357.815 122.08 357.815 121.436C357.815 120.792 358.011 120.302 358.403 119.966C358.823 119.63 359.411 119.462 360.167 119.462H362.267V115.598C362.267 114.842 362.505 114.24 362.981 113.792C363.457 113.344 364.101 113.12 364.913 113.12C365.697 113.12 366.327 113.344 366.803 113.792C367.279 114.24 367.517 114.842 367.517 115.598V119.462H371.087C371.843 119.462 372.417 119.63 372.809 119.966C373.229 120.302 373.439 120.792 373.439 121.436C373.439 122.08 373.229 122.57 372.809 122.906C372.417 123.242 371.843 123.41 371.087 123.41H367.517V132.944C367.517 135.016 368.469 136.122 370.373 136.262L371.507 136.346Z" fill="#DADADA"/>
<path d="M138.062 343H135.812V325.938H138.062V343ZM145.098 330.32L145.169 331.914C146.137 330.695 147.403 330.086 148.966 330.086C151.645 330.086 152.997 331.598 153.02 334.621V343H150.852V334.609C150.845 333.695 150.634 333.02 150.22 332.582C149.813 332.145 149.177 331.926 148.309 331.926C147.606 331.926 146.989 332.113 146.458 332.488C145.927 332.863 145.512 333.355 145.216 333.965V343H143.048V330.32H145.098ZM158.556 343V331.996H156.552V330.32H158.556V329.02C158.556 327.66 158.92 326.609 159.646 325.867C160.373 325.125 161.4 324.754 162.728 324.754C163.228 324.754 163.724 324.82 164.216 324.953L164.099 326.711C163.732 326.641 163.341 326.605 162.927 326.605C162.224 326.605 161.681 326.812 161.298 327.227C160.916 327.633 160.724 328.219 160.724 328.984V330.32H163.431V331.996H160.724V343H158.556ZM166.459 336.543C166.459 335.301 166.702 334.184 167.186 333.191C167.678 332.199 168.358 331.434 169.225 330.895C170.1 330.355 171.096 330.086 172.213 330.086C173.94 330.086 175.334 330.684 176.397 331.879C177.467 333.074 178.002 334.664 178.002 336.648V336.801C178.002 338.035 177.764 339.145 177.288 340.129C176.819 341.105 176.143 341.867 175.26 342.414C174.385 342.961 173.377 343.234 172.237 343.234C170.518 343.234 169.123 342.637 168.053 341.441C166.991 340.246 166.459 338.664 166.459 336.695V336.543ZM168.639 336.801C168.639 338.207 168.963 339.336 169.612 340.188C170.268 341.039 171.143 341.465 172.237 341.465C173.338 341.465 174.213 341.035 174.862 340.176C175.51 339.309 175.834 338.098 175.834 336.543C175.834 335.152 175.502 334.027 174.838 333.168C174.182 332.301 173.307 331.867 172.213 331.867C171.143 331.867 170.28 332.293 169.623 333.145C168.967 333.996 168.639 335.215 168.639 336.801ZM188.05 332.266C187.722 332.211 187.366 332.184 186.984 332.184C185.562 332.184 184.597 332.789 184.089 334V343H181.921V330.32H184.03L184.066 331.785C184.777 330.652 185.784 330.086 187.089 330.086C187.511 330.086 187.831 330.141 188.05 330.25V332.266ZM193.293 330.32L193.352 331.727C194.281 330.633 195.535 330.086 197.113 330.086C198.887 330.086 200.094 330.766 200.734 332.125C201.156 331.516 201.703 331.023 202.375 330.648C203.055 330.273 203.855 330.086 204.777 330.086C207.559 330.086 208.973 331.559 209.02 334.504V343H206.852V334.633C206.852 333.727 206.645 333.051 206.23 332.605C205.816 332.152 205.121 331.926 204.145 331.926C203.34 331.926 202.672 332.168 202.141 332.652C201.609 333.129 201.301 333.773 201.215 334.586V343H199.035V334.691C199.035 332.848 198.133 331.926 196.328 331.926C194.906 331.926 193.934 332.531 193.41 333.742V343H191.242V330.32H193.293ZM221.329 343C221.204 342.75 221.102 342.305 221.024 341.664C220.016 342.711 218.813 343.234 217.415 343.234C216.165 343.234 215.137 342.883 214.333 342.18C213.536 341.469 213.137 340.57 213.137 339.484C213.137 338.164 213.637 337.141 214.637 336.414C215.645 335.68 217.059 335.312 218.88 335.312H220.989V334.316C220.989 333.559 220.762 332.957 220.309 332.512C219.856 332.059 219.188 331.832 218.305 331.832C217.532 331.832 216.884 332.027 216.36 332.418C215.837 332.809 215.575 333.281 215.575 333.836H213.395C213.395 333.203 213.618 332.594 214.063 332.008C214.516 331.414 215.126 330.945 215.891 330.602C216.665 330.258 217.512 330.086 218.434 330.086C219.895 330.086 221.04 330.453 221.868 331.188C222.696 331.914 223.126 332.918 223.157 334.199V340.035C223.157 341.199 223.305 342.125 223.602 342.812V343H221.329ZM217.731 341.348C218.411 341.348 219.055 341.172 219.665 340.82C220.274 340.469 220.716 340.012 220.989 339.449V336.848H219.29C216.634 336.848 215.305 337.625 215.305 339.18C215.305 339.859 215.532 340.391 215.985 340.773C216.438 341.156 217.02 341.348 217.731 341.348ZM230.697 327.25V330.32H233.064V331.996H230.697V339.859C230.697 340.367 230.802 340.75 231.013 341.008C231.224 341.258 231.584 341.383 232.091 341.383C232.341 341.383 232.685 341.336 233.123 341.242V343C232.552 343.156 231.998 343.234 231.459 343.234C230.49 343.234 229.759 342.941 229.267 342.355C228.775 341.77 228.529 340.938 228.529 339.859V331.996H226.22V330.32H228.529V327.25H230.697ZM239.163 343H236.995V330.32H239.163V343ZM236.819 326.957C236.819 326.605 236.924 326.309 237.135 326.066C237.354 325.824 237.674 325.703 238.096 325.703C238.518 325.703 238.838 325.824 239.057 326.066C239.276 326.309 239.385 326.605 239.385 326.957C239.385 327.309 239.276 327.602 239.057 327.836C238.838 328.07 238.518 328.188 238.096 328.188C237.674 328.188 237.354 328.07 237.135 327.836C236.924 327.602 236.819 327.309 236.819 326.957ZM243.269 336.543C243.269 335.301 243.511 334.184 243.995 333.191C244.488 332.199 245.167 331.434 246.034 330.895C246.909 330.355 247.905 330.086 249.023 330.086C250.749 330.086 252.144 330.684 253.206 331.879C254.277 333.074 254.812 334.664 254.812 336.648V336.801C254.812 338.035 254.573 339.145 254.097 340.129C253.628 341.105 252.952 341.867 252.07 342.414C251.195 342.961 250.187 343.234 249.046 343.234C247.327 343.234 245.933 342.637 244.863 341.441C243.8 340.246 243.269 338.664 243.269 336.695V336.543ZM245.448 336.801C245.448 338.207 245.773 339.336 246.421 340.188C247.077 341.039 247.952 341.465 249.046 341.465C250.148 341.465 251.023 341.035 251.671 340.176C252.32 339.309 252.644 338.098 252.644 336.543C252.644 335.152 252.312 334.027 251.648 333.168C250.991 332.301 250.116 331.867 249.023 331.867C247.952 331.867 247.089 332.293 246.433 333.145C245.777 333.996 245.448 335.215 245.448 336.801ZM260.781 330.32L260.852 331.914C261.82 330.695 263.086 330.086 264.648 330.086C267.328 330.086 268.68 331.598 268.703 334.621V343H266.535V334.609C266.527 333.695 266.316 333.02 265.902 332.582C265.496 332.145 264.859 331.926 263.992 331.926C263.289 331.926 262.672 332.113 262.141 332.488C261.609 332.863 261.195 333.355 260.898 333.965V343H258.73V330.32H260.781Z" fill="#2F3136"/>
<rect x="35" y="229" width="331" height="28" fill="#FBF4E4"/>
<path d="M183.325 251H181.063L172.473 237.852V251H170.212V233.938H172.473L181.087 247.145V233.938H183.325V251ZM196.009 251C195.884 250.75 195.783 250.305 195.705 249.664C194.697 250.711 193.494 251.234 192.095 251.234C190.845 251.234 189.818 250.883 189.013 250.18C188.216 249.469 187.818 248.57 187.818 247.484C187.818 246.164 188.318 245.141 189.318 244.414C190.326 243.68 191.74 243.312 193.56 243.312H195.67V242.316C195.67 241.559 195.443 240.957 194.99 240.512C194.537 240.059 193.869 239.832 192.986 239.832C192.212 239.832 191.564 240.027 191.041 240.418C190.517 240.809 190.255 241.281 190.255 241.836H188.076C188.076 241.203 188.298 240.594 188.744 240.008C189.197 239.414 189.806 238.945 190.572 238.602C191.345 238.258 192.193 238.086 193.115 238.086C194.576 238.086 195.72 238.453 196.548 239.188C197.377 239.914 197.806 240.918 197.837 242.199V248.035C197.837 249.199 197.986 250.125 198.283 250.812V251H196.009ZM192.412 249.348C193.091 249.348 193.736 249.172 194.345 248.82C194.955 248.469 195.396 248.012 195.67 247.449V244.848H193.97C191.314 244.848 189.986 245.625 189.986 247.18C189.986 247.859 190.212 248.391 190.666 248.773C191.119 249.156 191.701 249.348 192.412 249.348ZM204.475 238.32L204.534 239.727C205.463 238.633 206.717 238.086 208.295 238.086C210.069 238.086 211.276 238.766 211.916 240.125C212.338 239.516 212.885 239.023 213.557 238.648C214.237 238.273 215.038 238.086 215.959 238.086C218.741 238.086 220.155 239.559 220.202 242.504V251H218.034V242.633C218.034 241.727 217.827 241.051 217.413 240.605C216.998 240.152 216.303 239.926 215.327 239.926C214.522 239.926 213.854 240.168 213.323 240.652C212.791 241.129 212.483 241.773 212.397 242.586V251H210.217V242.691C210.217 240.848 209.315 239.926 207.51 239.926C206.088 239.926 205.116 240.531 204.592 241.742V251H202.424V238.32H204.475ZM229.945 251.234C228.226 251.234 226.827 250.672 225.749 249.547C224.671 248.414 224.132 246.902 224.132 245.012V244.613C224.132 243.355 224.37 242.234 224.847 241.25C225.331 240.258 226.003 239.484 226.862 238.93C227.73 238.367 228.667 238.086 229.675 238.086C231.323 238.086 232.605 238.629 233.519 239.715C234.433 240.801 234.89 242.355 234.89 244.379V245.281H226.3C226.331 246.531 226.695 247.543 227.39 248.316C228.093 249.082 228.984 249.465 230.062 249.465C230.827 249.465 231.476 249.309 232.007 248.996C232.538 248.684 233.003 248.27 233.402 247.754L234.726 248.785C233.663 250.418 232.07 251.234 229.945 251.234ZM229.675 239.867C228.8 239.867 228.066 240.188 227.472 240.828C226.878 241.461 226.511 242.352 226.37 243.5H232.722V243.336C232.659 242.234 232.362 241.383 231.831 240.781C231.3 240.172 230.581 239.867 229.675 239.867Z" fill="#2F3136"/>
<path d="M66.88 824.598C67.216 825.102 67.384 825.592 67.384 826.068C67.384 826.712 67.118 827.244 66.586 827.664C66.082 828.084 65.48 828.294 64.78 828.294C64.332 828.294 63.898 828.196 63.478 828C63.086 827.776 62.75 827.454 62.47 827.034L56.884 818.55C56.324 817.654 55.722 817.024 55.078 816.66C54.462 816.296 53.65 816.114 52.642 816.114H48.526V825.522C48.526 826.362 48.288 827.034 47.812 827.538C47.336 828.014 46.692 828.252 45.88 828.252C45.068 828.252 44.41 828.014 43.906 827.538C43.43 827.034 43.192 826.362 43.192 825.522V800.952C43.192 800.14 43.416 799.51 43.864 799.062C44.34 798.614 44.984 798.39 45.796 798.39H56.296C59.656 798.39 62.204 799.146 63.94 800.658C65.704 802.142 66.586 804.298 66.586 807.126C66.586 809.422 65.928 811.312 64.612 812.796C63.324 814.252 61.49 815.19 59.11 815.61C59.922 815.806 60.636 816.156 61.252 816.66C61.868 817.164 62.47 817.864 63.058 818.76L66.88 824.598ZM55.54 811.956C57.584 811.956 59.082 811.578 60.034 810.822C60.986 810.038 61.462 808.848 61.462 807.252C61.462 805.628 60.986 804.452 60.034 803.724C59.082 802.968 57.584 802.59 55.54 802.59H48.484V811.956H55.54ZM90.2871 822.372C90.7631 822.372 91.1411 822.554 91.4211 822.918C91.7291 823.282 91.8831 823.772 91.8831 824.388C91.8831 825.256 91.3651 825.984 90.3291 826.572C89.3771 827.104 88.2991 827.538 87.0951 827.874C85.8911 828.182 84.7431 828.336 83.6511 828.336C80.3471 828.336 77.7291 827.384 75.7971 825.48C73.8651 823.576 72.8991 820.972 72.8991 817.668C72.8991 815.568 73.3191 813.706 74.1591 812.082C74.9991 810.458 76.1751 809.198 77.6871 808.302C79.2271 807.406 80.9631 806.958 82.8951 806.958C84.7431 806.958 86.3531 807.364 87.7251 808.176C89.0971 808.988 90.1611 810.136 90.9171 811.62C91.6731 813.104 92.0511 814.854 92.0511 816.87C92.0511 818.074 91.5191 818.676 90.4551 818.676H78.0651C78.2331 820.608 78.7791 822.036 79.7031 822.96C80.6271 823.856 81.9711 824.304 83.7351 824.304C84.6311 824.304 85.4151 824.192 86.0871 823.968C86.7871 823.744 87.5711 823.436 88.4391 823.044C89.2791 822.596 89.8951 822.372 90.2871 822.372ZM83.0211 810.654C81.5931 810.654 80.4451 811.102 79.5771 811.998C78.7371 812.894 78.2331 814.182 78.0651 815.862H87.5571C87.5011 814.154 87.0811 812.866 86.2971 811.998C85.5131 811.102 84.4211 810.654 83.0211 810.654ZM108.827 824.346C110.227 824.43 110.927 825.06 110.927 826.236C110.927 826.908 110.647 827.426 110.087 827.79C109.555 828.126 108.785 828.266 107.777 828.21L106.643 828.126C101.939 827.79 99.5865 825.27 99.5865 820.566V811.41H97.4865C96.7305 811.41 96.1425 811.242 95.7225 810.906C95.3305 810.57 95.1345 810.08 95.1345 809.436C95.1345 808.792 95.3305 808.302 95.7225 807.966C96.1425 807.63 96.7305 807.462 97.4865 807.462H99.5865V803.598C99.5865 802.842 99.8245 802.24 100.301 801.792C100.777 801.344 101.421 801.12 102.233 801.12C103.017 801.12 103.647 801.344 104.123 801.792C104.599 802.24 104.837 802.842 104.837 803.598V807.462H108.407C109.163 807.462 109.737 807.63 110.129 807.966C110.549 808.302 110.759 808.792 110.759 809.436C110.759 810.08 110.549 810.57 110.129 810.906C109.737 811.242 109.163 811.41 108.407 811.41H104.837V820.944C104.837 823.016 105.789 824.122 107.693 824.262L108.827 824.346ZM131.974 807.042C132.786 807.042 133.43 807.266 133.906 807.714C134.382 808.162 134.62 808.764 134.62 809.52V825.816C134.62 826.544 134.368 827.132 133.864 827.58C133.388 828.028 132.758 828.252 131.974 828.252C131.218 828.252 130.616 828.042 130.168 827.622C129.72 827.202 129.496 826.628 129.496 825.9V824.85C128.852 825.97 127.984 826.838 126.892 827.454C125.8 828.042 124.568 828.336 123.196 828.336C118.156 828.336 115.636 825.508 115.636 819.852V809.52C115.636 808.764 115.874 808.162 116.35 807.714C116.826 807.266 117.456 807.042 118.24 807.042C119.052 807.042 119.696 807.266 120.172 807.714C120.648 808.162 120.886 808.764 120.886 809.52V819.894C120.886 821.35 121.18 822.428 121.768 823.128C122.356 823.828 123.28 824.178 124.54 824.178C125.996 824.178 127.158 823.702 128.026 822.75C128.922 821.77 129.37 820.482 129.37 818.886V809.52C129.37 808.764 129.608 808.162 130.084 807.714C130.56 807.266 131.19 807.042 131.974 807.042ZM153.651 807.042C154.379 806.986 154.953 807.14 155.373 807.504C155.793 807.868 156.003 808.414 156.003 809.142C156.003 809.898 155.821 810.458 155.457 810.822C155.093 811.186 154.435 811.424 153.483 811.536L152.223 811.662C150.571 811.83 149.353 812.39 148.569 813.342C147.813 814.294 147.435 815.484 147.435 816.912V825.732C147.435 826.544 147.183 827.174 146.679 827.622C146.175 828.042 145.545 828.252 144.789 828.252C144.033 828.252 143.403 828.042 142.899 827.622C142.423 827.174 142.185 826.544 142.185 825.732V809.478C142.185 808.694 142.423 808.092 142.899 807.672C143.403 807.252 144.019 807.042 144.747 807.042C145.475 807.042 146.063 807.252 146.511 807.672C146.959 808.064 147.183 808.638 147.183 809.394V811.074C147.715 809.842 148.499 808.89 149.535 808.218C150.599 807.546 151.775 807.168 153.063 807.084L153.651 807.042ZM172.291 806.958C174.755 806.958 176.589 807.658 177.793 809.058C178.997 810.458 179.599 812.572 179.599 815.4V825.732C179.599 826.516 179.361 827.132 178.885 827.58C178.437 828.028 177.807 828.252 176.995 828.252C176.183 828.252 175.539 828.028 175.063 827.58C174.587 827.132 174.349 826.516 174.349 825.732V815.694C174.349 814.098 174.041 812.936 173.425 812.208C172.837 811.48 171.899 811.116 170.611 811.116C169.099 811.116 167.881 811.592 166.957 812.544C166.061 813.496 165.613 814.77 165.613 816.366V825.732C165.613 826.516 165.375 827.132 164.899 827.58C164.423 828.028 163.779 828.252 162.967 828.252C162.155 828.252 161.511 828.028 161.035 827.58C160.587 827.132 160.363 826.516 160.363 825.732V809.478C160.363 808.75 160.601 808.162 161.077 807.714C161.553 807.266 162.197 807.042 163.009 807.042C163.737 807.042 164.325 807.266 164.773 807.714C165.249 808.134 165.487 808.694 165.487 809.394V810.528C166.187 809.38 167.125 808.498 168.301 807.882C169.477 807.266 170.807 806.958 172.291 806.958Z" fill="#E25454"/>
<path d="M53.44 746.378C51.284 746.378 49.24 746.098 47.308 745.538C45.404 744.95 43.85 744.166 42.646 743.186C42.002 742.71 41.68 742.038 41.68 741.17C41.68 740.582 41.848 740.078 42.184 739.658C42.548 739.21 42.968 738.986 43.444 738.986C43.948 738.986 44.522 739.182 45.166 739.574C46.37 740.442 47.63 741.072 48.946 741.464C50.262 741.856 51.718 742.052 53.314 742.052C55.358 742.052 56.926 741.702 58.018 741.002C59.11 740.274 59.656 739.224 59.656 737.852C59.656 736.788 59.138 735.976 58.102 735.416C57.094 734.828 55.4 734.268 53.02 733.736C50.556 733.204 48.554 732.588 47.014 731.888C45.474 731.188 44.312 730.292 43.528 729.2C42.744 728.108 42.352 726.722 42.352 725.042C42.352 723.306 42.842 721.752 43.822 720.38C44.802 719.008 46.16 717.944 47.896 717.188C49.66 716.404 51.634 716.012 53.818 716.012C57.822 716.012 61.084 717.076 63.604 719.204C63.968 719.512 64.22 719.82 64.36 720.128C64.528 720.408 64.612 720.772 64.612 721.22C64.612 721.808 64.43 722.326 64.066 722.774C63.73 723.194 63.324 723.404 62.848 723.404C62.568 723.404 62.302 723.362 62.05 723.278C61.826 723.194 61.518 723.04 61.126 722.816C59.978 721.976 58.858 721.36 57.766 720.968C56.702 720.548 55.386 720.338 53.818 720.338C51.914 720.338 50.402 720.73 49.282 721.514C48.19 722.27 47.644 723.334 47.644 724.706C47.644 725.854 48.134 726.736 49.114 727.352C50.094 727.968 51.76 728.542 54.112 729.074C56.604 729.634 58.62 730.264 60.16 730.964C61.728 731.636 62.918 732.504 63.73 733.568C64.57 734.632 64.99 735.962 64.99 737.558C64.99 739.294 64.5 740.834 63.52 742.178C62.568 743.494 61.21 744.53 59.446 745.286C57.71 746.014 55.708 746.378 53.44 746.378ZM80.5172 724.958C83.3732 724.958 85.4872 725.672 86.8592 727.1C88.2592 728.5 88.9592 730.642 88.9592 733.526V743.774C88.9592 744.53 88.7352 745.132 88.2872 745.58C87.8392 746 87.2232 746.21 86.4392 746.21C85.7112 746.21 85.1092 745.986 84.6332 745.538C84.1852 745.09 83.9612 744.502 83.9612 743.774V742.85C83.4852 743.942 82.7292 744.796 81.6932 745.412C80.6852 746.028 79.5092 746.336 78.1652 746.336C76.7932 746.336 75.5472 746.056 74.4272 745.496C73.3072 744.936 72.4252 744.166 71.7812 743.186C71.1372 742.206 70.8152 741.114 70.8152 739.91C70.8152 738.398 71.1932 737.208 71.9492 736.34C72.7332 735.472 73.9932 734.842 75.7292 734.45C77.4652 734.058 79.8592 733.862 82.9112 733.862H83.9612V732.896C83.9612 731.524 83.6672 730.53 83.0792 729.914C82.4912 729.27 81.5392 728.948 80.2232 728.948C79.4112 728.948 78.5852 729.074 77.7452 729.326C76.9052 729.55 75.9112 729.886 74.7632 730.334C74.0352 730.698 73.5032 730.88 73.1672 730.88C72.6632 730.88 72.2432 730.698 71.9072 730.334C71.5992 729.97 71.4452 729.494 71.4452 728.906C71.4452 728.43 71.5572 728.024 71.7812 727.688C72.0332 727.324 72.4392 726.988 72.9992 726.68C73.9792 726.148 75.1412 725.728 76.4852 725.42C77.8572 725.112 79.2012 724.958 80.5172 724.958ZM79.2152 742.556C80.6152 742.556 81.7492 742.094 82.6172 741.17C83.5132 740.218 83.9612 739 83.9612 737.516V736.634H83.2052C81.3292 736.634 79.8732 736.718 78.8372 736.886C77.8012 737.054 77.0592 737.348 76.6112 737.768C76.1632 738.188 75.9392 738.762 75.9392 739.49C75.9392 740.386 76.2472 741.128 76.8632 741.716C77.5072 742.276 78.2912 742.556 79.2152 742.556ZM106.769 720.296C105.481 720.38 104.543 720.772 103.955 721.472C103.367 722.172 103.073 723.18 103.073 724.496V725.462H106.643C108.211 725.462 108.995 726.12 108.995 727.436C108.995 728.752 108.211 729.41 106.643 729.41H103.073V743.732C103.073 744.544 102.821 745.16 102.317 745.58C101.841 746 101.225 746.21 100.469 746.21C99.7128 746.21 99.0828 746 98.5788 745.58C98.0748 745.16 97.8228 744.544 97.8228 743.732V729.41H95.7228C94.1548 729.41 93.3708 728.752 93.3708 727.436C93.3708 726.12 94.1548 725.462 95.7228 725.462H97.8228V725.168C97.8228 722.536 98.5088 720.478 99.8808 718.994C101.281 717.482 103.241 716.628 105.761 716.432L106.853 716.348C107.973 716.264 108.757 716.39 109.205 716.726C109.681 717.034 109.919 717.524 109.919 718.196C109.919 719.4 109.233 720.072 107.861 720.212L106.769 720.296ZM129.597 740.372C130.073 740.372 130.451 740.554 130.731 740.918C131.039 741.282 131.193 741.772 131.193 742.388C131.193 743.256 130.675 743.984 129.639 744.572C128.687 745.104 127.609 745.538 126.405 745.874C125.201 746.182 124.053 746.336 122.961 746.336C119.657 746.336 117.039 745.384 115.107 743.48C113.175 741.576 112.209 738.972 112.209 735.668C112.209 733.568 112.629 731.706 113.469 730.082C114.309 728.458 115.485 727.198 116.997 726.302C118.537 725.406 120.273 724.958 122.205 724.958C124.053 724.958 125.663 725.364 127.035 726.176C128.407 726.988 129.471 728.136 130.227 729.62C130.983 731.104 131.361 732.854 131.361 734.87C131.361 736.074 130.829 736.676 129.765 736.676H117.375C117.543 738.608 118.089 740.036 119.013 740.96C119.937 741.856 121.281 742.304 123.045 742.304C123.941 742.304 124.725 742.192 125.397 741.968C126.097 741.744 126.881 741.436 127.749 741.044C128.589 740.596 129.205 740.372 129.597 740.372ZM122.331 728.654C120.903 728.654 119.755 729.102 118.887 729.998C118.047 730.894 117.543 732.182 117.375 733.862H126.867C126.811 732.154 126.391 730.866 125.607 729.998C124.823 729.102 123.731 728.654 122.331 728.654Z" fill="#F2A154"/>
</g>
<rect x="0.5" y="0.5" width="427" height="925" stroke="black"/>
</g>
<defs>
<filter id="filter0_d_47_215" x="-4" y="0" width="436" height="934" filterUnits="userSpaceOnUse" color-interpolation-filters="sRGB">
<feFlood flood-opacity="0" result="BackgroundImageFix"/>
<feColorMatrix in="SourceAlpha" type="matrix" values="0 0 0 0 0 0 0 0 0 0 0 0 0 0 0 0 0 0 127 0" result="hardAlpha"/>
<feOffset dy="4"/>
<feGaussianBlur stdDeviation="2"/>
<feComposite in2="hardAlpha" operator="out"/>
<feColorMatrix type="matrix" values="0 0 0 0 0 0 0 0 0 0 0 0 0 0 0 0 0 0 0.25 0"/>
<feBlend mode="normal" in2="BackgroundImageFix" result="effect1_dropShadow_47_215"/>
<feBlend mode="normal" in="SourceGraphic" in2="effect1_dropShadow_47_215" result="shape"/>
</filter>
<clipPath id="clip0_47_215">
<rect width="428" height="926" fill="white"/>
</clipPath>
</defs>
</svg>
