<svg width="428" height="926" viewBox="0 0 428 926" fill="none" xmlns="http://www.w3.org/2000/svg">
<g filter="url(#filter0_d_36_125)">
<g clip-path="url(#clip0_36_125)">
<rect width="428" height="926" fill="#2F3136"/>
<rect x="23" width="405" height="926" fill="#35393F"/>
<g clip-path="url(#clip1_36_125)">
<path d="M370.75 855.219V858.031C370.75 858.805 370.111 859.438 369.33 859.438H360.339V868.344C360.339 869.117 359.7 869.75 358.92 869.75H356.08C355.3 869.75 354.661 869.117 354.661 868.344V859.438H345.67C344.889 859.438 344.25 858.805 344.25 858.031V855.219C344.25 854.445 344.889 853.812 345.67 853.812H354.661V844.906C354.661 844.133 355.3 843.5 356.08 843.5H358.92C359.7 843.5 360.339 844.133 360.339 844.906V853.812H369.33C370.111 853.812 370.75 854.445 370.75 855.219ZM384 834.125V875.375C384 878.48 381.456 881 378.321 881H336.679C333.544 881 331 878.48 331 875.375V834.125C331 831.02 333.544 828.5 336.679 828.5H342.357V822.406C342.357 821.633 342.996 821 343.777 821H348.509C349.29 821 349.929 821.633 349.929 822.406V828.5H365.071V822.406C365.071 821.633 365.71 821 366.491 821H371.223C372.004 821 372.643 821.633 372.643 822.406V828.5H378.321C381.456 828.5 384 831.02 384 834.125ZM378.321 874.672V839.75H336.679V874.672C336.679 875.059 336.998 875.375 337.388 875.375H377.612C378.002 875.375 378.321 875.059 378.321 874.672Z" fill="#FBF4E4"/>
</g>
<rect x="35" y="274" width="380" height="362" rx="8" fill="#F7F5F5"/>
<path d="M95.3273 320.909H92.9687V329.832H92.8536L86.6917 320.909H84.5695V334H86.941V325.083H87.0496L93.218 334H95.3273V320.909ZM102.092 334.192C104.968 334.192 106.796 332.165 106.796 329.129C106.796 326.087 104.968 324.054 102.092 324.054C99.2153 324.054 97.3872 326.087 97.3872 329.129C97.3872 332.165 99.2153 334.192 102.092 334.192ZM102.104 332.338C100.513 332.338 99.733 330.919 99.733 329.123C99.733 327.327 100.513 325.888 102.104 325.888C103.671 325.888 104.45 327.327 104.45 329.123C104.45 330.919 103.671 332.338 102.104 332.338ZM117.196 324.182H114.735L112.472 331.475H112.37L110.114 324.182H107.646L111.143 334H113.7L117.196 324.182ZM122.81 334.192C125.098 334.192 126.671 333.073 127.08 331.366L124.919 331.124C124.606 331.955 123.839 332.389 122.842 332.389C121.346 332.389 120.355 331.405 120.336 329.724H127.176V329.014C127.176 325.569 125.105 324.054 122.688 324.054C119.876 324.054 118.041 326.119 118.041 329.148C118.041 332.229 119.85 334.192 122.81 334.192ZM120.343 328.164C120.413 326.911 121.34 325.857 122.72 325.857C124.05 325.857 124.945 326.828 124.958 328.164H120.343ZM129.133 334H131.447V328.03C131.447 326.822 132.253 326.004 133.25 326.004C134.228 326.004 134.899 326.662 134.899 327.672V334H137.168V327.876C137.168 326.771 137.826 326.004 138.945 326.004C139.878 326.004 140.62 326.553 140.62 327.768V334H142.94V327.41C142.94 325.217 141.674 324.054 139.872 324.054C138.446 324.054 137.36 324.757 136.925 325.85H136.823C136.446 324.738 135.493 324.054 134.17 324.054C132.853 324.054 131.869 324.732 131.46 325.85H131.345V324.182H129.133V334ZM145.39 334H147.665V332.453H147.8C148.164 333.169 148.925 334.173 150.612 334.173C152.926 334.173 154.658 332.338 154.658 329.104C154.658 325.831 152.875 324.054 150.606 324.054C148.873 324.054 148.151 325.096 147.8 325.805H147.704V320.909H145.39V334ZM147.659 329.091C147.659 327.186 148.477 325.952 149.967 325.952C151.507 325.952 152.3 327.263 152.3 329.091C152.3 330.932 151.494 332.274 149.967 332.274C148.49 332.274 147.659 330.996 147.659 329.091ZM160.972 334.192C163.26 334.192 164.833 333.073 165.242 331.366L163.081 331.124C162.768 331.955 162.001 332.389 161.004 332.389C159.508 332.389 158.517 331.405 158.498 329.724H165.338V329.014C165.338 325.569 163.267 324.054 160.851 324.054C158.038 324.054 156.204 326.119 156.204 329.148C156.204 332.229 158.013 334.192 160.972 334.192ZM158.505 328.164C158.575 326.911 159.502 325.857 160.883 325.857C162.212 325.857 163.107 326.828 163.12 328.164H158.505ZM167.295 334H169.609V328.228C169.609 326.982 170.549 326.099 171.821 326.099C172.211 326.099 172.697 326.17 172.895 326.234V324.105C172.684 324.067 172.32 324.041 172.064 324.041C170.939 324.041 169.999 324.68 169.641 325.818H169.539V324.182H167.295V334ZM178.871 334H187.846V332.018H182.144V331.929L184.4 329.634C186.945 327.192 187.648 326.004 187.648 324.527C187.648 322.335 185.864 320.73 183.231 320.73C180.636 320.73 178.795 322.341 178.795 324.827H181.051C181.051 323.491 181.895 322.654 183.199 322.654C184.445 322.654 185.372 323.415 185.372 324.648C185.372 325.741 184.707 326.521 183.416 327.832L178.871 332.287V334ZM194.89 334.249C198.047 334.256 199.933 331.763 199.933 327.467C199.933 323.197 198.035 320.73 194.89 320.73C191.745 320.73 189.853 323.191 189.847 327.467C189.847 331.756 191.732 334.249 194.89 334.249ZM194.89 332.249C193.26 332.249 192.237 330.612 192.244 327.467C192.25 324.348 193.266 322.705 194.89 322.705C196.52 322.705 197.536 324.348 197.543 327.467C197.543 330.612 196.526 332.249 194.89 332.249ZM202.057 334H211.031V332.018H205.33V331.929L207.586 329.634C210.13 327.192 210.833 326.004 210.833 324.527C210.833 322.335 209.05 320.73 206.416 320.73C203.821 320.73 201.98 322.341 201.98 324.827H204.237C204.237 323.491 205.08 322.654 206.384 322.654C207.631 322.654 208.558 323.415 208.558 324.648C208.558 325.741 207.893 326.521 206.602 327.832L202.057 332.287V334ZM218.561 320.909H216.305L213.051 322.999V325.173L216.113 323.217H216.19V334H218.561V320.909Z" fill="black"/>
<path d="M56.5852 377.508H58.8672C58.8224 375.296 56.9368 373.73 54.1499 373.73C51.4013 373.73 49.3366 375.277 49.343 377.591C49.343 379.47 50.679 380.55 52.8331 381.107L54.3224 381.49C55.7351 381.848 56.6683 382.289 56.6747 383.305C56.6683 384.424 55.6072 385.172 54.0604 385.172C52.5774 385.172 51.4268 384.507 51.331 383.133H48.9979C49.0938 385.734 51.0305 387.198 54.0795 387.198C57.218 387.198 59.0398 385.632 59.0462 383.325C59.0398 381.055 57.1669 380.02 55.1982 379.553L53.9709 379.246C52.897 378.991 51.7337 378.537 51.7464 377.444C51.7528 376.46 52.6349 375.737 54.1179 375.737C55.5305 375.737 56.4638 376.396 56.5852 377.508ZM67.3159 382.871C67.3159 384.366 66.2484 385.108 65.2257 385.108C64.1135 385.108 63.372 384.322 63.372 383.075V377.182H61.0581V383.433C61.0581 385.792 62.4004 387.128 64.3308 387.128C65.801 387.128 66.8365 386.354 67.2839 385.255H67.3862V387H69.6298V377.182H67.3159V382.871Z" fill="black"/>
<path d="M103.159 373.909V387H105.435V377.987H105.556L109.174 386.962H110.875L114.492 378.006H114.614V387H116.889V373.909H113.987L110.101 383.395H109.948L106.061 373.909H103.159ZM123.652 387.192C126.529 387.192 128.357 385.165 128.357 382.129C128.357 379.087 126.529 377.054 123.652 377.054C120.776 377.054 118.948 379.087 118.948 382.129C118.948 385.165 120.776 387.192 123.652 387.192ZM123.665 385.338C122.073 385.338 121.294 383.919 121.294 382.123C121.294 380.327 122.073 378.888 123.665 378.888C125.231 378.888 126.011 380.327 126.011 382.123C126.011 383.919 125.231 385.338 123.665 385.338Z" fill="black"/>
<path d="M161.467 375.897H165.513V387H167.865V375.897H171.911V373.909H161.467V375.897ZM178.745 382.871C178.745 384.366 177.677 385.108 176.654 385.108C175.542 385.108 174.801 384.322 174.801 383.075V377.182H172.487V383.433C172.487 385.792 173.829 387.128 175.759 387.128C177.23 387.128 178.265 386.354 178.713 385.255H178.815V387H181.059V377.182H178.745V382.871Z" fill="black"/>
<path d="M217.651 387H219.99L222.617 377.815H222.72L225.34 387H227.68L231.374 373.909H228.824L226.465 383.536H226.35L223.825 373.909H221.505L218.987 383.529H218.865L216.506 373.909H213.956L217.651 387ZM236.261 387.192C238.549 387.192 240.122 386.073 240.531 384.366L238.37 384.124C238.057 384.955 237.29 385.389 236.293 385.389C234.797 385.389 233.807 384.405 233.787 382.724H240.627V382.014C240.627 378.569 238.556 377.054 236.14 377.054C233.327 377.054 231.493 379.119 231.493 382.148C231.493 385.229 233.302 387.192 236.261 387.192ZM233.794 381.164C233.864 379.911 234.791 378.857 236.172 378.857C237.501 378.857 238.396 379.828 238.409 381.164H233.794Z" fill="black"/>
<path d="M272.755 375.897H276.801V387H279.153V375.897H283.2V373.909H272.755V375.897ZM287.425 381.247C287.425 379.828 288.307 379.01 289.547 379.01C290.761 379.01 291.477 379.783 291.477 381.107V387H293.791V380.749C293.791 378.377 292.449 377.054 290.41 377.054C288.901 377.054 287.942 377.738 287.489 378.85H287.374V373.909H285.111V387H287.425V381.247Z" fill="black"/>
<path d="M332.02 387H334.391V381.439H339.831V379.451H334.391V375.897H340.406V373.909H332.02V387ZM342.324 387H344.638V381.228C344.638 379.982 345.577 379.099 346.849 379.099C347.239 379.099 347.725 379.17 347.923 379.234V377.105C347.712 377.067 347.348 377.041 347.092 377.041C345.967 377.041 345.028 377.68 344.67 378.818H344.567V377.182H342.324V387Z" fill="black"/>
<path d="M392.893 377.508H395.175C395.13 375.296 393.244 373.73 390.457 373.73C387.709 373.73 385.644 375.277 385.651 377.591C385.651 379.47 386.987 380.55 389.141 381.107L390.63 381.49C392.043 381.848 392.976 382.289 392.982 383.305C392.976 384.424 391.915 385.172 390.368 385.172C388.885 385.172 387.734 384.507 387.639 383.133H385.305C385.401 385.734 387.338 387.198 390.387 387.198C393.526 387.198 395.347 385.632 395.354 383.325C395.347 381.055 393.475 380.02 391.506 379.553L390.278 379.246C389.205 378.991 388.041 378.537 388.054 377.444C388.06 376.46 388.943 375.737 390.426 375.737C391.838 375.737 392.771 376.396 392.893 377.508ZM400.191 387.198C401.731 387.198 402.652 386.476 403.074 385.651H403.15V387H405.375V380.429C405.375 377.834 403.259 377.054 401.386 377.054C399.322 377.054 397.736 377.974 397.225 379.764L399.386 380.071C399.616 379.4 400.268 378.825 401.399 378.825C402.473 378.825 403.061 379.374 403.061 380.339V380.378C403.061 381.043 402.364 381.075 400.632 381.26C398.727 381.464 396.905 382.033 396.905 384.245C396.905 386.175 398.318 387.198 400.191 387.198ZM400.792 385.498C399.827 385.498 399.136 385.057 399.136 384.207C399.136 383.318 399.91 382.947 400.945 382.8C401.552 382.717 402.767 382.564 403.067 382.321V383.478C403.067 384.571 402.185 385.498 400.792 385.498Z" fill="black"/>
<path d="M56.2621 438.179C58.9339 438.179 60.8963 436.581 60.8899 434.408C60.8963 432.752 59.8928 431.563 58.1541 431.295V431.192C59.522 430.841 60.4105 429.767 60.4041 428.297C60.4105 426.373 58.8317 424.73 56.3132 424.73C53.9098 424.73 51.9794 426.181 51.9155 428.31H53.8267C53.8714 427.108 55.0028 426.379 56.2876 426.379C57.6236 426.379 58.4993 427.191 58.4929 428.399C58.4993 429.665 57.483 430.496 56.032 430.496H54.9261V432.107H56.032C57.8473 432.107 58.8956 433.027 58.8956 434.344C58.8956 435.616 57.7898 436.479 56.2493 436.479C54.8303 436.479 53.7244 435.75 53.6477 434.587H51.6406C51.7237 436.722 53.6158 438.179 56.2621 438.179ZM68.2727 424.909H66.3487L63.0824 427.044V428.936L66.2145 426.891H66.2912V438H68.2727V424.909Z" fill="#BFBFBF"/>
<path d="M118.472 424.909H116.548L113.282 427.044V428.936L116.414 426.891H116.49V438H118.472V424.909Z" fill="#444444"/>
<path d="M168.24 438H176.856V436.306H170.963V436.21L173.564 433.487C175.961 431.065 176.645 429.908 176.645 428.444C176.645 426.341 174.932 424.73 172.465 424.73C170.017 424.73 168.227 426.315 168.227 428.706H170.113C170.106 427.3 171.014 426.379 172.426 426.379C173.756 426.379 174.766 427.197 174.766 428.501C174.766 429.658 174.076 430.489 172.669 431.979L168.24 436.568V438Z" fill="#444444"/>
<path d="M228.516 438.179C231.188 438.179 233.15 436.581 233.144 434.408C233.15 432.752 232.147 431.563 230.408 431.295V431.192C231.776 430.841 232.664 429.767 232.658 428.297C232.664 426.373 231.086 424.73 228.567 424.73C226.164 424.73 224.233 426.181 224.169 428.31H226.081C226.125 427.108 227.257 426.379 228.542 426.379C229.877 426.379 230.753 427.191 230.747 428.399C230.753 429.665 229.737 430.496 228.286 430.496H227.18V432.107H228.286C230.101 432.107 231.15 433.027 231.15 434.344C231.15 435.616 230.044 436.479 228.503 436.479C227.084 436.479 225.978 435.75 225.902 434.587H223.895C223.978 436.722 225.87 438.179 228.516 438.179Z" fill="#444444"/>
<path d="M279.596 435.443H285.802V438H287.688V435.443H289.42V433.768H287.688V424.909H285.253L279.596 433.845V435.443ZM285.815 433.768H281.667V433.666L285.713 427.261H285.815V433.768Z" fill="#444444"/>
<path d="M340.499 438.179C343.133 438.179 345.012 436.319 345.006 433.768C345.012 431.237 343.248 429.396 340.864 429.396C339.892 429.396 338.991 429.767 338.479 430.266H338.403L338.818 426.603H344.373V424.909H337.175L336.44 431.506L338.249 431.774C338.741 431.333 339.623 431.033 340.416 431.033C341.969 431.045 343.094 432.209 343.094 433.807C343.094 435.379 342.001 436.517 340.499 436.517C339.234 436.517 338.23 435.712 338.128 434.587H336.21C336.287 436.67 338.096 438.179 340.499 438.179Z" fill="#444444"/>
<path d="M396.608 438.179C399.344 438.205 401.159 436.236 401.153 433.724C401.159 431.218 399.337 429.422 397.068 429.422C395.687 429.422 394.492 430.087 393.821 431.192H393.725C393.731 428.22 394.856 426.456 396.774 426.456C398.033 426.456 398.826 427.223 399.094 428.31H401.044C400.744 426.239 399.114 424.73 396.774 424.73C393.731 424.73 391.833 427.344 391.833 431.896C391.827 436.715 394.281 438.16 396.608 438.179ZM396.601 436.517C395.08 436.517 393.968 435.239 393.968 433.768C393.974 432.305 395.138 431.026 396.646 431.026C398.142 431.026 399.241 432.234 399.235 433.749C399.241 435.296 398.097 436.517 396.601 436.517Z" fill="#444444"/>
<path d="M56.9884 481H59.053L64.7483 469.661V467.909H56.0935V469.603H62.7029V469.699L56.9884 481Z" fill="#444444"/>
<path d="M116.496 481.179C119.219 481.179 121.143 479.632 121.156 477.51C121.143 475.861 119.986 474.474 118.522 474.212V474.135C119.794 473.828 120.657 472.633 120.67 471.22C120.657 469.219 118.893 467.73 116.496 467.73C114.073 467.73 112.309 469.219 112.322 471.22C112.309 472.626 113.172 473.828 114.47 474.135V474.212C112.98 474.474 111.823 475.861 111.836 477.51C111.823 479.632 113.747 481.179 116.496 481.179ZM116.496 479.562C114.86 479.562 113.824 478.692 113.837 477.382C113.824 476.021 114.949 475.049 116.496 475.049C118.017 475.049 119.142 476.021 119.155 477.382C119.142 478.692 118.113 479.562 116.496 479.562ZM116.496 473.47C115.173 473.47 114.233 472.633 114.246 471.386C114.233 470.159 115.141 469.347 116.496 469.347C117.826 469.347 118.733 470.159 118.746 471.386C118.733 472.633 117.8 473.47 116.496 473.47Z" fill="#444444"/>
<path d="M172.391 467.73C169.642 467.705 167.846 469.68 167.846 472.16C167.852 474.659 169.661 476.462 171.93 476.462C173.317 476.462 174.506 475.784 175.177 474.685H175.28C175.273 477.695 174.142 479.453 172.224 479.453C170.972 479.453 170.166 478.686 169.91 477.567H167.961C168.248 479.683 169.885 481.179 172.224 481.179C175.267 481.179 177.172 478.565 177.172 473.982C177.165 469.2 174.724 467.749 172.391 467.73ZM172.397 469.392C173.912 469.392 175.03 470.677 175.03 472.115C175.037 473.572 173.854 474.851 172.359 474.851C170.856 474.851 169.77 473.649 169.763 472.134C169.763 470.613 170.895 469.392 172.397 469.392Z" fill="#444444"/>
<path d="M224.662 467.909H222.738L219.472 470.044V471.936L222.604 469.891H222.681V481H224.662V467.909ZM232.761 481.217C235.785 481.217 237.555 478.75 237.555 474.461C237.555 470.204 235.759 467.73 232.761 467.73C229.757 467.73 227.967 470.197 227.961 474.461C227.961 478.744 229.731 481.211 232.761 481.217ZM232.761 479.511C230.991 479.511 229.923 477.734 229.923 474.461C229.929 471.201 230.997 469.405 232.761 469.405C234.519 469.405 235.593 471.201 235.593 474.461C235.593 477.734 234.525 479.511 232.761 479.511Z" fill="#444444"/>
<path d="M282.218 467.909H280.294L277.028 470.044V471.936L280.16 469.891H280.237V481H282.218V467.909ZM290.726 467.909H288.802L285.536 470.044V471.936L288.668 469.891H288.744V481H290.726V467.909Z" fill="#444444"/>
<path d="M336.952 467.909H335.028L331.762 470.044V471.936L334.894 469.891H334.971V481H336.952V467.909ZM340.494 481H349.11V479.306H343.217V479.21L345.818 476.487C348.215 474.065 348.899 472.908 348.899 471.444C348.899 469.341 347.186 467.73 344.719 467.73C342.271 467.73 340.481 469.315 340.481 471.706H342.366C342.36 470.3 343.268 469.379 344.68 469.379C346.01 469.379 347.02 470.197 347.02 471.501C347.02 472.658 346.33 473.489 344.923 474.979L340.494 479.568V481Z" fill="#444444"/>
<path d="M392.671 467.909H390.747L387.481 470.044V471.936L390.613 469.891H390.69V481H392.671V467.909ZM400.77 481.179C403.442 481.179 405.404 479.581 405.398 477.408C405.404 475.752 404.401 474.563 402.662 474.295V474.192C404.03 473.841 404.918 472.767 404.912 471.297C404.918 469.373 403.339 467.73 400.821 467.73C398.418 467.73 396.487 469.181 396.423 471.31H398.335C398.379 470.108 399.511 469.379 400.795 469.379C402.131 469.379 403.007 470.191 403.001 471.399C403.007 472.665 401.991 473.496 400.54 473.496H399.434V475.107H400.54C402.355 475.107 403.403 476.027 403.403 477.344C403.403 478.616 402.298 479.479 400.757 479.479C399.338 479.479 398.232 478.75 398.156 477.587H396.148C396.232 479.722 398.124 481.179 400.77 481.179Z" fill="#444444"/>
<path d="M57.0833 510.909H55.1593L51.8929 513.044V514.936L55.025 512.891H55.1017V524H57.0833V510.909ZM60.3496 521.443H66.5563V524H68.4419V521.443H70.1742V519.768H68.4419V510.909H66.0066L60.3496 519.845V521.443ZM66.5691 519.768H62.4206V519.666L66.4668 513.261H66.5691V519.768Z" fill="#444444"/>
<rect width="56" height="43" transform="translate(89 496)" fill="#444444"/>
<path d="M113.391 510.909H111.467L108.201 513.044V514.936L111.333 512.891H111.409V524H113.391V510.909ZM121.253 524.179C123.887 524.179 125.766 522.319 125.759 519.768C125.766 517.237 124.002 515.396 121.617 515.396C120.646 515.396 119.745 515.767 119.233 516.266H119.157L119.572 512.603H125.127V510.909H117.929L117.194 517.506L119.003 517.774C119.495 517.333 120.377 517.033 121.17 517.033C122.723 517.045 123.848 518.209 123.848 519.807C123.848 521.379 122.755 522.517 121.253 522.517C119.987 522.517 118.984 521.712 118.882 520.587H116.964C117.041 522.67 118.85 524.179 121.253 524.179Z" fill="#E5E5E5"/>
<path d="M169.25 510.909H167.326L164.06 513.044V514.936L167.192 512.891H167.269V524H169.25V510.909ZM177.362 524.179C180.098 524.205 181.913 522.236 181.907 519.724C181.913 517.218 180.091 515.422 177.822 515.422C176.441 515.422 175.246 516.087 174.575 517.192H174.479C174.485 514.22 175.61 512.456 177.528 512.456C178.787 512.456 179.58 513.223 179.848 514.31H181.798C181.497 512.239 179.867 510.73 177.528 510.73C174.485 510.73 172.587 513.344 172.587 517.896C172.581 522.715 175.035 524.16 177.362 524.179ZM177.355 522.517C175.834 522.517 174.722 521.239 174.722 519.768C174.728 518.305 175.892 517.026 177.4 517.026C178.896 517.026 179.995 518.234 179.989 519.749C179.995 521.296 178.851 522.517 177.355 522.517Z" fill="#444444"/>
<path d="M225.76 510.909H223.836L220.57 513.044V514.936L223.702 512.891H223.778V524H225.76V510.909ZM229.742 524H231.807L237.502 512.661V510.909H228.847V512.603H235.457V512.699L229.742 524Z" fill="#444444"/>
<path d="M281.285 510.909H279.361L276.095 513.044V514.936L279.227 512.891H279.304V524H281.285V510.909ZM289.25 524.179C291.973 524.179 293.897 522.632 293.91 520.51C293.897 518.861 292.74 517.474 291.276 517.212V517.135C292.548 516.828 293.411 515.633 293.424 514.22C293.411 512.219 291.647 510.73 289.25 510.73C286.827 510.73 285.063 512.219 285.076 514.22C285.063 515.626 285.926 516.828 287.224 517.135V517.212C285.734 517.474 284.577 518.861 284.59 520.51C284.577 522.632 286.501 524.179 289.25 524.179ZM289.25 522.562C287.614 522.562 286.578 521.692 286.591 520.382C286.578 519.021 287.703 518.049 289.25 518.049C290.771 518.049 291.896 519.021 291.909 520.382C291.896 521.692 290.867 522.562 289.25 522.562ZM289.25 516.47C287.927 516.47 286.987 515.633 287 514.386C286.987 513.159 287.895 512.347 289.25 512.347C290.579 512.347 291.487 513.159 291.5 514.386C291.487 515.633 290.554 516.47 289.25 516.47Z" fill="#444444"/>
<rect width="56" height="43" transform="translate(313 496)" fill="#E25454"/>
<path d="M337.25 510.909H335.326L332.06 513.044V514.936L335.192 512.891H335.269V524H337.25V510.909ZM345.144 510.73C342.396 510.705 340.6 512.68 340.6 515.16C340.606 517.659 342.415 519.462 344.684 519.462C346.071 519.462 347.26 518.784 347.931 517.685H348.034C348.027 520.695 346.896 522.453 344.978 522.453C343.725 522.453 342.92 521.686 342.664 520.567H340.715C341.002 522.683 342.639 524.179 344.978 524.179C348.021 524.179 349.926 521.565 349.926 516.982C349.919 512.2 347.478 510.749 345.144 510.73ZM345.151 512.392C346.666 512.392 347.784 513.677 347.784 515.115C347.791 516.572 346.608 517.851 345.112 517.851C343.61 517.851 342.524 516.649 342.517 515.134C342.517 513.613 343.649 512.392 345.151 512.392Z" fill="#E5E5E5"/>
<path d="M386.43 524H395.047V522.306H389.153V522.21L391.755 519.487C394.152 517.065 394.836 515.908 394.836 514.444C394.836 512.341 393.123 510.73 390.655 510.73C388.207 510.73 386.417 512.315 386.417 514.706H388.303C388.297 513.3 389.204 512.379 390.617 512.379C391.946 512.379 392.956 513.197 392.956 514.501C392.956 515.658 392.266 516.489 390.86 517.979L386.43 522.568V524ZM402.027 524.217C405.05 524.217 406.821 521.75 406.821 517.461C406.821 513.204 405.025 510.73 402.027 510.73C399.022 510.73 397.233 513.197 397.226 517.461C397.226 521.744 398.997 524.211 402.027 524.217ZM402.027 522.511C400.256 522.511 399.189 520.734 399.189 517.461C399.195 514.201 400.263 512.405 402.027 512.405C403.785 512.405 404.858 514.201 404.858 517.461C404.858 520.734 403.791 522.511 402.027 522.511Z" fill="#444444"/>
<path d="M51.9858 567H60.6023V565.306H54.7088V565.21L57.3104 562.487C59.7074 560.065 60.3913 558.908 60.3913 557.444C60.3913 555.341 58.6783 553.73 56.2109 553.73C53.7628 553.73 51.973 555.315 51.973 557.706H53.8587C53.8523 556.3 54.7599 555.379 56.1726 555.379C57.5021 555.379 58.5121 556.197 58.5121 557.501C58.5121 558.658 57.8217 559.489 56.4155 560.979L51.9858 565.568V567ZM67.9915 553.909H66.0675L62.8011 556.044V557.936L65.9332 555.891H66.0099V567H67.9915V553.909Z" fill="#444444"/>
<path d="M106.72 567H115.337V565.306H109.443V565.21L112.045 562.487C114.442 560.065 115.126 558.908 115.126 557.444C115.126 555.341 113.413 553.73 110.945 553.73C108.497 553.73 106.707 555.315 106.707 557.706H108.593C108.587 556.3 109.494 555.379 110.907 555.379C112.237 555.379 113.246 556.197 113.246 557.501C113.246 558.658 112.556 559.489 111.15 560.979L106.72 565.568V567ZM117.759 567H126.376V565.306H120.482V565.21L123.084 562.487C125.481 560.065 126.165 558.908 126.165 557.444C126.165 555.341 124.452 553.73 121.984 553.73C119.536 553.73 117.746 555.315 117.746 557.706H119.632C119.626 556.3 120.533 555.379 121.946 555.379C123.276 555.379 124.286 556.197 124.286 557.501C124.286 558.658 123.595 559.489 122.189 560.979L117.759 565.568V567Z" fill="#444444"/>
<path d="M162.439 567H171.055V565.306H165.162V565.21L167.763 562.487C170.161 560.065 170.844 558.908 170.844 557.444C170.844 555.341 169.131 553.73 166.664 553.73C164.216 553.73 162.426 555.315 162.426 557.706H164.312C164.305 556.3 165.213 555.379 166.626 555.379C167.955 555.379 168.965 556.197 168.965 557.501C168.965 558.658 168.275 559.489 166.869 560.979L162.439 565.568V567ZM178.036 567.179C180.707 567.179 182.67 565.581 182.663 563.408C182.67 561.752 181.666 560.563 179.928 560.295V560.192C181.295 559.841 182.184 558.767 182.178 557.297C182.184 555.373 180.605 553.73 178.087 553.73C175.683 553.73 173.753 555.181 173.689 557.31H175.6C175.645 556.108 176.776 555.379 178.061 555.379C179.397 555.379 180.273 556.191 180.266 557.399C180.273 558.665 179.256 559.496 177.805 559.496H176.7V561.107H177.805C179.621 561.107 180.669 562.027 180.669 563.344C180.669 564.616 179.563 565.479 178.023 565.479C176.604 565.479 175.498 564.75 175.421 563.587H173.414C173.497 565.722 175.389 567.179 178.036 567.179Z" fill="#444444"/>
<path d="M218.492 567H227.108V565.306H221.215V565.21L223.816 562.487C226.213 560.065 226.897 558.908 226.897 557.444C226.897 555.341 225.184 553.73 222.717 553.73C220.269 553.73 218.479 555.315 218.479 557.706H220.365C220.358 556.3 221.266 555.379 222.678 555.379C224.008 555.379 225.018 556.197 225.018 557.501C225.018 558.658 224.328 559.489 222.921 560.979L218.492 565.568V567ZM228.975 564.443H235.181V567H237.067V564.443H238.799V562.768H237.067V553.909H234.632L228.975 562.845V564.443ZM235.194 562.768H231.046V562.666L235.092 556.261H235.194V562.768Z" fill="#444444"/>
<rect width="56" height="43" transform="translate(256.5 539)" fill="#E25454"/>
<path d="M274.492 567H283.108V565.306H277.215V565.21L279.816 562.487C282.213 560.065 282.897 558.908 282.897 557.444C282.897 555.341 281.184 553.73 278.717 553.73C276.269 553.73 274.479 555.315 274.479 557.706H276.365C276.358 556.3 277.266 555.379 278.678 555.379C280.008 555.379 281.018 556.197 281.018 557.501C281.018 558.658 280.328 559.489 278.921 560.979L274.492 565.568V567ZM284.975 564.443H291.181V567H293.067V564.443H294.799V562.768H293.067V553.909H290.632L284.975 562.845V564.443ZM291.194 562.768H287.046V562.666L291.092 556.261H291.194V562.768Z" fill="#E5E5E5"/>
<path d="M330.518 567H339.134V565.306H333.241V565.21L335.843 562.487C338.24 560.065 338.924 558.908 338.924 557.444C338.924 555.341 337.21 553.73 334.743 553.73C332.295 553.73 330.505 555.315 330.505 557.706H332.391C332.384 556.3 333.292 555.379 334.705 555.379C336.034 555.379 337.044 556.197 337.044 557.501C337.044 558.658 336.354 559.489 334.948 560.979L330.518 565.568V567ZM346.127 567.179C348.863 567.205 350.679 565.236 350.672 562.724C350.679 560.218 348.857 558.422 346.588 558.422C345.207 558.422 344.012 559.087 343.34 560.192H343.245C343.251 557.22 344.376 555.456 346.294 555.456C347.553 555.456 348.345 556.223 348.614 557.31H350.563C350.263 555.239 348.633 553.73 346.294 553.73C343.251 553.73 341.353 556.344 341.353 560.896C341.346 565.715 343.801 567.16 346.127 567.179ZM346.121 565.517C344.6 565.517 343.487 564.239 343.487 562.768C343.494 561.305 344.657 560.026 346.166 560.026C347.661 560.026 348.761 561.234 348.755 562.749C348.761 564.296 347.617 565.517 346.121 565.517Z" fill="#444444"/>
<path d="M387.028 567H395.644V565.306H389.751V565.21L392.352 562.487C394.749 560.065 395.433 558.908 395.433 557.444C395.433 555.341 393.72 553.73 391.253 553.73C388.805 553.73 387.015 555.315 387.015 557.706H388.901C388.894 556.3 389.802 555.379 391.215 555.379C392.544 555.379 393.554 556.197 393.554 557.501C393.554 558.658 392.864 559.489 391.457 560.979L387.028 565.568V567ZM398.508 567H400.573L406.268 555.661V553.909H397.613V555.603H404.222V555.699L398.508 567Z" fill="#444444"/>
<path d="M50.5532 610H59.1697V608.306H53.2762V608.21L55.8778 605.487C58.2748 603.065 58.9587 601.908 58.9587 600.444C58.9587 598.341 57.2457 596.73 54.7783 596.73C52.3302 596.73 50.5404 598.315 50.5404 600.706H52.426C52.4197 599.3 53.3273 598.379 54.74 598.379C56.0695 598.379 57.0795 599.197 57.0795 600.501C57.0795 601.658 56.3891 602.489 54.9829 603.979L50.5532 608.568V610ZM66.0155 610.179C68.7385 610.179 70.6626 608.632 70.6753 606.51C70.6626 604.861 69.5056 603.474 68.0418 603.212V603.135C69.3138 602.828 70.1768 601.633 70.1895 600.22C70.1768 598.219 68.4126 596.73 66.0155 596.73C63.593 596.73 61.8287 598.219 61.8415 600.22C61.8287 601.626 62.6917 602.828 63.9893 603.135V603.212C62.4999 603.474 61.343 604.861 61.3557 606.51C61.343 608.632 63.267 610.179 66.0155 610.179ZM66.0155 608.562C64.3792 608.562 63.3437 607.692 63.3564 606.382C63.3437 605.021 64.4687 604.049 66.0155 604.049C67.5368 604.049 68.6618 605.021 68.6746 606.382C68.6618 607.692 67.6327 608.562 66.0155 608.562ZM66.0155 602.47C64.6924 602.47 63.7528 601.633 63.7655 600.386C63.7528 599.159 64.6604 598.347 66.0155 598.347C67.3451 598.347 68.2528 599.159 68.2655 600.386C68.2528 601.633 67.3195 602.47 66.0155 602.47Z" fill="#444444"/>
<path d="M106.518 610H115.134V608.306H109.241V608.21L111.843 605.487C114.24 603.065 114.924 601.908 114.924 600.444C114.924 598.341 113.21 596.73 110.743 596.73C108.295 596.73 106.505 598.315 106.505 600.706H108.391C108.384 599.3 109.292 598.379 110.705 598.379C112.034 598.379 113.044 599.197 113.044 600.501C113.044 601.658 112.354 602.489 110.948 603.979L106.518 608.568V610ZM121.91 596.73C119.161 596.705 117.365 598.68 117.365 601.16C117.372 603.659 119.181 605.462 121.45 605.462C122.837 605.462 124.026 604.784 124.697 603.685H124.799C124.793 606.695 123.661 608.453 121.744 608.453C120.491 608.453 119.686 607.686 119.43 606.567H117.48C117.768 608.683 119.404 610.179 121.744 610.179C124.786 610.179 126.691 607.565 126.691 602.982C126.685 598.2 124.243 596.749 121.91 596.73ZM121.916 598.392C123.431 598.392 124.55 599.677 124.55 601.115C124.556 602.572 123.374 603.851 121.878 603.851C120.376 603.851 119.289 602.649 119.283 601.134C119.283 599.613 120.414 598.392 121.916 598.392Z" fill="#444444"/>
<path d="M166.706 610.179C169.378 610.179 171.341 608.581 171.334 606.408C171.341 604.752 170.337 603.563 168.598 603.295V603.192C169.966 602.841 170.855 601.767 170.848 600.297C170.855 598.373 169.276 596.73 166.758 596.73C164.354 596.73 162.424 598.181 162.36 600.31H164.271C164.316 599.108 165.447 598.379 166.732 598.379C168.068 598.379 168.944 599.191 168.937 600.399C168.944 601.665 167.927 602.496 166.476 602.496H165.37V604.107H166.476C168.292 604.107 169.34 605.027 169.34 606.344C169.34 607.616 168.234 608.479 166.694 608.479C165.275 608.479 164.169 607.75 164.092 606.587H162.085C162.168 608.722 164.06 610.179 166.706 610.179ZM178.308 610.217C181.331 610.217 183.102 607.75 183.102 603.461C183.102 599.204 181.306 596.73 178.308 596.73C175.304 596.73 173.514 599.197 173.508 603.461C173.508 607.744 175.278 610.211 178.308 610.217ZM178.308 608.511C176.537 608.511 175.47 606.734 175.47 603.461C175.476 600.201 176.544 598.405 178.308 598.405C180.066 598.405 181.14 600.201 181.14 603.461C181.14 606.734 180.072 608.511 178.308 608.511Z" fill="#444444"/>
<path d="M230.472 596.909H228.548L225.282 599.044V600.936L228.414 598.891H228.49V610H230.472V596.909Z" fill="#BFBFBF"/>
<path d="M280.24 610H288.856V608.306H282.963V608.21L285.564 605.487C287.961 603.065 288.645 601.908 288.645 600.444C288.645 598.341 286.932 596.73 284.465 596.73C282.017 596.73 280.227 598.315 280.227 600.706H282.113C282.106 599.3 283.014 598.379 284.426 598.379C285.756 598.379 286.766 599.197 286.766 600.501C286.766 601.658 286.076 602.489 284.669 603.979L280.24 608.568V610Z" fill="#BFBFBF"/>
<path d="M340.516 610.179C343.188 610.179 345.15 608.581 345.144 606.408C345.15 604.752 344.147 603.563 342.408 603.295V603.192C343.776 602.841 344.664 601.767 344.658 600.297C344.664 598.373 343.086 596.73 340.567 596.73C338.164 596.73 336.233 598.181 336.169 600.31H338.081C338.125 599.108 339.257 598.379 340.542 598.379C341.877 598.379 342.753 599.191 342.747 600.399C342.753 601.665 341.737 602.496 340.286 602.496H339.18V604.107H340.286C342.101 604.107 343.15 605.027 343.15 606.344C343.15 607.616 342.044 608.479 340.503 608.479C339.084 608.479 337.978 607.75 337.902 606.587H335.895C335.978 608.722 337.87 610.179 340.516 610.179Z" fill="#BFBFBF"/>
<path d="M391.596 607.443H397.802V610H399.688V607.443H401.42V605.768H399.688V596.909H397.253L391.596 605.845V607.443ZM397.815 605.768H393.667V605.666L397.713 599.261H397.815V605.768Z" fill="#BFBFBF"/>
<path d="M-0.912109 465.492C-0.640266 465.444 -0.459247 465.184 -0.50779 464.912L-1.29885 460.482C-1.34739 460.21 -1.60711 460.029 -1.87896 460.078C-2.1508 460.126 -2.33182 460.386 -2.28328 460.658L-1.58011 464.596L-5.51782 465.299C-5.78967 465.347 -5.97069 465.607 -5.92214 465.879C-5.8736 466.151 -5.61387 466.332 -5.34203 466.283L-0.912109 465.492ZM-67.2859 419.41L-1.2859 465.41L-0.714108 464.59L-66.7141 418.59L-67.2859 419.41Z" fill="#514E4E"/>
</g>
<rect x="0.5" y="0.5" width="427" height="925" stroke="black"/>
</g>
<defs>
<filter id="filter0_d_36_125" x="-4" y="0" width="436" height="934" filterUnits="userSpaceOnUse" color-interpolation-filters="sRGB">
<feFlood flood-opacity="0" result="BackgroundImageFix"/>
<feColorMatrix in="SourceAlpha" type="matrix" values="0 0 0 0 0 0 0 0 0 0 0 0 0 0 0 0 0 0 127 0" result="hardAlpha"/>
<feOffset dy="4"/>
<feGaussianBlur stdDeviation="2"/>
<feComposite in2="hardAlpha" operator="out"/>
<feColorMatrix type="matrix" values="0 0 0 0 0 0 0 0 0 0 0 0 0 0 0 0 0 0 0.25 0"/>
<feBlend mode="normal" in2="BackgroundImageFix" result="effect1_dropShadow_36_125"/>
<feBlend mode="normal" in="SourceGraphic" in2="effect1_dropShadow_36_125" result="shape"/>
</filter>
<clipPath id="clip0_36_125">
<rect width="428" height="926" fill="white"/>
</clipPath>
<clipPath id="clip1_36_125">
<rect width="53" height="60" fill="white" transform="translate(331 821)"/>
</clipPath>
</defs>
</svg>
