<svg width="428" height="926" viewBox="0 0 428 926" fill="none" xmlns="http://www.w3.org/2000/svg">
<g filter="url(#filter0_d_66_116)">
<rect width="428" height="926" fill="#2F3136"/>
<rect width="405" height="926" fill="#35393F"/>
<path d="M41.8929 38.4688H91.1071C92.1526 38.4688 93 37.6293 93 36.5938V31.9062C93 30.8707 92.1526 30.0312 91.1071 30.0312H41.8929C40.8474 30.0312 40 30.8707 40 31.9062V36.5938C40 37.6293 40.8474 38.4688 41.8929 38.4688ZM41.8929 57.2188H91.1071C92.1526 57.2188 93 56.3793 93 55.3438V50.6562C93 49.6207 92.1526 48.7812 91.1071 48.7812H41.8929C40.8474 48.7812 40 49.6207 40 50.6562V55.3438C40 56.3793 40.8474 57.2188 41.8929 57.2188ZM41.8929 75.9688H91.1071C92.1526 75.9688 93 75.1293 93 74.0938V69.4062C93 68.3707 92.1526 67.5312 91.1071 67.5312H41.8929C40.8474 67.5312 40 68.3707 40 69.4062V74.0938C40 75.1293 40.8474 75.9688 41.8929 75.9688Z" fill="#FBF4E4"/>
<path d="M66.88 824.598C67.216 825.102 67.384 825.592 67.384 826.068C67.384 826.712 67.118 827.244 66.586 827.664C66.082 828.084 65.48 828.294 64.78 828.294C64.332 828.294 63.898 828.196 63.478 828C63.086 827.776 62.75 827.454 62.47 827.034L56.884 818.55C56.324 817.654 55.722 817.024 55.078 816.66C54.462 816.296 53.65 816.114 52.642 816.114H48.526V825.522C48.526 826.362 48.288 827.034 47.812 827.538C47.336 828.014 46.692 828.252 45.88 828.252C45.068 828.252 44.41 828.014 43.906 827.538C43.43 827.034 43.192 826.362 43.192 825.522V800.952C43.192 800.14 43.416 799.51 43.864 799.062C44.34 798.614 44.984 798.39 45.796 798.39H56.296C59.656 798.39 62.204 799.146 63.94 800.658C65.704 802.142 66.586 804.298 66.586 807.126C66.586 809.422 65.928 811.312 64.612 812.796C63.324 814.252 61.49 815.19 59.11 815.61C59.922 815.806 60.636 816.156 61.252 816.66C61.868 817.164 62.47 817.864 63.058 818.76L66.88 824.598ZM55.54 811.956C57.584 811.956 59.082 811.578 60.034 810.822C60.986 810.038 61.462 808.848 61.462 807.252C61.462 805.628 60.986 804.452 60.034 803.724C59.082 802.968 57.584 802.59 55.54 802.59H48.484V811.956H55.54ZM90.2871 822.372C90.7631 822.372 91.1411 822.554 91.4211 822.918C91.7291 823.282 91.8831 823.772 91.8831 824.388C91.8831 825.256 91.3651 825.984 90.3291 826.572C89.3771 827.104 88.2991 827.538 87.0951 827.874C85.8911 828.182 84.7431 828.336 83.6511 828.336C80.3471 828.336 77.7291 827.384 75.7971 825.48C73.8651 823.576 72.8991 820.972 72.8991 817.668C72.8991 815.568 73.3191 813.706 74.1591 812.082C74.9991 810.458 76.1751 809.198 77.6871 808.302C79.2271 807.406 80.9631 806.958 82.8951 806.958C84.7431 806.958 86.3531 807.364 87.7251 808.176C89.0971 808.988 90.1611 810.136 90.9171 811.62C91.6731 813.104 92.0511 814.854 92.0511 816.87C92.0511 818.074 91.5191 818.676 90.4551 818.676H78.0651C78.2331 820.608 78.7791 822.036 79.7031 822.96C80.6271 823.856 81.9711 824.304 83.7351 824.304C84.6311 824.304 85.4151 824.192 86.0871 823.968C86.7871 823.744 87.5711 823.436 88.4391 823.044C89.2791 822.596 89.8951 822.372 90.2871 822.372ZM83.0211 810.654C81.5931 810.654 80.4451 811.102 79.5771 811.998C78.7371 812.894 78.2331 814.182 78.0651 815.862H87.5571C87.5011 814.154 87.0811 812.866 86.2971 811.998C85.5131 811.102 84.4211 810.654 83.0211 810.654ZM108.827 824.346C110.227 824.43 110.927 825.06 110.927 826.236C110.927 826.908 110.647 827.426 110.087 827.79C109.555 828.126 108.785 828.266 107.777 828.21L106.643 828.126C101.939 827.79 99.5865 825.27 99.5865 820.566V811.41H97.4865C96.7305 811.41 96.1425 811.242 95.7225 810.906C95.3305 810.57 95.1345 810.08 95.1345 809.436C95.1345 808.792 95.3305 808.302 95.7225 807.966C96.1425 807.63 96.7305 807.462 97.4865 807.462H99.5865V803.598C99.5865 802.842 99.8245 802.24 100.301 801.792C100.777 801.344 101.421 801.12 102.233 801.12C103.017 801.12 103.647 801.344 104.123 801.792C104.599 802.24 104.837 802.842 104.837 803.598V807.462H108.407C109.163 807.462 109.737 807.63 110.129 807.966C110.549 808.302 110.759 808.792 110.759 809.436C110.759 810.08 110.549 810.57 110.129 810.906C109.737 811.242 109.163 811.41 108.407 811.41H104.837V820.944C104.837 823.016 105.789 824.122 107.693 824.262L108.827 824.346ZM131.974 807.042C132.786 807.042 133.43 807.266 133.906 807.714C134.382 808.162 134.62 808.764 134.62 809.52V825.816C134.62 826.544 134.368 827.132 133.864 827.58C133.388 828.028 132.758 828.252 131.974 828.252C131.218 828.252 130.616 828.042 130.168 827.622C129.72 827.202 129.496 826.628 129.496 825.9V824.85C128.852 825.97 127.984 826.838 126.892 827.454C125.8 828.042 124.568 828.336 123.196 828.336C118.156 828.336 115.636 825.508 115.636 819.852V809.52C115.636 808.764 115.874 808.162 116.35 807.714C116.826 807.266 117.456 807.042 118.24 807.042C119.052 807.042 119.696 807.266 120.172 807.714C120.648 808.162 120.886 808.764 120.886 809.52V819.894C120.886 821.35 121.18 822.428 121.768 823.128C122.356 823.828 123.28 824.178 124.54 824.178C125.996 824.178 127.158 823.702 128.026 822.75C128.922 821.77 129.37 820.482 129.37 818.886V809.52C129.37 808.764 129.608 808.162 130.084 807.714C130.56 807.266 131.19 807.042 131.974 807.042ZM153.651 807.042C154.379 806.986 154.953 807.14 155.373 807.504C155.793 807.868 156.003 808.414 156.003 809.142C156.003 809.898 155.821 810.458 155.457 810.822C155.093 811.186 154.435 811.424 153.483 811.536L152.223 811.662C150.571 811.83 149.353 812.39 148.569 813.342C147.813 814.294 147.435 815.484 147.435 816.912V825.732C147.435 826.544 147.183 827.174 146.679 827.622C146.175 828.042 145.545 828.252 144.789 828.252C144.033 828.252 143.403 828.042 142.899 827.622C142.423 827.174 142.185 826.544 142.185 825.732V809.478C142.185 808.694 142.423 808.092 142.899 807.672C143.403 807.252 144.019 807.042 144.747 807.042C145.475 807.042 146.063 807.252 146.511 807.672C146.959 808.064 147.183 808.638 147.183 809.394V811.074C147.715 809.842 148.499 808.89 149.535 808.218C150.599 807.546 151.775 807.168 153.063 807.084L153.651 807.042ZM172.291 806.958C174.755 806.958 176.589 807.658 177.793 809.058C178.997 810.458 179.599 812.572 179.599 815.4V825.732C179.599 826.516 179.361 827.132 178.885 827.58C178.437 828.028 177.807 828.252 176.995 828.252C176.183 828.252 175.539 828.028 175.063 827.58C174.587 827.132 174.349 826.516 174.349 825.732V815.694C174.349 814.098 174.041 812.936 173.425 812.208C172.837 811.48 171.899 811.116 170.611 811.116C169.099 811.116 167.881 811.592 166.957 812.544C166.061 813.496 165.613 814.77 165.613 816.366V825.732C165.613 826.516 165.375 827.132 164.899 827.58C164.423 828.028 163.779 828.252 162.967 828.252C162.155 828.252 161.511 828.028 161.035 827.58C160.587 827.132 160.363 826.516 160.363 825.732V809.478C160.363 808.75 160.601 808.162 161.077 807.714C161.553 807.266 162.197 807.042 163.009 807.042C163.737 807.042 164.325 807.266 164.773 807.714C165.249 808.134 165.487 808.694 165.487 809.394V810.528C166.187 809.38 167.125 808.498 168.301 807.882C169.477 807.266 170.807 806.958 172.291 806.958Z" fill="#E25454"/>
<rect x="12" y="297" width="380" height="362" rx="8" fill="#F7F5F5"/>
<path d="M72.3273 343.909H69.9687V352.832H69.8536L63.6917 343.909H61.5695V357H63.941V348.083H64.0496L70.218 357H72.3273V343.909ZM79.0917 357.192C81.9681 357.192 83.7963 355.165 83.7963 352.129C83.7963 349.087 81.9681 347.054 79.0917 347.054C76.2153 347.054 74.3872 349.087 74.3872 352.129C74.3872 355.165 76.2153 357.192 79.0917 357.192ZM79.1045 355.338C77.5129 355.338 76.733 353.919 76.733 352.123C76.733 350.327 77.5129 348.888 79.1045 348.888C80.6705 348.888 81.4504 350.327 81.4504 352.123C81.4504 353.919 80.6705 355.338 79.1045 355.338ZM94.1961 347.182H91.7352L89.4724 354.475H89.3701L87.1137 347.182H84.6464L88.1428 357H90.6997L94.1961 347.182ZM99.8099 357.192C102.098 357.192 103.671 356.073 104.08 354.366L101.919 354.124C101.606 354.955 100.839 355.389 99.8419 355.389C98.3461 355.389 97.3554 354.405 97.3362 352.724H104.176V352.014C104.176 348.569 102.105 347.054 99.6885 347.054C96.876 347.054 95.0415 349.119 95.0415 352.148C95.0415 355.229 96.8504 357.192 99.8099 357.192ZM97.3426 351.164C97.4129 349.911 98.3398 348.857 99.7204 348.857C101.05 348.857 101.945 349.828 101.958 351.164H97.3426ZM106.133 357H108.447V351.03C108.447 349.822 109.253 349.004 110.25 349.004C111.228 349.004 111.899 349.662 111.899 350.672V357H114.168V350.876C114.168 349.771 114.826 349.004 115.945 349.004C116.878 349.004 117.62 349.553 117.62 350.768V357H119.94V350.41C119.94 348.217 118.674 347.054 116.872 347.054C115.446 347.054 114.36 347.757 113.925 348.85H113.823C113.446 347.738 112.493 347.054 111.17 347.054C109.853 347.054 108.869 347.732 108.46 348.85H108.345V347.182H106.133V357ZM122.39 357H124.665V355.453H124.8C125.164 356.169 125.925 357.173 127.612 357.173C129.926 357.173 131.658 355.338 131.658 352.104C131.658 348.831 129.875 347.054 127.606 347.054C125.873 347.054 125.151 348.096 124.8 348.805H124.704V343.909H122.39V357ZM124.659 352.091C124.659 350.186 125.477 348.952 126.967 348.952C128.507 348.952 129.3 350.263 129.3 352.091C129.3 353.932 128.494 355.274 126.967 355.274C125.49 355.274 124.659 353.996 124.659 352.091ZM137.972 357.192C140.26 357.192 141.833 356.073 142.242 354.366L140.081 354.124C139.768 354.955 139.001 355.389 138.004 355.389C136.508 355.389 135.517 354.405 135.498 352.724H142.338V352.014C142.338 348.569 140.267 347.054 137.851 347.054C135.038 347.054 133.204 349.119 133.204 352.148C133.204 355.229 135.013 357.192 137.972 357.192ZM135.505 351.164C135.575 349.911 136.502 348.857 137.883 348.857C139.212 348.857 140.107 349.828 140.12 351.164H135.505ZM144.295 357H146.609V351.228C146.609 349.982 147.549 349.099 148.821 349.099C149.211 349.099 149.697 349.17 149.895 349.234V347.105C149.684 347.067 149.32 347.041 149.064 347.041C147.939 347.041 146.999 347.68 146.641 348.818H146.539V347.182H144.295V357ZM155.871 357H164.846V355.018H159.144V354.929L161.4 352.634C163.945 350.192 164.648 349.004 164.648 347.527C164.648 345.335 162.864 343.73 160.231 343.73C157.636 343.73 155.795 345.341 155.795 347.827H158.051C158.051 346.491 158.895 345.654 160.199 345.654C161.445 345.654 162.372 346.415 162.372 347.648C162.372 348.741 161.707 349.521 160.416 350.832L155.871 355.287V357ZM171.89 357.249C175.047 357.256 176.933 354.763 176.933 350.467C176.933 346.197 175.035 343.73 171.89 343.73C168.745 343.73 166.853 346.191 166.847 350.467C166.847 354.756 168.732 357.249 171.89 357.249ZM171.89 355.249C170.26 355.249 169.237 353.612 169.244 350.467C169.25 347.348 170.266 345.705 171.89 345.705C173.52 345.705 174.536 347.348 174.543 350.467C174.543 353.612 173.526 355.249 171.89 355.249ZM179.057 357H188.031V355.018H182.33V354.929L184.586 352.634C187.13 350.192 187.833 349.004 187.833 347.527C187.833 345.335 186.05 343.73 183.416 343.73C180.821 343.73 178.98 345.341 178.98 347.827H181.237C181.237 346.491 182.08 345.654 183.384 345.654C184.631 345.654 185.558 346.415 185.558 347.648C185.558 348.741 184.893 349.521 183.602 350.832L179.057 355.287V357ZM195.561 343.909H193.305L190.051 345.999V348.173L193.113 346.217H193.19V357H195.561V343.909Z" fill="black"/>
<path d="M33.5852 400.508H35.8672C35.8224 398.296 33.9368 396.73 31.1499 396.73C28.4013 396.73 26.3366 398.277 26.343 400.591C26.343 402.47 27.679 403.55 29.8331 404.107L31.3224 404.49C32.7351 404.848 33.6683 405.289 33.6747 406.305C33.6683 407.424 32.6072 408.172 31.0604 408.172C29.5774 408.172 28.4268 407.507 28.331 406.133H25.9979C26.0938 408.734 28.0305 410.198 31.0795 410.198C34.218 410.198 36.0398 408.632 36.0462 406.325C36.0398 404.055 34.1669 403.02 32.1982 402.553L30.9709 402.246C29.897 401.991 28.7337 401.537 28.7464 400.444C28.7528 399.46 29.6349 398.737 31.1179 398.737C32.5305 398.737 33.4638 399.396 33.5852 400.508ZM44.3159 405.871C44.3159 407.366 43.2484 408.108 42.2257 408.108C41.1135 408.108 40.372 407.322 40.372 406.075V400.182H38.0581V406.433C38.0581 408.792 39.4004 410.128 41.3308 410.128C42.801 410.128 43.8365 409.354 44.2839 408.255H44.3862V410H46.6298V400.182H44.3159V405.871Z" fill="black"/>
<path d="M80.1594 396.909V410H82.4349V400.987H82.5564L86.1743 409.962H87.8746L91.4925 401.006H91.6139V410H93.8895V396.909H90.9875L87.1011 406.395H86.9477L83.0613 396.909H80.1594ZM100.652 410.192C103.529 410.192 105.357 408.165 105.357 405.129C105.357 402.087 103.529 400.054 100.652 400.054C97.7758 400.054 95.9477 402.087 95.9477 405.129C95.9477 408.165 97.7758 410.192 100.652 410.192ZM100.665 408.338C99.0734 408.338 98.2936 406.919 98.2936 405.123C98.2936 403.327 99.0734 401.888 100.665 401.888C102.231 401.888 103.011 403.327 103.011 405.123C103.011 406.919 102.231 408.338 100.665 408.338Z" fill="black"/>
<path d="M138.467 398.897H142.513V410H144.865V398.897H148.911V396.909H138.467V398.897ZM155.745 405.871C155.745 407.366 154.677 408.108 153.654 408.108C152.542 408.108 151.801 407.322 151.801 406.075V400.182H149.487V406.433C149.487 408.792 150.829 410.128 152.759 410.128C154.23 410.128 155.265 409.354 155.713 408.255H155.815V410H158.059V400.182H155.745V405.871Z" fill="black"/>
<path d="M194.651 410H196.99L199.617 400.815H199.72L202.34 410H204.68L208.374 396.909H205.824L203.465 406.536H203.35L200.825 396.909H198.505L195.987 406.529H195.865L193.506 396.909H190.956L194.651 410ZM213.261 410.192C215.549 410.192 217.122 409.073 217.531 407.366L215.37 407.124C215.057 407.955 214.29 408.389 213.293 408.389C211.797 408.389 210.807 407.405 210.787 405.724H217.627V405.014C217.627 401.569 215.556 400.054 213.14 400.054C210.327 400.054 208.493 402.119 208.493 405.148C208.493 408.229 210.302 410.192 213.261 410.192ZM210.794 404.164C210.864 402.911 211.791 401.857 213.172 401.857C214.501 401.857 215.396 402.828 215.409 404.164H210.794Z" fill="black"/>
<path d="M249.755 398.897H253.801V410H256.153V398.897H260.2V396.909H249.755V398.897ZM264.425 404.247C264.425 402.828 265.307 402.01 266.547 402.01C267.761 402.01 268.477 402.783 268.477 404.107V410H270.791V403.749C270.791 401.377 269.449 400.054 267.41 400.054C265.901 400.054 264.942 400.738 264.489 401.85H264.374V396.909H262.111V410H264.425V404.247Z" fill="black"/>
<path d="M309.02 410H311.391V404.439H316.831V402.451H311.391V398.897H317.406V396.909H309.02V410ZM319.324 410H321.638V404.228C321.638 402.982 322.577 402.099 323.849 402.099C324.239 402.099 324.725 402.17 324.923 402.234V400.105C324.712 400.067 324.348 400.041 324.092 400.041C322.967 400.041 322.028 400.68 321.67 401.818H321.567V400.182H319.324V410Z" fill="black"/>
<path d="M369.893 400.508H372.175C372.13 398.296 370.244 396.73 367.457 396.73C364.709 396.73 362.644 398.277 362.651 400.591C362.651 402.47 363.987 403.55 366.141 404.107L367.63 404.49C369.043 404.848 369.976 405.289 369.982 406.305C369.976 407.424 368.915 408.172 367.368 408.172C365.885 408.172 364.734 407.507 364.639 406.133H362.305C362.401 408.734 364.338 410.198 367.387 410.198C370.526 410.198 372.347 408.632 372.354 406.325C372.347 404.055 370.475 403.02 368.506 402.553L367.278 402.246C366.205 401.991 365.041 401.537 365.054 400.444C365.06 399.46 365.943 398.737 367.426 398.737C368.838 398.737 369.771 399.396 369.893 400.508ZM377.191 410.198C378.731 410.198 379.652 409.476 380.074 408.651H380.15V410H382.375V403.429C382.375 400.834 380.259 400.054 378.386 400.054C376.322 400.054 374.736 400.974 374.225 402.764L376.386 403.071C376.616 402.4 377.268 401.825 378.399 401.825C379.473 401.825 380.061 402.374 380.061 403.339V403.378C380.061 404.043 379.364 404.075 377.632 404.26C375.727 404.464 373.905 405.033 373.905 407.245C373.905 409.175 375.318 410.198 377.191 410.198ZM377.792 408.498C376.827 408.498 376.136 408.057 376.136 407.207C376.136 406.318 376.91 405.947 377.945 405.8C378.552 405.717 379.767 405.564 380.067 405.321V406.478C380.067 407.571 379.185 408.498 377.792 408.498Z" fill="black"/>
<path d="M33.2621 461.179C35.9339 461.179 37.8963 459.581 37.8899 457.408C37.8963 455.752 36.8928 454.563 35.1541 454.295V454.192C36.522 453.841 37.4105 452.767 37.4041 451.297C37.4105 449.373 35.8317 447.73 33.3132 447.73C30.9098 447.73 28.9794 449.181 28.9155 451.31H30.8267C30.8714 450.108 32.0028 449.379 33.2876 449.379C34.6236 449.379 35.4993 450.191 35.4929 451.399C35.4993 452.665 34.483 453.496 33.032 453.496H31.9261V455.107H33.032C34.8473 455.107 35.8956 456.027 35.8956 457.344C35.8956 458.616 34.7898 459.479 33.2493 459.479C31.8303 459.479 30.7244 458.75 30.6477 457.587H28.6406C28.7237 459.722 30.6158 461.179 33.2621 461.179ZM45.2727 447.909H43.3487L40.0824 450.044V451.936L43.2145 449.891H43.2912V461H45.2727V447.909Z" fill="#BFBFBF"/>
<path d="M95.4719 447.909H93.5479L90.2816 450.044V451.936L93.4137 449.891H93.4904V461H95.4719V447.909Z" fill="#444444"/>
<path d="M145.24 461H153.856V459.306H147.963V459.21L150.564 456.487C152.961 454.065 153.645 452.908 153.645 451.444C153.645 449.341 151.932 447.73 149.465 447.73C147.017 447.73 145.227 449.315 145.227 451.706H147.113C147.106 450.3 148.014 449.379 149.426 449.379C150.756 449.379 151.766 450.197 151.766 451.501C151.766 452.658 151.076 453.489 149.669 454.979L145.24 459.568V461Z" fill="#444444"/>
<path d="M205.516 461.179C208.188 461.179 210.15 459.581 210.144 457.408C210.15 455.752 209.147 454.563 207.408 454.295V454.192C208.776 453.841 209.664 452.767 209.658 451.297C209.664 449.373 208.086 447.73 205.567 447.73C203.164 447.73 201.233 449.181 201.169 451.31H203.081C203.125 450.108 204.257 449.379 205.542 449.379C206.877 449.379 207.753 450.191 207.747 451.399C207.753 452.665 206.737 453.496 205.286 453.496H204.18V455.107H205.286C207.101 455.107 208.15 456.027 208.15 457.344C208.15 458.616 207.044 459.479 205.503 459.479C204.084 459.479 202.978 458.75 202.902 457.587H200.895C200.978 459.722 202.87 461.179 205.516 461.179Z" fill="#444444"/>
<path d="M256.596 458.443H262.802V461H264.688V458.443H266.42V456.768H264.688V447.909H262.253L256.596 456.845V458.443ZM262.815 456.768H258.667V456.666L262.713 450.261H262.815V456.768Z" fill="#444444"/>
<path d="M317.499 461.179C320.133 461.179 322.012 459.319 322.006 456.768C322.012 454.237 320.248 452.396 317.864 452.396C316.892 452.396 315.991 452.767 315.479 453.266H315.403L315.818 449.603H321.373V447.909H314.175L313.44 454.506L315.249 454.774C315.741 454.333 316.623 454.033 317.416 454.033C318.969 454.045 320.094 455.209 320.094 456.807C320.094 458.379 319.001 459.517 317.499 459.517C316.234 459.517 315.23 458.712 315.128 457.587H313.21C313.287 459.67 315.096 461.179 317.499 461.179Z" fill="#444444"/>
<path d="M373.608 461.179C376.344 461.205 378.159 459.236 378.153 456.724C378.159 454.218 376.337 452.422 374.068 452.422C372.687 452.422 371.492 453.087 370.821 454.192H370.725C370.731 451.22 371.856 449.456 373.774 449.456C375.033 449.456 375.826 450.223 376.094 451.31H378.044C377.744 449.239 376.114 447.73 373.774 447.73C370.731 447.73 368.833 450.344 368.833 454.896C368.827 459.715 371.281 461.16 373.608 461.179ZM373.601 459.517C372.08 459.517 370.968 458.239 370.968 456.768C370.974 455.305 372.138 454.026 373.646 454.026C375.142 454.026 376.241 455.234 376.235 456.749C376.241 458.296 375.097 459.517 373.601 459.517Z" fill="#444444"/>
<path d="M33.9884 504H36.053L41.7483 492.661V490.909H33.0935V492.603H39.7029V492.699L33.9884 504Z" fill="#444444"/>
<path d="M93.496 504.179C96.219 504.179 98.143 502.632 98.1558 500.51C98.143 498.861 96.9861 497.474 95.5223 497.212V497.135C96.7943 496.828 97.6572 495.633 97.67 494.22C97.6572 492.219 95.893 490.73 93.496 490.73C91.0734 490.73 89.3092 492.219 89.322 494.22C89.3092 495.626 90.1721 496.828 91.4697 497.135V497.212C89.9804 497.474 88.8234 498.861 88.8362 500.51C88.8234 502.632 90.7474 504.179 93.496 504.179ZM93.496 502.562C91.8596 502.562 90.8241 501.692 90.8369 500.382C90.8241 499.021 91.9491 498.049 93.496 498.049C95.0173 498.049 96.1423 499.021 96.1551 500.382C96.1423 501.692 95.1132 502.562 93.496 502.562ZM93.496 496.47C92.1729 496.47 91.2332 495.633 91.246 494.386C91.2332 493.159 92.1409 492.347 93.496 492.347C94.8256 492.347 95.7332 493.159 95.746 494.386C95.7332 495.633 94.8 496.47 93.496 496.47Z" fill="#444444"/>
<path d="M149.391 490.73C146.642 490.705 144.846 492.68 144.846 495.16C144.852 497.659 146.661 499.462 148.93 499.462C150.317 499.462 151.506 498.784 152.177 497.685H152.28C152.273 500.695 151.142 502.453 149.224 502.453C147.972 502.453 147.166 501.686 146.91 500.567H144.961C145.248 502.683 146.885 504.179 149.224 504.179C152.267 504.179 154.172 501.565 154.172 496.982C154.165 492.2 151.724 490.749 149.391 490.73ZM149.397 492.392C150.912 492.392 152.03 493.677 152.03 495.115C152.037 496.572 150.854 497.851 149.359 497.851C147.856 497.851 146.77 496.649 146.763 495.134C146.763 493.613 147.895 492.392 149.397 492.392Z" fill="#444444"/>
<path d="M201.662 490.909H199.738L196.472 493.044V494.936L199.604 492.891H199.681V504H201.662V490.909ZM209.761 504.217C212.785 504.217 214.555 501.75 214.555 497.461C214.555 493.204 212.759 490.73 209.761 490.73C206.757 490.73 204.967 493.197 204.961 497.461C204.961 501.744 206.731 504.211 209.761 504.217ZM209.761 502.511C207.991 502.511 206.923 500.734 206.923 497.461C206.929 494.201 207.997 492.405 209.761 492.405C211.519 492.405 212.593 494.201 212.593 497.461C212.593 500.734 211.525 502.511 209.761 502.511Z" fill="#444444"/>
<path d="M259.218 490.909H257.294L254.028 493.044V494.936L257.16 492.891H257.237V504H259.218V490.909ZM267.726 490.909H265.802L262.536 493.044V494.936L265.668 492.891H265.744V504H267.726V490.909Z" fill="#444444"/>
<path d="M313.952 490.909H312.028L308.762 493.044V494.936L311.894 492.891H311.971V504H313.952V490.909ZM317.494 504H326.11V502.306H320.217V502.21L322.818 499.487C325.215 497.065 325.899 495.908 325.899 494.444C325.899 492.341 324.186 490.73 321.719 490.73C319.271 490.73 317.481 492.315 317.481 494.706H319.366C319.36 493.3 320.268 492.379 321.68 492.379C323.01 492.379 324.02 493.197 324.02 494.501C324.02 495.658 323.33 496.489 321.923 497.979L317.494 502.568V504Z" fill="#444444"/>
<path d="M369.671 490.909H367.747L364.481 493.044V494.936L367.613 492.891H367.69V504H369.671V490.909ZM377.77 504.179C380.442 504.179 382.404 502.581 382.398 500.408C382.404 498.752 381.401 497.563 379.662 497.295V497.192C381.03 496.841 381.918 495.767 381.912 494.297C381.918 492.373 380.339 490.73 377.821 490.73C375.418 490.73 373.487 492.181 373.423 494.31H375.335C375.379 493.108 376.511 492.379 377.795 492.379C379.131 492.379 380.007 493.191 380.001 494.399C380.007 495.665 378.991 496.496 377.54 496.496H376.434V498.107H377.54C379.355 498.107 380.403 499.027 380.403 500.344C380.403 501.616 379.298 502.479 377.757 502.479C376.338 502.479 375.232 501.75 375.156 500.587H373.148C373.232 502.722 375.124 504.179 377.77 504.179Z" fill="#444444"/>
<path d="M34.0833 533.909H32.1593L28.8929 536.044V537.936L32.025 535.891H32.1017V547H34.0833V533.909ZM37.3496 544.443H43.5563V547H45.4419V544.443H47.1742V542.768H45.4419V533.909H43.0066L37.3496 542.845V544.443ZM43.5691 542.768H39.4206V542.666L43.4668 536.261H43.5691V542.768Z" fill="#444444"/>
<rect width="56" height="43" transform="translate(66 519)" fill="#444444"/>
<path d="M90.3909 533.909H88.4669L85.2006 536.044V537.936L88.3327 535.891H88.4094V547H90.3909V533.909ZM98.2531 547.179C100.887 547.179 102.766 545.319 102.759 542.768C102.766 540.237 101.002 538.396 98.6175 538.396C97.6459 538.396 96.7446 538.767 96.2332 539.266H96.1565L96.572 535.603H102.127V533.909H94.9292L94.1942 540.506L96.0031 540.774C96.4953 540.333 97.3774 540.033 98.17 540.033C99.7233 540.045 100.848 541.209 100.848 542.807C100.848 544.379 99.7552 545.517 98.2531 545.517C96.9875 545.517 95.9839 544.712 95.8817 543.587H93.964C94.0407 545.67 95.8497 547.179 98.2531 547.179Z" fill="#E5E5E5"/>
<path d="M146.25 533.909H144.326L141.06 536.044V537.936L144.192 535.891H144.269V547H146.25V533.909ZM154.362 547.179C157.098 547.205 158.913 545.236 158.907 542.724C158.913 540.218 157.091 538.422 154.822 538.422C153.441 538.422 152.246 539.087 151.575 540.192H151.479C151.485 537.22 152.61 535.456 154.528 535.456C155.787 535.456 156.58 536.223 156.848 537.31H158.798C158.497 535.239 156.867 533.73 154.528 533.73C151.485 533.73 149.587 536.344 149.587 540.896C149.581 545.715 152.035 547.16 154.362 547.179ZM154.355 545.517C152.834 545.517 151.722 544.239 151.722 542.768C151.728 541.305 152.892 540.026 154.4 540.026C155.896 540.026 156.995 541.234 156.989 542.749C156.995 544.296 155.851 545.517 154.355 545.517Z" fill="#444444"/>
<path d="M202.76 533.909H200.836L197.57 536.044V537.936L200.702 535.891H200.778V547H202.76V533.909ZM206.742 547H208.807L214.502 535.661V533.909H205.847V535.603H212.457V535.699L206.742 547Z" fill="#444444"/>
<path d="M258.285 533.909H256.361L253.095 536.044V537.936L256.227 535.891H256.304V547H258.285V533.909ZM266.25 547.179C268.973 547.179 270.897 545.632 270.91 543.51C270.897 541.861 269.74 540.474 268.276 540.212V540.135C269.548 539.828 270.411 538.633 270.424 537.22C270.411 535.219 268.647 533.73 266.25 533.73C263.827 533.73 262.063 535.219 262.076 537.22C262.063 538.626 262.926 539.828 264.224 540.135V540.212C262.734 540.474 261.577 541.861 261.59 543.51C261.577 545.632 263.501 547.179 266.25 547.179ZM266.25 545.562C264.614 545.562 263.578 544.692 263.591 543.382C263.578 542.021 264.703 541.049 266.25 541.049C267.771 541.049 268.896 542.021 268.909 543.382C268.896 544.692 267.867 545.562 266.25 545.562ZM266.25 539.47C264.927 539.47 263.987 538.633 264 537.386C263.987 536.159 264.895 535.347 266.25 535.347C267.579 535.347 268.487 536.159 268.5 537.386C268.487 538.633 267.554 539.47 266.25 539.47Z" fill="#444444"/>
<rect width="56" height="43" transform="translate(290 519)" fill="#E25454"/>
<path d="M314.25 533.909H312.326L309.06 536.044V537.936L312.192 535.891H312.269V547H314.25V533.909ZM322.144 533.73C319.396 533.705 317.6 535.68 317.6 538.16C317.606 540.659 319.415 542.462 321.684 542.462C323.071 542.462 324.26 541.784 324.931 540.685H325.034C325.027 543.695 323.896 545.453 321.978 545.453C320.725 545.453 319.92 544.686 319.664 543.567H317.715C318.002 545.683 319.639 547.179 321.978 547.179C325.021 547.179 326.926 544.565 326.926 539.982C326.919 535.2 324.478 533.749 322.144 533.73ZM322.151 535.392C323.666 535.392 324.784 536.677 324.784 538.115C324.791 539.572 323.608 540.851 322.112 540.851C320.61 540.851 319.524 539.649 319.517 538.134C319.517 536.613 320.649 535.392 322.151 535.392Z" fill="#E5E5E5"/>
<path d="M363.43 547H372.047V545.306H366.153V545.21L368.755 542.487C371.152 540.065 371.836 538.908 371.836 537.444C371.836 535.341 370.123 533.73 367.655 533.73C365.207 533.73 363.417 535.315 363.417 537.706H365.303C365.297 536.3 366.204 535.379 367.617 535.379C368.946 535.379 369.956 536.197 369.956 537.501C369.956 538.658 369.266 539.489 367.86 540.979L363.43 545.568V547ZM379.027 547.217C382.05 547.217 383.821 544.75 383.821 540.461C383.821 536.204 382.025 533.73 379.027 533.73C376.022 533.73 374.233 536.197 374.226 540.461C374.226 544.744 375.997 547.211 379.027 547.217ZM379.027 545.511C377.256 545.511 376.189 543.734 376.189 540.461C376.195 537.201 377.263 535.405 379.027 535.405C380.785 535.405 381.858 537.201 381.858 540.461C381.858 543.734 380.791 545.511 379.027 545.511Z" fill="#444444"/>
<path d="M28.9858 590H37.6023V588.306H31.7088V588.21L34.3104 585.487C36.7074 583.065 37.3913 581.908 37.3913 580.444C37.3913 578.341 35.6783 576.73 33.2109 576.73C30.7628 576.73 28.973 578.315 28.973 580.706H30.8587C30.8523 579.3 31.7599 578.379 33.1726 578.379C34.5021 578.379 35.5121 579.197 35.5121 580.501C35.5121 581.658 34.8217 582.489 33.4155 583.979L28.9858 588.568V590ZM44.9915 576.909H43.0675L39.8011 579.044V580.936L42.9332 578.891H43.0099V590H44.9915V576.909Z" fill="#444444"/>
<path d="M83.7202 590H92.3366V588.306H86.4432V588.21L89.0447 585.487C91.4418 583.065 92.1257 581.908 92.1257 580.444C92.1257 578.341 90.4126 576.73 87.9453 576.73C85.4972 576.73 83.7074 578.315 83.7074 580.706H85.593C85.5866 579.3 86.4943 578.379 87.907 578.379C89.2365 578.379 90.2464 579.197 90.2464 580.501C90.2464 581.658 89.5561 582.489 88.1499 583.979L83.7202 588.568V590ZM94.7592 590H103.376V588.306H97.4822V588.21L100.084 585.487C102.481 583.065 103.165 581.908 103.165 580.444C103.165 578.341 101.452 576.73 98.9844 576.73C96.5362 576.73 94.7464 578.315 94.7464 580.706H96.6321C96.6257 579.3 97.5334 578.379 98.946 578.379C100.276 578.379 101.286 579.197 101.286 580.501C101.286 581.658 100.595 582.489 99.1889 583.979L94.7592 588.568V590Z" fill="#444444"/>
<path d="M139.439 590H148.055V588.306H142.162V588.21L144.763 585.487C147.161 583.065 147.844 581.908 147.844 580.444C147.844 578.341 146.131 576.73 143.664 576.73C141.216 576.73 139.426 578.315 139.426 580.706H141.312C141.305 579.3 142.213 578.379 143.626 578.379C144.955 578.379 145.965 579.197 145.965 580.501C145.965 581.658 145.275 582.489 143.869 583.979L139.439 588.568V590ZM155.036 590.179C157.707 590.179 159.67 588.581 159.663 586.408C159.67 584.752 158.666 583.563 156.928 583.295V583.192C158.295 582.841 159.184 581.767 159.178 580.297C159.184 578.373 157.605 576.73 155.087 576.73C152.683 576.73 150.753 578.181 150.689 580.31H152.6C152.645 579.108 153.776 578.379 155.061 578.379C156.397 578.379 157.273 579.191 157.266 580.399C157.273 581.665 156.256 582.496 154.805 582.496H153.7V584.107H154.805C156.621 584.107 157.669 585.027 157.669 586.344C157.669 587.616 156.563 588.479 155.023 588.479C153.604 588.479 152.498 587.75 152.421 586.587H150.414C150.497 588.722 152.389 590.179 155.036 590.179Z" fill="#444444"/>
<path d="M195.492 590H204.108V588.306H198.215V588.21L200.816 585.487C203.213 583.065 203.897 581.908 203.897 580.444C203.897 578.341 202.184 576.73 199.717 576.73C197.269 576.73 195.479 578.315 195.479 580.706H197.365C197.358 579.3 198.266 578.379 199.678 578.379C201.008 578.379 202.018 579.197 202.018 580.501C202.018 581.658 201.328 582.489 199.921 583.979L195.492 588.568V590ZM205.975 587.443H212.181V590H214.067V587.443H215.799V585.768H214.067V576.909H211.632L205.975 585.845V587.443ZM212.194 585.768H208.046V585.666L212.092 579.261H212.194V585.768Z" fill="#444444"/>
<rect width="56" height="43" transform="translate(233.5 562)" fill="#E25454"/>
<path d="M251.492 590H260.108V588.306H254.215V588.21L256.816 585.487C259.213 583.065 259.897 581.908 259.897 580.444C259.897 578.341 258.184 576.73 255.717 576.73C253.269 576.73 251.479 578.315 251.479 580.706H253.365C253.358 579.3 254.266 578.379 255.678 578.379C257.008 578.379 258.018 579.197 258.018 580.501C258.018 581.658 257.328 582.489 255.921 583.979L251.492 588.568V590ZM261.975 587.443H268.181V590H270.067V587.443H271.799V585.768H270.067V576.909H267.632L261.975 585.845V587.443ZM268.194 585.768H264.046V585.666L268.092 579.261H268.194V585.768Z" fill="#E5E5E5"/>
<path d="M307.518 590H316.134V588.306H310.241V588.21L312.843 585.487C315.24 583.065 315.924 581.908 315.924 580.444C315.924 578.341 314.21 576.73 311.743 576.73C309.295 576.73 307.505 578.315 307.505 580.706H309.391C309.384 579.3 310.292 578.379 311.705 578.379C313.034 578.379 314.044 579.197 314.044 580.501C314.044 581.658 313.354 582.489 311.948 583.979L307.518 588.568V590ZM323.127 590.179C325.863 590.205 327.679 588.236 327.672 585.724C327.679 583.218 325.857 581.422 323.588 581.422C322.207 581.422 321.012 582.087 320.34 583.192H320.245C320.251 580.22 321.376 578.456 323.294 578.456C324.553 578.456 325.345 579.223 325.614 580.31H327.563C327.263 578.239 325.633 576.73 323.294 576.73C320.251 576.73 318.353 579.344 318.353 583.896C318.346 588.715 320.801 590.16 323.127 590.179ZM323.121 588.517C321.6 588.517 320.487 587.239 320.487 585.768C320.494 584.305 321.657 583.026 323.166 583.026C324.661 583.026 325.761 584.234 325.755 585.749C325.761 587.296 324.617 588.517 323.121 588.517Z" fill="#444444"/>
<path d="M364.028 590H372.644V588.306H366.751V588.21L369.352 585.487C371.749 583.065 372.433 581.908 372.433 580.444C372.433 578.341 370.72 576.73 368.253 576.73C365.805 576.73 364.015 578.315 364.015 580.706H365.901C365.894 579.3 366.802 578.379 368.215 578.379C369.544 578.379 370.554 579.197 370.554 580.501C370.554 581.658 369.864 582.489 368.457 583.979L364.028 588.568V590ZM375.508 590H377.573L383.268 578.661V576.909H374.613V578.603H381.222V578.699L375.508 590Z" fill="#444444"/>
<path d="M27.5532 633H36.1697V631.306H30.2762V631.21L32.8778 628.487C35.2748 626.065 35.9587 624.908 35.9587 623.444C35.9587 621.341 34.2457 619.73 31.7783 619.73C29.3302 619.73 27.5404 621.315 27.5404 623.706H29.426C29.4197 622.3 30.3273 621.379 31.74 621.379C33.0695 621.379 34.0795 622.197 34.0795 623.501C34.0795 624.658 33.3891 625.489 31.9829 626.979L27.5532 631.568V633ZM43.0155 633.179C45.7385 633.179 47.6626 631.632 47.6753 629.51C47.6626 627.861 46.5056 626.474 45.0418 626.212V626.135C46.3138 625.828 47.1768 624.633 47.1895 623.22C47.1768 621.219 45.4126 619.73 43.0155 619.73C40.593 619.73 38.8287 621.219 38.8415 623.22C38.8287 624.626 39.6917 625.828 40.9893 626.135V626.212C39.4999 626.474 38.343 627.861 38.3557 629.51C38.343 631.632 40.267 633.179 43.0155 633.179ZM43.0155 631.562C41.3792 631.562 40.3437 630.692 40.3564 629.382C40.3437 628.021 41.4687 627.049 43.0155 627.049C44.5368 627.049 45.6618 628.021 45.6746 629.382C45.6618 630.692 44.6327 631.562 43.0155 631.562ZM43.0155 625.47C41.6924 625.47 40.7528 624.633 40.7655 623.386C40.7528 622.159 41.6604 621.347 43.0155 621.347C44.3451 621.347 45.2528 622.159 45.2655 623.386C45.2528 624.633 44.3195 625.47 43.0155 625.47Z" fill="#444444"/>
<path d="M83.518 633H92.1345V631.306H86.241V631.21L88.8426 628.487C91.2396 626.065 91.9236 624.908 91.9236 623.444C91.9236 621.341 90.2105 619.73 87.7432 619.73C85.295 619.73 83.5052 621.315 83.5052 623.706H85.3909C85.3845 622.3 86.2922 621.379 87.7048 621.379C89.0344 621.379 90.0443 622.197 90.0443 623.501C90.0443 624.658 89.354 625.489 87.9477 626.979L83.518 631.568V633ZM98.9101 619.73C96.1615 619.705 94.3653 621.68 94.3653 624.16C94.3717 626.659 96.1807 628.462 98.4498 628.462C99.8369 628.462 101.026 627.784 101.697 626.685H101.799C101.793 629.695 100.661 631.453 98.7439 631.453C97.491 631.453 96.6856 630.686 96.43 629.567H94.4804C94.768 631.683 96.4044 633.179 98.7439 633.179C101.786 633.179 103.691 630.565 103.691 625.982C103.685 621.2 101.243 619.749 98.9101 619.73ZM98.9165 621.392C100.431 621.392 101.55 622.677 101.55 624.115C101.556 625.572 100.374 626.851 98.8781 626.851C97.376 626.851 96.2893 625.649 96.2829 624.134C96.2829 622.613 97.4143 621.392 98.9165 621.392Z" fill="#444444"/>
<path d="M143.706 633.179C146.378 633.179 148.341 631.581 148.334 629.408C148.341 627.752 147.337 626.563 145.598 626.295V626.192C146.966 625.841 147.855 624.767 147.848 623.297C147.855 621.373 146.276 619.73 143.758 619.73C141.354 619.73 139.424 621.181 139.36 623.31H141.271C141.316 622.108 142.447 621.379 143.732 621.379C145.068 621.379 145.944 622.191 145.937 623.399C145.944 624.665 144.927 625.496 143.476 625.496H142.37V627.107H143.476C145.292 627.107 146.34 628.027 146.34 629.344C146.34 630.616 145.234 631.479 143.694 631.479C142.275 631.479 141.169 630.75 141.092 629.587H139.085C139.168 631.722 141.06 633.179 143.706 633.179ZM155.308 633.217C158.331 633.217 160.102 630.75 160.102 626.461C160.102 622.204 158.306 619.73 155.308 619.73C152.304 619.73 150.514 622.197 150.508 626.461C150.508 630.744 152.278 633.211 155.308 633.217ZM155.308 631.511C153.537 631.511 152.47 629.734 152.47 626.461C152.476 623.201 153.544 621.405 155.308 621.405C157.066 621.405 158.14 623.201 158.14 626.461C158.14 629.734 157.072 631.511 155.308 631.511Z" fill="#444444"/>
<path d="M207.472 619.909H205.548L202.282 622.044V623.936L205.414 621.891H205.49V633H207.472V619.909Z" fill="#BFBFBF"/>
<path d="M257.24 633H265.856V631.306H259.963V631.21L262.564 628.487C264.961 626.065 265.645 624.908 265.645 623.444C265.645 621.341 263.932 619.73 261.465 619.73C259.017 619.73 257.227 621.315 257.227 623.706H259.113C259.106 622.3 260.014 621.379 261.426 621.379C262.756 621.379 263.766 622.197 263.766 623.501C263.766 624.658 263.076 625.489 261.669 626.979L257.24 631.568V633Z" fill="#BFBFBF"/>
<path d="M317.516 633.179C320.188 633.179 322.15 631.581 322.144 629.408C322.15 627.752 321.147 626.563 319.408 626.295V626.192C320.776 625.841 321.664 624.767 321.658 623.297C321.664 621.373 320.086 619.73 317.567 619.73C315.164 619.73 313.233 621.181 313.169 623.31H315.081C315.125 622.108 316.257 621.379 317.542 621.379C318.877 621.379 319.753 622.191 319.747 623.399C319.753 624.665 318.737 625.496 317.286 625.496H316.18V627.107H317.286C319.101 627.107 320.15 628.027 320.15 629.344C320.15 630.616 319.044 631.479 317.503 631.479C316.084 631.479 314.978 630.75 314.902 629.587H312.895C312.978 631.722 314.87 633.179 317.516 633.179Z" fill="#BFBFBF"/>
<path d="M368.596 630.443H374.802V633H376.688V630.443H378.42V628.768H376.688V619.909H374.253L368.596 628.845V630.443ZM374.815 628.768H370.667V628.666L374.713 622.261H374.815V628.768Z" fill="#BFBFBF"/>
<rect x="0.5" y="0.5" width="427" height="925" stroke="black"/>
</g>
<defs>
<filter id="filter0_d_66_116" x="-4" y="0" width="436" height="934" filterUnits="userSpaceOnUse" color-interpolation-filters="sRGB">
<feFlood flood-opacity="0" result="BackgroundImageFix"/>
<feColorMatrix in="SourceAlpha" type="matrix" values="0 0 0 0 0 0 0 0 0 0 0 0 0 0 0 0 0 0 127 0" result="hardAlpha"/>
<feOffset dy="4"/>
<feGaussianBlur stdDeviation="2"/>
<feComposite in2="hardAlpha" operator="out"/>
<feColorMatrix type="matrix" values="0 0 0 0 0 0 0 0 0 0 0 0 0 0 0 0 0 0 0.25 0"/>
<feBlend mode="normal" in2="BackgroundImageFix" result="effect1_dropShadow_66_116"/>
<feBlend mode="normal" in="SourceGraphic" in2="effect1_dropShadow_66_116" result="shape"/>
</filter>
</defs>
</svg>
