<svg width="428" height="926" viewBox="0 0 428 926" fill="none" xmlns="http://www.w3.org/2000/svg">
<g filter="url(#filter0_d_71_249)">
<g clip-path="url(#clip0_71_249)">
<rect width="428" height="926" fill="#2F3136"/>
<rect width="405" height="926" fill="#35393F"/>
<path d="M41.8929 38.4688H91.1071C92.1526 38.4688 93 37.6293 93 36.5938V31.9062C93 30.8707 92.1526 30.0312 91.1071 30.0312H41.8929C40.8474 30.0312 40 30.8707 40 31.9062V36.5938C40 37.6293 40.8474 38.4688 41.8929 38.4688ZM41.8929 57.2188H91.1071C92.1526 57.2188 93 56.3793 93 55.3438V50.6562C93 49.6207 92.1526 48.7812 91.1071 48.7812H41.8929C40.8474 48.7812 40 49.6207 40 50.6562V55.3438C40 56.3793 40.8474 57.2188 41.8929 57.2188ZM41.8929 75.9688H91.1071C92.1526 75.9688 93 75.1293 93 74.0938V69.4062C93 68.3707 92.1526 67.5312 91.1071 67.5312H41.8929C40.8474 67.5312 40 68.3707 40 69.4062V74.0938C40 75.1293 40.8474 75.9688 41.8929 75.9688Z" fill="#FBF4E4"/>
<path d="M45.796 140C44.984 140 44.34 139.776 43.864 139.328C43.416 138.88 43.192 138.25 43.192 137.438V112.952C43.192 112.14 43.416 111.51 43.864 111.062C44.34 110.614 44.984 110.39 45.796 110.39H60.958C61.77 110.39 62.4 110.572 62.848 110.936C63.296 111.3 63.52 111.818 63.52 112.49C63.52 113.19 63.296 113.736 62.848 114.128C62.4 114.492 61.77 114.674 60.958 114.674H48.484V122.822H60.118C60.93 122.822 61.56 123.004 62.008 123.368C62.456 123.732 62.68 124.264 62.68 124.964C62.68 125.636 62.456 126.154 62.008 126.518C61.56 126.882 60.93 127.064 60.118 127.064H48.484V135.716H60.958C61.77 135.716 62.4 135.912 62.848 136.304C63.296 136.668 63.52 137.2 63.52 137.9C63.52 138.572 63.296 139.09 62.848 139.454C62.4 139.818 61.77 140 60.958 140H45.796ZM87.3704 136.136C87.8744 136.64 88.1264 137.214 88.1264 137.858C88.1264 138.474 87.8884 139.034 87.4124 139.538C86.9364 140.014 86.3764 140.252 85.7324 140.252C85.0324 140.252 84.4304 139.958 83.9264 139.37L78.0044 132.818L72.0824 139.37C71.5504 139.93 70.9484 140.21 70.2764 140.21C69.6604 140.21 69.1144 139.972 68.6384 139.496C68.1624 139.02 67.9244 138.474 67.9244 137.858C67.9244 137.214 68.1764 136.64 68.6804 136.136L74.8124 129.458L69.0164 123.158C68.5124 122.654 68.2604 122.08 68.2604 121.436C68.2604 120.792 68.4984 120.246 68.9744 119.798C69.4504 119.322 69.9964 119.084 70.6124 119.084C71.2844 119.084 71.8864 119.364 72.4184 119.924L78.0044 126.056L83.5904 119.924C84.1224 119.364 84.7244 119.084 85.3964 119.084C86.0404 119.084 86.5864 119.322 87.0344 119.798C87.5104 120.246 87.7484 120.792 87.7484 121.436C87.7484 122.08 87.4964 122.654 86.9924 123.158L81.1964 129.458L87.3704 136.136ZM102.715 118.958C105.571 118.958 107.685 119.672 109.057 121.1C110.457 122.5 111.157 124.642 111.157 127.526V137.774C111.157 138.53 110.933 139.132 110.485 139.58C110.037 140 109.421 140.21 108.637 140.21C107.909 140.21 107.307 139.986 106.831 139.538C106.383 139.09 106.159 138.502 106.159 137.774V136.85C105.683 137.942 104.927 138.796 103.891 139.412C102.883 140.028 101.707 140.336 100.363 140.336C98.9909 140.336 97.7449 140.056 96.6249 139.496C95.5049 138.936 94.6229 138.166 93.9789 137.186C93.3349 136.206 93.0129 135.114 93.0129 133.91C93.0129 132.398 93.3909 131.208 94.1469 130.34C94.9309 129.472 96.1909 128.842 97.9269 128.45C99.6629 128.058 102.057 127.862 105.109 127.862H106.159V126.896C106.159 125.524 105.865 124.53 105.277 123.914C104.689 123.27 103.737 122.948 102.421 122.948C101.609 122.948 100.783 123.074 99.9429 123.326C99.1029 123.55 98.1089 123.886 96.9609 124.334C96.2329 124.698 95.7009 124.88 95.3649 124.88C94.8609 124.88 94.4409 124.698 94.1049 124.334C93.7969 123.97 93.6429 123.494 93.6429 122.906C93.6429 122.43 93.7549 122.024 93.9789 121.688C94.2309 121.324 94.6369 120.988 95.1969 120.68C96.1769 120.148 97.3389 119.728 98.6829 119.42C100.055 119.112 101.399 118.958 102.715 118.958ZM101.413 136.556C102.813 136.556 103.947 136.094 104.815 135.17C105.711 134.218 106.159 133 106.159 131.516V130.634H105.403C103.527 130.634 102.071 130.718 101.035 130.886C99.9989 131.054 99.2569 131.348 98.8089 131.768C98.3609 132.188 98.1369 132.762 98.1369 133.49C98.1369 134.386 98.4449 135.128 99.0609 135.716C99.7049 136.276 100.489 136.556 101.413 136.556ZM142.995 118.958C145.235 118.958 146.943 119.63 148.119 120.974C149.323 122.29 149.925 124.432 149.925 127.4V137.732C149.925 138.544 149.673 139.174 149.169 139.622C148.693 140.042 148.063 140.252 147.279 140.252C146.523 140.252 145.893 140.042 145.389 139.622C144.913 139.174 144.675 138.544 144.675 137.732V127.4C144.675 125.86 144.395 124.768 143.835 124.124C143.303 123.452 142.477 123.116 141.357 123.116C139.985 123.116 138.893 123.592 138.081 124.544C137.269 125.468 136.863 126.742 136.863 128.366V137.732C136.863 138.544 136.611 139.174 136.107 139.622C135.631 140.042 135.015 140.252 134.259 140.252C133.503 140.252 132.873 140.042 132.369 139.622C131.865 139.174 131.613 138.544 131.613 137.732V127.4C131.613 125.86 131.333 124.768 130.773 124.124C130.241 123.452 129.415 123.116 128.295 123.116C126.923 123.116 125.831 123.592 125.019 124.544C124.235 125.468 123.843 126.742 123.843 128.366V137.732C123.843 138.544 123.591 139.174 123.087 139.622C122.583 140.042 121.953 140.252 121.197 140.252C120.441 140.252 119.811 140.042 119.307 139.622C118.831 139.174 118.593 138.544 118.593 137.732V121.478C118.593 120.694 118.845 120.092 119.349 119.672C119.853 119.252 120.483 119.042 121.239 119.042C121.967 119.042 122.555 119.252 123.003 119.672C123.479 120.064 123.717 120.638 123.717 121.394V122.402C124.361 121.282 125.215 120.428 126.279 119.84C127.371 119.252 128.617 118.958 130.017 118.958C133.097 118.958 135.155 120.246 136.191 122.822C136.807 121.646 137.717 120.708 138.921 120.008C140.125 119.308 141.483 118.958 142.995 118.958ZM164.794 140.336C161.742 140.336 159.278 139.734 157.402 138.53C156.506 137.998 156.058 137.242 156.058 136.262C156.058 135.702 156.212 135.254 156.52 134.918C156.828 134.554 157.206 134.372 157.654 134.372C158.13 134.372 158.788 134.596 159.628 135.044C160.524 135.464 161.336 135.786 162.064 136.01C162.82 136.234 163.772 136.346 164.92 136.346C166.096 136.346 167.006 136.15 167.65 135.758C168.322 135.366 168.658 134.82 168.658 134.12C168.658 133.644 168.518 133.266 168.238 132.986C167.986 132.706 167.51 132.454 166.81 132.23C166.138 131.978 165.102 131.698 163.702 131.39C161.21 130.886 159.418 130.172 158.326 129.248C157.262 128.324 156.73 127.05 156.73 125.426C156.73 124.194 157.094 123.088 157.822 122.108C158.55 121.1 159.544 120.33 160.804 119.798C162.092 119.238 163.548 118.958 165.172 118.958C166.348 118.958 167.482 119.112 168.574 119.42C169.666 119.7 170.646 120.12 171.514 120.68C172.41 121.24 172.858 121.982 172.858 122.906C172.858 123.466 172.704 123.942 172.396 124.334C172.088 124.698 171.71 124.88 171.262 124.88C170.954 124.88 170.646 124.824 170.338 124.712C170.058 124.572 169.694 124.376 169.246 124.124C168.434 123.704 167.734 123.396 167.146 123.2C166.558 122.976 165.83 122.864 164.962 122.864C163.926 122.864 163.1 123.074 162.484 123.494C161.896 123.914 161.602 124.488 161.602 125.216C161.602 125.916 161.91 126.448 162.526 126.812C163.142 127.176 164.332 127.54 166.096 127.904C167.972 128.296 169.442 128.744 170.506 129.248C171.57 129.752 172.326 130.382 172.774 131.138C173.25 131.894 173.488 132.86 173.488 134.036C173.488 135.94 172.69 137.466 171.094 138.614C169.526 139.762 167.426 140.336 164.794 140.336Z" fill="#DADADA"/>
<path d="M66.88 824.598C67.216 825.102 67.384 825.592 67.384 826.068C67.384 826.712 67.118 827.244 66.586 827.664C66.082 828.084 65.48 828.294 64.78 828.294C64.332 828.294 63.898 828.196 63.478 828C63.086 827.776 62.75 827.454 62.47 827.034L56.884 818.55C56.324 817.654 55.722 817.024 55.078 816.66C54.462 816.296 53.65 816.114 52.642 816.114H48.526V825.522C48.526 826.362 48.288 827.034 47.812 827.538C47.336 828.014 46.692 828.252 45.88 828.252C45.068 828.252 44.41 828.014 43.906 827.538C43.43 827.034 43.192 826.362 43.192 825.522V800.952C43.192 800.14 43.416 799.51 43.864 799.062C44.34 798.614 44.984 798.39 45.796 798.39H56.296C59.656 798.39 62.204 799.146 63.94 800.658C65.704 802.142 66.586 804.298 66.586 807.126C66.586 809.422 65.928 811.312 64.612 812.796C63.324 814.252 61.49 815.19 59.11 815.61C59.922 815.806 60.636 816.156 61.252 816.66C61.868 817.164 62.47 817.864 63.058 818.76L66.88 824.598ZM55.54 811.956C57.584 811.956 59.082 811.578 60.034 810.822C60.986 810.038 61.462 808.848 61.462 807.252C61.462 805.628 60.986 804.452 60.034 803.724C59.082 802.968 57.584 802.59 55.54 802.59H48.484V811.956H55.54ZM90.2871 822.372C90.7631 822.372 91.1411 822.554 91.4211 822.918C91.7291 823.282 91.8831 823.772 91.8831 824.388C91.8831 825.256 91.3651 825.984 90.3291 826.572C89.3771 827.104 88.2991 827.538 87.0951 827.874C85.8911 828.182 84.7431 828.336 83.6511 828.336C80.3471 828.336 77.7291 827.384 75.7971 825.48C73.8651 823.576 72.8991 820.972 72.8991 817.668C72.8991 815.568 73.3191 813.706 74.1591 812.082C74.9991 810.458 76.1751 809.198 77.6871 808.302C79.2271 807.406 80.9631 806.958 82.8951 806.958C84.7431 806.958 86.3531 807.364 87.7251 808.176C89.0971 808.988 90.1611 810.136 90.9171 811.62C91.6731 813.104 92.0511 814.854 92.0511 816.87C92.0511 818.074 91.5191 818.676 90.4551 818.676H78.0651C78.2331 820.608 78.7791 822.036 79.7031 822.96C80.6271 823.856 81.9711 824.304 83.7351 824.304C84.6311 824.304 85.4151 824.192 86.0871 823.968C86.7871 823.744 87.5711 823.436 88.4391 823.044C89.2791 822.596 89.8951 822.372 90.2871 822.372ZM83.0211 810.654C81.5931 810.654 80.4451 811.102 79.5771 811.998C78.7371 812.894 78.2331 814.182 78.0651 815.862H87.5571C87.5011 814.154 87.0811 812.866 86.2971 811.998C85.5131 811.102 84.4211 810.654 83.0211 810.654ZM108.827 824.346C110.227 824.43 110.927 825.06 110.927 826.236C110.927 826.908 110.647 827.426 110.087 827.79C109.555 828.126 108.785 828.266 107.777 828.21L106.643 828.126C101.939 827.79 99.5865 825.27 99.5865 820.566V811.41H97.4865C96.7305 811.41 96.1425 811.242 95.7225 810.906C95.3305 810.57 95.1345 810.08 95.1345 809.436C95.1345 808.792 95.3305 808.302 95.7225 807.966C96.1425 807.63 96.7305 807.462 97.4865 807.462H99.5865V803.598C99.5865 802.842 99.8245 802.24 100.301 801.792C100.777 801.344 101.421 801.12 102.233 801.12C103.017 801.12 103.647 801.344 104.123 801.792C104.599 802.24 104.837 802.842 104.837 803.598V807.462H108.407C109.163 807.462 109.737 807.63 110.129 807.966C110.549 808.302 110.759 808.792 110.759 809.436C110.759 810.08 110.549 810.57 110.129 810.906C109.737 811.242 109.163 811.41 108.407 811.41H104.837V820.944C104.837 823.016 105.789 824.122 107.693 824.262L108.827 824.346ZM131.974 807.042C132.786 807.042 133.43 807.266 133.906 807.714C134.382 808.162 134.62 808.764 134.62 809.52V825.816C134.62 826.544 134.368 827.132 133.864 827.58C133.388 828.028 132.758 828.252 131.974 828.252C131.218 828.252 130.616 828.042 130.168 827.622C129.72 827.202 129.496 826.628 129.496 825.9V824.85C128.852 825.97 127.984 826.838 126.892 827.454C125.8 828.042 124.568 828.336 123.196 828.336C118.156 828.336 115.636 825.508 115.636 819.852V809.52C115.636 808.764 115.874 808.162 116.35 807.714C116.826 807.266 117.456 807.042 118.24 807.042C119.052 807.042 119.696 807.266 120.172 807.714C120.648 808.162 120.886 808.764 120.886 809.52V819.894C120.886 821.35 121.18 822.428 121.768 823.128C122.356 823.828 123.28 824.178 124.54 824.178C125.996 824.178 127.158 823.702 128.026 822.75C128.922 821.77 129.37 820.482 129.37 818.886V809.52C129.37 808.764 129.608 808.162 130.084 807.714C130.56 807.266 131.19 807.042 131.974 807.042ZM153.651 807.042C154.379 806.986 154.953 807.14 155.373 807.504C155.793 807.868 156.003 808.414 156.003 809.142C156.003 809.898 155.821 810.458 155.457 810.822C155.093 811.186 154.435 811.424 153.483 811.536L152.223 811.662C150.571 811.83 149.353 812.39 148.569 813.342C147.813 814.294 147.435 815.484 147.435 816.912V825.732C147.435 826.544 147.183 827.174 146.679 827.622C146.175 828.042 145.545 828.252 144.789 828.252C144.033 828.252 143.403 828.042 142.899 827.622C142.423 827.174 142.185 826.544 142.185 825.732V809.478C142.185 808.694 142.423 808.092 142.899 807.672C143.403 807.252 144.019 807.042 144.747 807.042C145.475 807.042 146.063 807.252 146.511 807.672C146.959 808.064 147.183 808.638 147.183 809.394V811.074C147.715 809.842 148.499 808.89 149.535 808.218C150.599 807.546 151.775 807.168 153.063 807.084L153.651 807.042ZM172.291 806.958C174.755 806.958 176.589 807.658 177.793 809.058C178.997 810.458 179.599 812.572 179.599 815.4V825.732C179.599 826.516 179.361 827.132 178.885 827.58C178.437 828.028 177.807 828.252 176.995 828.252C176.183 828.252 175.539 828.028 175.063 827.58C174.587 827.132 174.349 826.516 174.349 825.732V815.694C174.349 814.098 174.041 812.936 173.425 812.208C172.837 811.48 171.899 811.116 170.611 811.116C169.099 811.116 167.881 811.592 166.957 812.544C166.061 813.496 165.613 814.77 165.613 816.366V825.732C165.613 826.516 165.375 827.132 164.899 827.58C164.423 828.028 163.779 828.252 162.967 828.252C162.155 828.252 161.511 828.028 161.035 827.58C160.587 827.132 160.363 826.516 160.363 825.732V809.478C160.363 808.75 160.601 808.162 161.077 807.714C161.553 807.266 162.197 807.042 163.009 807.042C163.737 807.042 164.325 807.266 164.773 807.714C165.249 808.134 165.487 808.694 165.487 809.394V810.528C166.187 809.38 167.125 808.498 168.301 807.882C169.477 807.266 170.807 806.958 172.291 806.958Z" fill="#E25454"/>
<path d="M70.03 742.766C70.198 743.13 70.282 743.494 70.282 743.858C70.282 744.502 70.016 745.048 69.484 745.496C68.98 745.944 68.392 746.168 67.72 746.168C67.272 746.168 66.852 746.056 66.46 745.832C66.068 745.58 65.76 745.202 65.536 744.698L63.016 739.07H48.232L45.712 744.698C45.488 745.202 45.18 745.58 44.788 745.832C44.396 746.056 43.962 746.168 43.486 746.168C42.842 746.168 42.254 745.944 41.722 745.496C41.19 745.048 40.924 744.502 40.924 743.858C40.924 743.494 41.008 743.13 41.176 742.766L52.768 717.86C53.02 717.3 53.398 716.88 53.902 716.6C54.434 716.292 54.994 716.138 55.582 716.138C56.17 716.138 56.716 716.292 57.22 716.6C57.752 716.88 58.144 717.3 58.396 717.86L70.03 742.766ZM50.08 734.87H61.168L55.624 722.396L50.08 734.87ZM93.1379 716.18C93.9219 716.18 94.5659 716.404 95.0699 716.852C95.5739 717.3 95.8259 717.888 95.8259 718.616V743.732C95.8259 744.488 95.5879 745.09 95.1119 745.538C94.6359 745.986 94.0059 746.21 93.2219 746.21C92.4379 746.21 91.8079 745.986 91.3319 745.538C90.8559 745.09 90.6179 744.488 90.6179 743.732V742.682C90.0019 743.83 89.1059 744.726 87.9299 745.37C86.7819 746.014 85.4659 746.336 83.9819 746.336C82.2179 746.336 80.6359 745.888 79.2359 744.992C77.8639 744.096 76.7859 742.836 76.0019 741.212C75.2459 739.56 74.8679 737.67 74.8679 735.542C74.8679 733.414 75.2459 731.552 76.0019 729.956C76.7859 728.36 77.8639 727.128 79.2359 726.26C80.6079 725.392 82.1899 724.958 83.9819 724.958C85.4659 724.958 86.7819 725.266 87.9299 725.882C89.0779 726.498 89.9599 727.366 90.5759 728.486V718.532C90.5759 717.832 90.7999 717.272 91.2479 716.852C91.7239 716.404 92.3539 716.18 93.1379 716.18ZM85.3679 742.262C87.0479 742.262 88.3359 741.688 89.2319 740.54C90.1559 739.392 90.6179 737.754 90.6179 735.626C90.6179 733.498 90.1559 731.874 89.2319 730.754C88.3359 729.606 87.0619 729.032 85.4099 729.032C83.7299 729.032 82.4279 729.592 81.5039 730.712C80.5799 731.832 80.1179 733.442 80.1179 735.542C80.1179 737.67 80.5799 739.322 81.5039 740.498C82.4279 741.674 83.7159 742.262 85.3679 742.262ZM120.462 716.18C121.246 716.18 121.89 716.404 122.394 716.852C122.898 717.3 123.15 717.888 123.15 718.616V743.732C123.15 744.488 122.912 745.09 122.436 745.538C121.96 745.986 121.33 746.21 120.546 746.21C119.762 746.21 119.132 745.986 118.656 745.538C118.18 745.09 117.942 744.488 117.942 743.732V742.682C117.326 743.83 116.43 744.726 115.254 745.37C114.106 746.014 112.79 746.336 111.306 746.336C109.542 746.336 107.96 745.888 106.56 744.992C105.188 744.096 104.11 742.836 103.326 741.212C102.57 739.56 102.192 737.67 102.192 735.542C102.192 733.414 102.57 731.552 103.326 729.956C104.11 728.36 105.188 727.128 106.56 726.26C107.932 725.392 109.514 724.958 111.306 724.958C112.79 724.958 114.106 725.266 115.254 725.882C116.402 726.498 117.284 727.366 117.9 728.486V718.532C117.9 717.832 118.124 717.272 118.572 716.852C119.048 716.404 119.678 716.18 120.462 716.18ZM112.692 742.262C114.372 742.262 115.66 741.688 116.556 740.54C117.48 739.392 117.942 737.754 117.942 735.626C117.942 733.498 117.48 731.874 116.556 730.754C115.66 729.606 114.386 729.032 112.734 729.032C111.054 729.032 109.752 729.592 108.828 730.712C107.904 731.832 107.442 733.442 107.442 735.542C107.442 737.67 107.904 739.322 108.828 740.498C109.752 741.674 111.04 742.262 112.692 742.262ZM161.541 725.042C162.325 725.042 162.955 725.266 163.431 725.714C163.907 726.162 164.145 726.764 164.145 727.52V744.11C164.145 747.33 163.249 749.766 161.457 751.418C159.665 753.07 157.019 753.896 153.519 753.896C150.467 753.896 147.919 753.322 145.875 752.174C144.839 751.558 144.321 750.816 144.321 749.948C144.321 749.332 144.461 748.842 144.741 748.478C145.049 748.114 145.441 747.932 145.917 747.932C146.169 747.932 146.477 747.988 146.841 748.1C147.205 748.24 147.583 748.394 147.975 748.562C148.983 748.982 149.879 749.304 150.663 749.528C151.475 749.752 152.399 749.864 153.435 749.864C157.103 749.864 158.937 748.072 158.937 744.488V741.8C158.321 742.948 157.425 743.844 156.249 744.488C155.073 745.104 153.729 745.412 152.217 745.412C150.425 745.412 148.829 744.992 147.429 744.152C146.057 743.284 144.979 742.08 144.195 740.54C143.411 739 143.019 737.222 143.019 735.206C143.019 733.19 143.397 731.412 144.153 729.872C144.937 728.304 146.029 727.1 147.429 726.26C148.829 725.392 150.425 724.958 152.217 724.958C153.729 724.958 155.073 725.28 156.249 725.924C157.425 726.54 158.321 727.422 158.937 728.57V727.478C158.937 726.75 159.175 726.162 159.651 725.714C160.127 725.266 160.757 725.042 161.541 725.042ZM153.603 741.338C155.283 741.338 156.585 740.792 157.509 739.7C158.461 738.608 158.937 737.11 158.937 735.206C158.937 733.274 158.461 731.762 157.509 730.67C156.585 729.578 155.283 729.032 153.603 729.032C151.951 729.032 150.649 729.578 149.697 730.67C148.745 731.762 148.269 733.274 148.269 735.206C148.269 737.11 148.745 738.608 149.697 739.7C150.649 740.792 151.951 741.338 153.603 741.338ZM183.149 725.042C183.877 724.986 184.451 725.14 184.871 725.504C185.291 725.868 185.501 726.414 185.501 727.142C185.501 727.898 185.319 728.458 184.955 728.822C184.591 729.186 183.933 729.424 182.981 729.536L181.721 729.662C180.069 729.83 178.851 730.39 178.067 731.342C177.311 732.294 176.933 733.484 176.933 734.912V743.732C176.933 744.544 176.681 745.174 176.177 745.622C175.673 746.042 175.043 746.252 174.287 746.252C173.531 746.252 172.901 746.042 172.397 745.622C171.921 745.174 171.683 744.544 171.683 743.732V727.478C171.683 726.694 171.921 726.092 172.397 725.672C172.901 725.252 173.517 725.042 174.245 725.042C174.973 725.042 175.561 725.252 176.009 725.672C176.457 726.064 176.681 726.638 176.681 727.394V729.074C177.213 727.842 177.997 726.89 179.033 726.218C180.097 725.546 181.273 725.168 182.561 725.084L183.149 725.042ZM206.073 725.042C206.885 725.042 207.529 725.266 208.005 725.714C208.481 726.162 208.719 726.764 208.719 727.52V743.816C208.719 744.544 208.467 745.132 207.963 745.58C207.487 746.028 206.857 746.252 206.073 746.252C205.317 746.252 204.715 746.042 204.267 745.622C203.819 745.202 203.595 744.628 203.595 743.9V742.85C202.951 743.97 202.083 744.838 200.991 745.454C199.899 746.042 198.667 746.336 197.295 746.336C192.255 746.336 189.735 743.508 189.735 737.852V727.52C189.735 726.764 189.973 726.162 190.449 725.714C190.925 725.266 191.555 725.042 192.339 725.042C193.151 725.042 193.795 725.266 194.271 725.714C194.747 726.162 194.985 726.764 194.985 727.52V737.894C194.985 739.35 195.279 740.428 195.867 741.128C196.455 741.828 197.379 742.178 198.639 742.178C200.095 742.178 201.257 741.702 202.125 740.75C203.021 739.77 203.469 738.482 203.469 736.886V727.52C203.469 726.764 203.707 726.162 204.183 725.714C204.659 725.266 205.289 725.042 206.073 725.042ZM228.086 724.958C229.85 724.958 231.418 725.406 232.79 726.302C234.19 727.198 235.268 728.472 236.024 730.124C236.808 731.748 237.2 733.624 237.2 735.752C237.2 737.88 236.808 739.742 236.024 741.338C235.268 742.934 234.204 744.166 232.832 745.034C231.46 745.902 229.878 746.336 228.086 746.336C226.63 746.336 225.328 746.028 224.18 745.412C223.032 744.796 222.15 743.942 221.534 742.85V751.418C221.534 752.146 221.296 752.72 220.82 753.14C220.344 753.56 219.714 753.77 218.93 753.77C218.146 753.77 217.502 753.546 216.998 753.098C216.522 752.65 216.284 752.062 216.284 751.334V727.52C216.284 726.764 216.508 726.162 216.956 725.714C217.432 725.266 218.062 725.042 218.846 725.042C219.63 725.042 220.26 725.266 220.736 725.714C221.212 726.162 221.45 726.764 221.45 727.52V728.57C222.066 727.422 222.948 726.54 224.096 725.924C225.272 725.28 226.602 724.958 228.086 724.958ZM226.7 742.262C228.352 742.262 229.64 741.702 230.564 740.582C231.488 739.434 231.95 737.824 231.95 735.752C231.95 733.624 231.488 731.972 230.564 730.796C229.64 729.62 228.352 729.032 226.7 729.032C225.02 729.032 223.718 729.606 222.794 730.754C221.898 731.902 221.45 733.54 221.45 735.668C221.45 737.768 221.898 739.392 222.794 740.54C223.718 741.688 225.02 742.262 226.7 742.262Z" fill="#F2A154"/>
</g>
<rect x="0.5" y="0.5" width="427" height="925" stroke="black"/>
</g>
<defs>
<filter id="filter0_d_71_249" x="-4" y="0" width="436" height="934" filterUnits="userSpaceOnUse" color-interpolation-filters="sRGB">
<feFlood flood-opacity="0" result="BackgroundImageFix"/>
<feColorMatrix in="SourceAlpha" type="matrix" values="0 0 0 0 0 0 0 0 0 0 0 0 0 0 0 0 0 0 127 0" result="hardAlpha"/>
<feOffset dy="4"/>
<feGaussianBlur stdDeviation="2"/>
<feComposite in2="hardAlpha" operator="out"/>
<feColorMatrix type="matrix" values="0 0 0 0 0 0 0 0 0 0 0 0 0 0 0 0 0 0 0.25 0"/>
<feBlend mode="normal" in2="BackgroundImageFix" result="effect1_dropShadow_71_249"/>
<feBlend mode="normal" in="SourceGraphic" in2="effect1_dropShadow_71_249" result="shape"/>
</filter>
<clipPath id="clip0_71_249">
<rect width="428" height="926" fill="white"/>
</clipPath>
</defs>
</svg>
