<svg width="428" height="926" viewBox="0 0 428 926" fill="none" xmlns="http://www.w3.org/2000/svg">
<g filter="url(#filter0_d_36_155)">
<g clip-path="url(#clip0_36_155)">
<rect width="428" height="926" fill="#2F3136"/>
<rect width="405" height="926" fill="#35393F"/>
<path d="M41.8929 38.4688H91.1071C92.1526 38.4688 93 37.6293 93 36.5938V31.9062C93 30.8707 92.1526 30.0312 91.1071 30.0312H41.8929C40.8474 30.0312 40 30.8707 40 31.9062V36.5938C40 37.6293 40.8474 38.4688 41.8929 38.4688ZM41.8929 57.2188H91.1071C92.1526 57.2188 93 56.3793 93 55.3438V50.6562C93 49.6207 92.1526 48.7812 91.1071 48.7812H41.8929C40.8474 48.7812 40 49.6207 40 50.6562V55.3438C40 56.3793 40.8474 57.2188 41.8929 57.2188ZM41.8929 75.9688H91.1071C92.1526 75.9688 93 75.1293 93 74.0938V69.4062C93 68.3707 92.1526 67.5312 91.1071 67.5312H41.8929C40.8474 67.5312 40 68.3707 40 69.4062V74.0938C40 75.1293 40.8474 75.9688 41.8929 75.9688Z" fill="#FBF4E4"/>
<path d="M65.746 123.998C66.39 123.998 66.908 124.194 67.3 124.586C67.692 124.95 67.888 125.44 67.888 126.056V135.086C67.888 136.374 67.72 137.284 67.384 137.816C67.048 138.348 66.362 138.782 65.326 139.118C64.206 139.51 62.904 139.818 61.42 140.042C59.936 140.266 58.508 140.378 57.136 140.378C54.084 140.378 51.438 139.776 49.198 138.572C46.958 137.368 45.236 135.632 44.032 133.364C42.856 131.068 42.268 128.338 42.268 125.174C42.268 122.066 42.856 119.378 44.032 117.11C45.236 114.814 46.93 113.064 49.114 111.86C51.298 110.628 53.874 110.012 56.842 110.012C60.79 110.012 64.024 111.076 66.544 113.204C66.88 113.512 67.118 113.82 67.258 114.128C67.426 114.436 67.51 114.8 67.51 115.22C67.51 115.836 67.342 116.354 67.006 116.774C66.67 117.194 66.264 117.404 65.788 117.404C65.48 117.404 65.2 117.362 64.948 117.278C64.696 117.166 64.402 116.998 64.066 116.774C62.834 115.906 61.686 115.304 60.622 114.968C59.558 114.604 58.354 114.422 57.01 114.422C53.958 114.422 51.648 115.332 50.08 117.152C48.54 118.944 47.77 121.618 47.77 125.174C47.77 132.454 50.962 136.094 57.346 136.094C59.25 136.094 61.154 135.828 63.058 135.296V127.862H58.312C57.64 127.862 57.108 127.694 56.716 127.358C56.352 127.022 56.17 126.546 56.17 125.93C56.17 125.314 56.352 124.838 56.716 124.502C57.108 124.166 57.64 123.998 58.312 123.998H65.746ZM87.0987 119.042C87.8267 118.986 88.4007 119.14 88.8207 119.504C89.2407 119.868 89.4507 120.414 89.4507 121.142C89.4507 121.898 89.2687 122.458 88.9047 122.822C88.5407 123.186 87.8827 123.424 86.9307 123.536L85.6707 123.662C84.0187 123.83 82.8007 124.39 82.0167 125.342C81.2607 126.294 80.8827 127.484 80.8827 128.912V137.732C80.8827 138.544 80.6307 139.174 80.1267 139.622C79.6227 140.042 78.9927 140.252 78.2367 140.252C77.4807 140.252 76.8507 140.042 76.3467 139.622C75.8707 139.174 75.6327 138.544 75.6327 137.732V121.478C75.6327 120.694 75.8707 120.092 76.3467 119.672C76.8507 119.252 77.4667 119.042 78.1947 119.042C78.9227 119.042 79.5107 119.252 79.9587 119.672C80.4067 120.064 80.6307 120.638 80.6307 121.394V123.074C81.1627 121.842 81.9467 120.89 82.9827 120.218C84.0467 119.546 85.2227 119.168 86.5107 119.084L87.0987 119.042ZM102.767 140.336C100.667 140.336 98.8187 139.902 97.2227 139.034C95.6547 138.166 94.4367 136.92 93.5687 135.296C92.7007 133.672 92.2667 131.782 92.2667 129.626C92.2667 127.47 92.7007 125.594 93.5687 123.998C94.4367 122.374 95.6547 121.128 97.2227 120.26C98.8187 119.392 100.667 118.958 102.767 118.958C104.867 118.958 106.701 119.392 108.269 120.26C109.865 121.128 111.083 122.374 111.923 123.998C112.791 125.594 113.225 127.47 113.225 129.626C113.225 131.782 112.791 133.672 111.923 135.296C111.083 136.92 109.865 138.166 108.269 139.034C106.701 139.902 104.867 140.336 102.767 140.336ZM102.725 136.262C104.433 136.262 105.735 135.702 106.631 134.582C107.527 133.462 107.975 131.81 107.975 129.626C107.975 127.47 107.527 125.832 106.631 124.712C105.735 123.564 104.447 122.99 102.767 122.99C101.087 122.99 99.7847 123.564 98.8607 124.712C97.9647 125.832 97.5167 127.47 97.5167 129.626C97.5167 131.81 97.9647 133.462 98.8607 134.582C99.7567 135.702 101.045 136.262 102.725 136.262ZM135.871 119.042C136.683 119.042 137.327 119.266 137.803 119.714C138.279 120.162 138.517 120.764 138.517 121.52V137.816C138.517 138.544 138.265 139.132 137.761 139.58C137.285 140.028 136.655 140.252 135.871 140.252C135.115 140.252 134.513 140.042 134.065 139.622C133.617 139.202 133.393 138.628 133.393 137.9V136.85C132.749 137.97 131.881 138.838 130.789 139.454C129.697 140.042 128.465 140.336 127.093 140.336C122.053 140.336 119.533 137.508 119.533 131.852V121.52C119.533 120.764 119.771 120.162 120.247 119.714C120.723 119.266 121.353 119.042 122.137 119.042C122.949 119.042 123.593 119.266 124.069 119.714C124.545 120.162 124.783 120.764 124.783 121.52V131.894C124.783 133.35 125.077 134.428 125.665 135.128C126.253 135.828 127.177 136.178 128.437 136.178C129.893 136.178 131.055 135.702 131.923 134.75C132.819 133.77 133.267 132.482 133.267 130.886V121.52C133.267 120.764 133.505 120.162 133.981 119.714C134.457 119.266 135.087 119.042 135.871 119.042ZM157.883 118.958C159.647 118.958 161.215 119.406 162.587 120.302C163.987 121.198 165.065 122.472 165.821 124.124C166.605 125.748 166.997 127.624 166.997 129.752C166.997 131.88 166.605 133.742 165.821 135.338C165.065 136.934 164.001 138.166 162.629 139.034C161.257 139.902 159.675 140.336 157.883 140.336C156.427 140.336 155.125 140.028 153.977 139.412C152.829 138.796 151.947 137.942 151.331 136.85V145.418C151.331 146.146 151.093 146.72 150.617 147.14C150.141 147.56 149.511 147.77 148.727 147.77C147.943 147.77 147.299 147.546 146.795 147.098C146.319 146.65 146.081 146.062 146.081 145.334V121.52C146.081 120.764 146.305 120.162 146.753 119.714C147.229 119.266 147.859 119.042 148.643 119.042C149.427 119.042 150.057 119.266 150.533 119.714C151.009 120.162 151.247 120.764 151.247 121.52V122.57C151.863 121.422 152.745 120.54 153.893 119.924C155.069 119.28 156.399 118.958 157.883 118.958ZM156.497 136.262C158.149 136.262 159.437 135.702 160.361 134.582C161.285 133.434 161.747 131.824 161.747 129.752C161.747 127.624 161.285 125.972 160.361 124.796C159.437 123.62 158.149 123.032 156.497 123.032C154.817 123.032 153.515 123.606 152.591 124.754C151.695 125.902 151.247 127.54 151.247 129.668C151.247 131.768 151.695 133.392 152.591 134.54C153.515 135.688 154.817 136.262 156.497 136.262ZM180.84 140.336C177.788 140.336 175.324 139.734 173.448 138.53C172.552 137.998 172.104 137.242 172.104 136.262C172.104 135.702 172.258 135.254 172.566 134.918C172.874 134.554 173.252 134.372 173.7 134.372C174.176 134.372 174.834 134.596 175.674 135.044C176.57 135.464 177.382 135.786 178.11 136.01C178.866 136.234 179.818 136.346 180.966 136.346C182.142 136.346 183.052 136.15 183.696 135.758C184.368 135.366 184.704 134.82 184.704 134.12C184.704 133.644 184.564 133.266 184.284 132.986C184.032 132.706 183.556 132.454 182.856 132.23C182.184 131.978 181.148 131.698 179.748 131.39C177.256 130.886 175.464 130.172 174.372 129.248C173.308 128.324 172.776 127.05 172.776 125.426C172.776 124.194 173.14 123.088 173.868 122.108C174.596 121.1 175.59 120.33 176.85 119.798C178.138 119.238 179.594 118.958 181.218 118.958C182.394 118.958 183.528 119.112 184.62 119.42C185.712 119.7 186.692 120.12 187.56 120.68C188.456 121.24 188.904 121.982 188.904 122.906C188.904 123.466 188.75 123.942 188.442 124.334C188.134 124.698 187.756 124.88 187.308 124.88C187 124.88 186.692 124.824 186.384 124.712C186.104 124.572 185.74 124.376 185.292 124.124C184.48 123.704 183.78 123.396 183.192 123.2C182.604 122.976 181.876 122.864 181.008 122.864C179.972 122.864 179.146 123.074 178.53 123.494C177.942 123.914 177.648 124.488 177.648 125.216C177.648 125.916 177.956 126.448 178.572 126.812C179.188 127.176 180.378 127.54 182.142 127.904C184.018 128.296 185.488 128.744 186.552 129.248C187.616 129.752 188.372 130.382 188.82 131.138C189.296 131.894 189.534 132.86 189.534 134.036C189.534 135.94 188.736 137.466 187.14 138.614C185.572 139.762 183.472 140.336 180.84 140.336Z" fill="#DADADA"/>
<path d="M45.796 239C44.984 239 44.34 238.776 43.864 238.328C43.416 237.88 43.192 237.25 43.192 236.438V211.952C43.192 211.14 43.416 210.51 43.864 210.062C44.34 209.614 44.984 209.39 45.796 209.39H60.958C61.77 209.39 62.4 209.572 62.848 209.936C63.296 210.3 63.52 210.818 63.52 211.49C63.52 212.19 63.296 212.736 62.848 213.128C62.4 213.492 61.77 213.674 60.958 213.674H48.484V221.822H60.118C60.93 221.822 61.56 222.004 62.008 222.368C62.456 222.732 62.68 223.264 62.68 223.964C62.68 224.636 62.456 225.154 62.008 225.518C61.56 225.882 60.93 226.064 60.118 226.064H48.484V234.716H60.958C61.77 234.716 62.4 234.912 62.848 235.304C63.296 235.668 63.52 236.2 63.52 236.9C63.52 237.572 63.296 238.09 62.848 238.454C62.4 238.818 61.77 239 60.958 239H45.796ZM81.4904 217.958C83.9544 217.958 85.7884 218.658 86.9924 220.058C88.1964 221.458 88.7984 223.572 88.7984 226.4V236.732C88.7984 237.516 88.5604 238.132 88.0844 238.58C87.6364 239.028 87.0064 239.252 86.1944 239.252C85.3824 239.252 84.7384 239.028 84.2624 238.58C83.7864 238.132 83.5484 237.516 83.5484 236.732V226.694C83.5484 225.098 83.2404 223.936 82.6244 223.208C82.0364 222.48 81.0984 222.116 79.8104 222.116C78.2984 222.116 77.0804 222.592 76.1564 223.544C75.2604 224.496 74.8124 225.77 74.8124 227.366V236.732C74.8124 237.516 74.5744 238.132 74.0984 238.58C73.6224 239.028 72.9784 239.252 72.1664 239.252C71.3544 239.252 70.7104 239.028 70.2344 238.58C69.7864 238.132 69.5624 237.516 69.5624 236.732V220.478C69.5624 219.75 69.8004 219.162 70.2764 218.714C70.7524 218.266 71.3964 218.042 72.2084 218.042C72.9364 218.042 73.5244 218.266 73.9724 218.714C74.4484 219.134 74.6864 219.694 74.6864 220.394V221.528C75.3864 220.38 76.3244 219.498 77.5004 218.882C78.6764 218.266 80.0064 217.958 81.4904 217.958ZM113.619 218.042C114.403 218.042 115.033 218.266 115.509 218.714C115.985 219.162 116.223 219.764 116.223 220.52V237.11C116.223 240.33 115.327 242.766 113.535 244.418C111.743 246.07 109.097 246.896 105.597 246.896C102.545 246.896 99.9968 246.322 97.9528 245.174C96.9168 244.558 96.3988 243.816 96.3988 242.948C96.3988 242.332 96.5388 241.842 96.8188 241.478C97.1268 241.114 97.5188 240.932 97.9948 240.932C98.2468 240.932 98.5548 240.988 98.9188 241.1C99.2828 241.24 99.6608 241.394 100.053 241.562C101.061 241.982 101.957 242.304 102.741 242.528C103.553 242.752 104.477 242.864 105.513 242.864C109.181 242.864 111.015 241.072 111.015 237.488V234.8C110.399 235.948 109.503 236.844 108.327 237.488C107.151 238.104 105.807 238.412 104.295 238.412C102.503 238.412 100.907 237.992 99.5068 237.152C98.1348 236.284 97.0568 235.08 96.2728 233.54C95.4888 232 95.0968 230.222 95.0968 228.206C95.0968 226.19 95.4748 224.412 96.2308 222.872C97.0148 221.304 98.1068 220.1 99.5068 219.26C100.907 218.392 102.503 217.958 104.295 217.958C105.807 217.958 107.151 218.28 108.327 218.924C109.503 219.54 110.399 220.422 111.015 221.57V220.478C111.015 219.75 111.253 219.162 111.729 218.714C112.205 218.266 112.835 218.042 113.619 218.042ZM105.681 234.338C107.361 234.338 108.663 233.792 109.587 232.7C110.539 231.608 111.015 230.11 111.015 228.206C111.015 226.274 110.539 224.762 109.587 223.67C108.663 222.578 107.361 222.032 105.681 222.032C104.029 222.032 102.727 222.578 101.775 223.67C100.823 224.762 100.347 226.274 100.347 228.206C100.347 230.11 100.823 231.608 101.775 232.7C102.727 233.792 104.029 234.338 105.681 234.338ZM126.364 239.252C125.608 239.252 124.978 239.042 124.474 238.622C123.998 238.174 123.76 237.544 123.76 236.732V211.658C123.76 210.846 123.998 210.23 124.474 209.81C124.978 209.39 125.608 209.18 126.364 209.18C127.12 209.18 127.75 209.39 128.254 209.81C128.758 210.23 129.01 210.846 129.01 211.658V236.732C129.01 237.544 128.758 238.174 128.254 238.622C127.75 239.042 127.12 239.252 126.364 239.252ZM139.129 239.252C138.373 239.252 137.743 239.042 137.239 238.622C136.763 238.174 136.525 237.544 136.525 236.732V220.52C136.525 219.708 136.763 219.092 137.239 218.672C137.743 218.252 138.373 218.042 139.129 218.042C139.885 218.042 140.515 218.252 141.019 218.672C141.523 219.092 141.775 219.708 141.775 220.52V236.732C141.775 237.544 141.523 238.174 141.019 238.622C140.515 239.042 139.885 239.252 139.129 239.252ZM139.129 214.304C138.177 214.304 137.421 214.052 136.861 213.548C136.301 213.016 136.021 212.33 136.021 211.49C136.021 210.65 136.301 209.978 136.861 209.474C137.421 208.97 138.177 208.718 139.129 208.718C140.053 208.718 140.795 208.97 141.355 209.474C141.943 209.978 142.237 210.65 142.237 211.49C142.237 212.33 141.957 213.016 141.397 213.548C140.837 214.052 140.081 214.304 139.129 214.304ZM156.723 239.336C153.671 239.336 151.207 238.734 149.331 237.53C148.435 236.998 147.987 236.242 147.987 235.262C147.987 234.702 148.141 234.254 148.449 233.918C148.757 233.554 149.135 233.372 149.583 233.372C150.059 233.372 150.717 233.596 151.557 234.044C152.453 234.464 153.265 234.786 153.993 235.01C154.749 235.234 155.701 235.346 156.849 235.346C158.025 235.346 158.935 235.15 159.579 234.758C160.251 234.366 160.587 233.82 160.587 233.12C160.587 232.644 160.447 232.266 160.167 231.986C159.915 231.706 159.439 231.454 158.739 231.23C158.067 230.978 157.031 230.698 155.631 230.39C153.139 229.886 151.347 229.172 150.255 228.248C149.191 227.324 148.659 226.05 148.659 224.426C148.659 223.194 149.023 222.088 149.751 221.108C150.479 220.1 151.473 219.33 152.733 218.798C154.021 218.238 155.477 217.958 157.101 217.958C158.277 217.958 159.411 218.112 160.503 218.42C161.595 218.7 162.575 219.12 163.443 219.68C164.339 220.24 164.787 220.982 164.787 221.906C164.787 222.466 164.633 222.942 164.325 223.334C164.017 223.698 163.639 223.88 163.191 223.88C162.883 223.88 162.575 223.824 162.267 223.712C161.987 223.572 161.623 223.376 161.175 223.124C160.363 222.704 159.663 222.396 159.075 222.2C158.487 221.976 157.759 221.864 156.891 221.864C155.855 221.864 155.029 222.074 154.413 222.494C153.825 222.914 153.531 223.488 153.531 224.216C153.531 224.916 153.839 225.448 154.455 225.812C155.071 226.176 156.261 226.54 158.025 226.904C159.901 227.296 161.371 227.744 162.435 228.248C163.499 228.752 164.255 229.382 164.703 230.138C165.179 230.894 165.417 231.86 165.417 233.036C165.417 234.94 164.619 236.466 163.023 237.614C161.455 238.762 159.355 239.336 156.723 239.336ZM183.785 217.958C188.601 217.958 191.009 220.772 191.009 226.4V236.732C191.009 237.516 190.771 238.132 190.295 238.58C189.847 239.028 189.217 239.252 188.405 239.252C187.593 239.252 186.949 239.028 186.473 238.58C185.997 238.132 185.759 237.516 185.759 236.732V226.4C185.759 224.916 185.451 223.838 184.835 223.166C184.247 222.466 183.309 222.116 182.021 222.116C180.509 222.116 179.291 222.592 178.367 223.544C177.471 224.496 177.023 225.77 177.023 227.366V236.732C177.023 237.516 176.785 238.132 176.309 238.58C175.833 239.028 175.189 239.252 174.377 239.252C173.565 239.252 172.921 239.028 172.445 238.58C171.997 238.132 171.773 237.516 171.773 236.732V211.616C171.773 210.888 172.011 210.3 172.487 209.852C172.991 209.404 173.635 209.18 174.419 209.18C175.203 209.18 175.833 209.39 176.309 209.81C176.785 210.23 177.023 210.804 177.023 211.532V221.318C177.723 220.226 178.647 219.4 179.795 218.84C180.971 218.252 182.301 217.958 183.785 217.958ZM229.332 218.042C230.116 218.042 230.746 218.266 231.222 218.714C231.698 219.162 231.936 219.764 231.936 220.52V237.11C231.936 240.33 231.04 242.766 229.248 244.418C227.456 246.07 224.81 246.896 221.31 246.896C218.258 246.896 215.71 246.322 213.666 245.174C212.63 244.558 212.112 243.816 212.112 242.948C212.112 242.332 212.252 241.842 212.532 241.478C212.84 241.114 213.232 240.932 213.708 240.932C213.96 240.932 214.268 240.988 214.632 241.1C214.996 241.24 215.374 241.394 215.766 241.562C216.774 241.982 217.67 242.304 218.454 242.528C219.266 242.752 220.19 242.864 221.226 242.864C224.894 242.864 226.728 241.072 226.728 237.488V234.8C226.112 235.948 225.216 236.844 224.04 237.488C222.864 238.104 221.52 238.412 220.008 238.412C218.216 238.412 216.62 237.992 215.22 237.152C213.848 236.284 212.77 235.08 211.986 233.54C211.202 232 210.81 230.222 210.81 228.206C210.81 226.19 211.188 224.412 211.944 222.872C212.728 221.304 213.82 220.1 215.22 219.26C216.62 218.392 218.216 217.958 220.008 217.958C221.52 217.958 222.864 218.28 224.04 218.924C225.216 219.54 226.112 220.422 226.728 221.57V220.478C226.728 219.75 226.966 219.162 227.442 218.714C227.918 218.266 228.548 218.042 229.332 218.042ZM221.394 234.338C223.074 234.338 224.376 233.792 225.3 232.7C226.252 231.608 226.728 230.11 226.728 228.206C226.728 226.274 226.252 224.762 225.3 223.67C224.376 222.578 223.074 222.032 221.394 222.032C219.742 222.032 218.44 222.578 217.488 223.67C216.536 224.762 216.06 226.274 216.06 228.206C216.06 230.11 216.536 231.608 217.488 232.7C218.44 233.792 219.742 234.338 221.394 234.338ZM250.94 218.042C251.668 217.986 252.242 218.14 252.662 218.504C253.082 218.868 253.292 219.414 253.292 220.142C253.292 220.898 253.11 221.458 252.746 221.822C252.382 222.186 251.724 222.424 250.772 222.536L249.512 222.662C247.86 222.83 246.642 223.39 245.858 224.342C245.102 225.294 244.724 226.484 244.724 227.912V236.732C244.724 237.544 244.472 238.174 243.968 238.622C243.464 239.042 242.834 239.252 242.078 239.252C241.322 239.252 240.692 239.042 240.188 238.622C239.712 238.174 239.474 237.544 239.474 236.732V220.478C239.474 219.694 239.712 219.092 240.188 218.672C240.692 218.252 241.308 218.042 242.036 218.042C242.764 218.042 243.352 218.252 243.8 218.672C244.248 219.064 244.472 219.638 244.472 220.394V222.074C245.004 220.842 245.788 219.89 246.824 219.218C247.888 218.546 249.064 218.168 250.352 218.084L250.94 218.042ZM266.608 239.336C264.508 239.336 262.66 238.902 261.064 238.034C259.496 237.166 258.278 235.92 257.41 234.296C256.542 232.672 256.108 230.782 256.108 228.626C256.108 226.47 256.542 224.594 257.41 222.998C258.278 221.374 259.496 220.128 261.064 219.26C262.66 218.392 264.508 217.958 266.608 217.958C268.708 217.958 270.542 218.392 272.11 219.26C273.706 220.128 274.924 221.374 275.764 222.998C276.632 224.594 277.066 226.47 277.066 228.626C277.066 230.782 276.632 232.672 275.764 234.296C274.924 235.92 273.706 237.166 272.11 238.034C270.542 238.902 268.708 239.336 266.608 239.336ZM266.566 235.262C268.274 235.262 269.576 234.702 270.472 233.582C271.368 232.462 271.816 230.81 271.816 228.626C271.816 226.47 271.368 224.832 270.472 223.712C269.576 222.564 268.288 221.99 266.608 221.99C264.928 221.99 263.626 222.564 262.702 223.712C261.806 224.832 261.358 226.47 261.358 228.626C261.358 230.81 261.806 232.462 262.702 233.582C263.598 234.702 264.886 235.262 266.566 235.262ZM299.712 218.042C300.524 218.042 301.168 218.266 301.644 218.714C302.12 219.162 302.358 219.764 302.358 220.52V236.816C302.358 237.544 302.106 238.132 301.602 238.58C301.126 239.028 300.496 239.252 299.712 239.252C298.956 239.252 298.354 239.042 297.906 238.622C297.458 238.202 297.234 237.628 297.234 236.9V235.85C296.59 236.97 295.722 237.838 294.63 238.454C293.538 239.042 292.306 239.336 290.934 239.336C285.894 239.336 283.374 236.508 283.374 230.852V220.52C283.374 219.764 283.612 219.162 284.088 218.714C284.564 218.266 285.194 218.042 285.978 218.042C286.79 218.042 287.434 218.266 287.91 218.714C288.386 219.162 288.624 219.764 288.624 220.52V230.894C288.624 232.35 288.918 233.428 289.506 234.128C290.094 234.828 291.018 235.178 292.278 235.178C293.734 235.178 294.896 234.702 295.764 233.75C296.66 232.77 297.108 231.482 297.108 229.886V220.52C297.108 219.764 297.346 219.162 297.822 218.714C298.298 218.266 298.928 218.042 299.712 218.042ZM321.724 217.958C323.488 217.958 325.056 218.406 326.428 219.302C327.828 220.198 328.906 221.472 329.662 223.124C330.446 224.748 330.838 226.624 330.838 228.752C330.838 230.88 330.446 232.742 329.662 234.338C328.906 235.934 327.842 237.166 326.47 238.034C325.098 238.902 323.516 239.336 321.724 239.336C320.268 239.336 318.966 239.028 317.818 238.412C316.67 237.796 315.788 236.942 315.172 235.85V244.418C315.172 245.146 314.934 245.72 314.458 246.14C313.982 246.56 313.352 246.77 312.568 246.77C311.784 246.77 311.14 246.546 310.636 246.098C310.16 245.65 309.922 245.062 309.922 244.334V220.52C309.922 219.764 310.146 219.162 310.594 218.714C311.07 218.266 311.7 218.042 312.484 218.042C313.268 218.042 313.898 218.266 314.374 218.714C314.85 219.162 315.088 219.764 315.088 220.52V221.57C315.704 220.422 316.586 219.54 317.734 218.924C318.91 218.28 320.24 217.958 321.724 217.958ZM320.338 235.262C321.99 235.262 323.278 234.702 324.202 233.582C325.126 232.434 325.588 230.824 325.588 228.752C325.588 226.624 325.126 224.972 324.202 223.796C323.278 222.62 321.99 222.032 320.338 222.032C318.658 222.032 317.356 222.606 316.432 223.754C315.536 224.902 315.088 226.54 315.088 228.668C315.088 230.768 315.536 232.392 316.432 233.54C317.356 234.688 318.658 235.262 320.338 235.262Z" fill="#DADADA"/>
<path d="M45.88 338.252C45.068 338.252 44.41 338 43.906 337.496C43.43 336.992 43.192 336.334 43.192 335.522V310.952C43.192 310.14 43.416 309.51 43.864 309.062C44.34 308.614 44.984 308.39 45.796 308.39H60.538C62.246 308.39 63.1 309.118 63.1 310.574C63.1 312.002 62.246 312.716 60.538 312.716H48.526V320.78H59.698C61.406 320.78 62.26 321.508 62.26 322.964C62.26 324.392 61.406 325.106 59.698 325.106H48.526V335.522C48.526 336.334 48.288 336.992 47.812 337.496C47.336 338 46.692 338.252 45.88 338.252ZM79.6749 317.042C80.4029 316.986 80.9769 317.14 81.3969 317.504C81.8169 317.868 82.0269 318.414 82.0269 319.142C82.0269 319.898 81.8449 320.458 81.4809 320.822C81.1169 321.186 80.4589 321.424 79.5069 321.536L78.2469 321.662C76.5949 321.83 75.3769 322.39 74.5929 323.342C73.8369 324.294 73.4589 325.484 73.4589 326.912V335.732C73.4589 336.544 73.2069 337.174 72.7029 337.622C72.1989 338.042 71.5689 338.252 70.8129 338.252C70.0569 338.252 69.4269 338.042 68.9229 337.622C68.4469 337.174 68.2089 336.544 68.2089 335.732V319.478C68.2089 318.694 68.4469 318.092 68.9229 317.672C69.4269 317.252 70.0429 317.042 70.7709 317.042C71.4989 317.042 72.0869 317.252 72.5349 317.672C72.9829 318.064 73.2069 318.638 73.2069 319.394V321.074C73.7389 319.842 74.5229 318.89 75.5589 318.218C76.6229 317.546 77.7989 317.168 79.0869 317.084L79.6749 317.042ZM102.231 332.372C102.707 332.372 103.085 332.554 103.365 332.918C103.673 333.282 103.827 333.772 103.827 334.388C103.827 335.256 103.309 335.984 102.273 336.572C101.321 337.104 100.243 337.538 99.0389 337.874C97.8349 338.182 96.6869 338.336 95.5949 338.336C92.2909 338.336 89.6729 337.384 87.7409 335.48C85.8089 333.576 84.8429 330.972 84.8429 327.668C84.8429 325.568 85.2629 323.706 86.1029 322.082C86.9429 320.458 88.1189 319.198 89.6309 318.302C91.1709 317.406 92.9069 316.958 94.8389 316.958C96.6869 316.958 98.2969 317.364 99.6689 318.176C101.041 318.988 102.105 320.136 102.861 321.62C103.617 323.104 103.995 324.854 103.995 326.87C103.995 328.074 103.463 328.676 102.399 328.676H90.0089C90.1769 330.608 90.7229 332.036 91.6469 332.96C92.5709 333.856 93.9149 334.304 95.6789 334.304C96.5749 334.304 97.3589 334.192 98.0309 333.968C98.7309 333.744 99.5149 333.436 100.383 333.044C101.223 332.596 101.839 332.372 102.231 332.372ZM94.9649 320.654C93.5369 320.654 92.3889 321.102 91.5209 321.998C90.6809 322.894 90.1769 324.182 90.0089 325.862H99.5009C99.4449 324.154 99.0249 322.866 98.2409 321.998C97.4569 321.102 96.3649 320.654 94.9649 320.654ZM122.317 316.958C124.781 316.958 126.615 317.658 127.819 319.058C129.023 320.458 129.625 322.572 129.625 325.4V335.732C129.625 336.516 129.387 337.132 128.911 337.58C128.463 338.028 127.833 338.252 127.021 338.252C126.209 338.252 125.565 338.028 125.089 337.58C124.613 337.132 124.375 336.516 124.375 335.732V325.694C124.375 324.098 124.067 322.936 123.451 322.208C122.863 321.48 121.925 321.116 120.637 321.116C119.125 321.116 117.907 321.592 116.983 322.544C116.087 323.496 115.639 324.77 115.639 326.366V335.732C115.639 336.516 115.401 337.132 114.925 337.58C114.449 338.028 113.805 338.252 112.993 338.252C112.181 338.252 111.537 338.028 111.061 337.58C110.613 337.132 110.389 336.516 110.389 335.732V319.478C110.389 318.75 110.627 318.162 111.103 317.714C111.579 317.266 112.223 317.042 113.035 317.042C113.763 317.042 114.351 317.266 114.799 317.714C115.275 318.134 115.513 318.694 115.513 319.394V320.528C116.213 319.38 117.151 318.498 118.327 317.882C119.503 317.266 120.833 316.958 122.317 316.958ZM146.172 338.336C144.128 338.336 142.322 337.902 140.754 337.034C139.214 336.166 138.024 334.934 137.184 333.338C136.344 331.742 135.924 329.88 135.924 327.752C135.924 325.624 136.358 323.748 137.226 322.124C138.122 320.472 139.368 319.198 140.964 318.302C142.56 317.406 144.394 316.958 146.466 316.958C147.558 316.958 148.65 317.112 149.742 317.42C150.862 317.728 151.842 318.148 152.682 318.68C153.578 319.268 154.026 320.01 154.026 320.906C154.026 321.522 153.872 322.026 153.564 322.418C153.284 322.782 152.906 322.964 152.43 322.964C152.122 322.964 151.8 322.894 151.464 322.754C151.128 322.614 150.792 322.446 150.456 322.25C149.84 321.886 149.252 321.606 148.692 321.41C148.132 321.186 147.488 321.074 146.76 321.074C145.024 321.074 143.68 321.648 142.728 322.796C141.804 323.916 141.342 325.54 141.342 327.668C141.342 329.768 141.804 331.392 142.728 332.54C143.68 333.66 145.024 334.22 146.76 334.22C147.46 334.22 148.076 334.122 148.608 333.926C149.168 333.702 149.784 333.408 150.456 333.044C150.876 332.792 151.24 332.61 151.548 332.498C151.856 332.358 152.164 332.288 152.472 332.288C152.92 332.288 153.298 332.484 153.606 332.876C153.914 333.268 154.068 333.758 154.068 334.346C154.068 334.822 153.956 335.242 153.732 335.606C153.536 335.942 153.2 336.25 152.724 336.53C151.856 337.09 150.848 337.538 149.7 337.874C148.552 338.182 147.376 338.336 146.172 338.336ZM171.678 316.958C176.494 316.958 178.902 319.772 178.902 325.4V335.732C178.902 336.516 178.664 337.132 178.188 337.58C177.74 338.028 177.11 338.252 176.298 338.252C175.486 338.252 174.842 338.028 174.366 337.58C173.89 337.132 173.652 336.516 173.652 335.732V325.4C173.652 323.916 173.344 322.838 172.728 322.166C172.14 321.466 171.202 321.116 169.914 321.116C168.402 321.116 167.184 321.592 166.26 322.544C165.364 323.496 164.916 324.77 164.916 326.366V335.732C164.916 336.516 164.678 337.132 164.202 337.58C163.726 338.028 163.082 338.252 162.27 338.252C161.458 338.252 160.814 338.028 160.338 337.58C159.89 337.132 159.666 336.516 159.666 335.732V310.616C159.666 309.888 159.904 309.3 160.38 308.852C160.884 308.404 161.528 308.18 162.312 308.18C163.096 308.18 163.726 308.39 164.202 308.81C164.678 309.23 164.916 309.804 164.916 310.532V320.318C165.616 319.226 166.54 318.4 167.688 317.84C168.864 317.252 170.194 316.958 171.678 316.958ZM217.224 317.042C218.008 317.042 218.638 317.266 219.114 317.714C219.59 318.162 219.828 318.764 219.828 319.52V336.11C219.828 339.33 218.932 341.766 217.14 343.418C215.348 345.07 212.702 345.896 209.202 345.896C206.15 345.896 203.602 345.322 201.558 344.174C200.522 343.558 200.004 342.816 200.004 341.948C200.004 341.332 200.144 340.842 200.424 340.478C200.732 340.114 201.124 339.932 201.6 339.932C201.852 339.932 202.16 339.988 202.524 340.1C202.888 340.24 203.266 340.394 203.658 340.562C204.666 340.982 205.562 341.304 206.346 341.528C207.158 341.752 208.082 341.864 209.118 341.864C212.786 341.864 214.62 340.072 214.62 336.488V333.8C214.004 334.948 213.108 335.844 211.932 336.488C210.756 337.104 209.412 337.412 207.9 337.412C206.108 337.412 204.512 336.992 203.112 336.152C201.74 335.284 200.662 334.08 199.878 332.54C199.094 331 198.702 329.222 198.702 327.206C198.702 325.19 199.08 323.412 199.836 321.872C200.62 320.304 201.712 319.1 203.112 318.26C204.512 317.392 206.108 316.958 207.9 316.958C209.412 316.958 210.756 317.28 211.932 317.924C213.108 318.54 214.004 319.422 214.62 320.57V319.478C214.62 318.75 214.858 318.162 215.334 317.714C215.81 317.266 216.44 317.042 217.224 317.042ZM209.286 333.338C210.966 333.338 212.268 332.792 213.192 331.7C214.144 330.608 214.62 329.11 214.62 327.206C214.62 325.274 214.144 323.762 213.192 322.67C212.268 321.578 210.966 321.032 209.286 321.032C207.634 321.032 206.332 321.578 205.38 322.67C204.428 323.762 203.952 325.274 203.952 327.206C203.952 329.11 204.428 330.608 205.38 331.7C206.332 332.792 207.634 333.338 209.286 333.338ZM238.832 317.042C239.56 316.986 240.134 317.14 240.554 317.504C240.974 317.868 241.184 318.414 241.184 319.142C241.184 319.898 241.002 320.458 240.638 320.822C240.274 321.186 239.616 321.424 238.664 321.536L237.404 321.662C235.752 321.83 234.534 322.39 233.75 323.342C232.994 324.294 232.616 325.484 232.616 326.912V335.732C232.616 336.544 232.364 337.174 231.86 337.622C231.356 338.042 230.726 338.252 229.97 338.252C229.214 338.252 228.584 338.042 228.08 337.622C227.604 337.174 227.366 336.544 227.366 335.732V319.478C227.366 318.694 227.604 318.092 228.08 317.672C228.584 317.252 229.2 317.042 229.928 317.042C230.656 317.042 231.244 317.252 231.692 317.672C232.14 318.064 232.364 318.638 232.364 319.394V321.074C232.896 319.842 233.68 318.89 234.716 318.218C235.78 317.546 236.956 317.168 238.244 317.084L238.832 317.042ZM254.5 338.336C252.4 338.336 250.552 337.902 248.956 337.034C247.388 336.166 246.17 334.92 245.302 333.296C244.434 331.672 244 329.782 244 327.626C244 325.47 244.434 323.594 245.302 321.998C246.17 320.374 247.388 319.128 248.956 318.26C250.552 317.392 252.4 316.958 254.5 316.958C256.6 316.958 258.434 317.392 260.002 318.26C261.598 319.128 262.816 320.374 263.656 321.998C264.524 323.594 264.958 325.47 264.958 327.626C264.958 329.782 264.524 331.672 263.656 333.296C262.816 334.92 261.598 336.166 260.002 337.034C258.434 337.902 256.6 338.336 254.5 338.336ZM254.458 334.262C256.166 334.262 257.468 333.702 258.364 332.582C259.26 331.462 259.708 329.81 259.708 327.626C259.708 325.47 259.26 323.832 258.364 322.712C257.468 321.564 256.18 320.99 254.5 320.99C252.82 320.99 251.518 321.564 250.594 322.712C249.698 323.832 249.25 325.47 249.25 327.626C249.25 329.81 249.698 331.462 250.594 332.582C251.49 333.702 252.778 334.262 254.458 334.262ZM287.604 317.042C288.416 317.042 289.06 317.266 289.536 317.714C290.012 318.162 290.25 318.764 290.25 319.52V335.816C290.25 336.544 289.998 337.132 289.494 337.58C289.018 338.028 288.388 338.252 287.604 338.252C286.848 338.252 286.246 338.042 285.798 337.622C285.35 337.202 285.126 336.628 285.126 335.9V334.85C284.482 335.97 283.614 336.838 282.522 337.454C281.43 338.042 280.198 338.336 278.826 338.336C273.786 338.336 271.266 335.508 271.266 329.852V319.52C271.266 318.764 271.504 318.162 271.98 317.714C272.456 317.266 273.086 317.042 273.87 317.042C274.682 317.042 275.326 317.266 275.802 317.714C276.278 318.162 276.516 318.764 276.516 319.52V329.894C276.516 331.35 276.81 332.428 277.398 333.128C277.986 333.828 278.91 334.178 280.17 334.178C281.626 334.178 282.788 333.702 283.656 332.75C284.552 331.77 285 330.482 285 328.886V319.52C285 318.764 285.238 318.162 285.714 317.714C286.19 317.266 286.82 317.042 287.604 317.042ZM309.616 316.958C311.38 316.958 312.948 317.406 314.32 318.302C315.72 319.198 316.798 320.472 317.554 322.124C318.338 323.748 318.73 325.624 318.73 327.752C318.73 329.88 318.338 331.742 317.554 333.338C316.798 334.934 315.734 336.166 314.362 337.034C312.99 337.902 311.408 338.336 309.616 338.336C308.16 338.336 306.858 338.028 305.71 337.412C304.562 336.796 303.68 335.942 303.064 334.85V343.418C303.064 344.146 302.826 344.72 302.35 345.14C301.874 345.56 301.244 345.77 300.46 345.77C299.676 345.77 299.032 345.546 298.528 345.098C298.052 344.65 297.814 344.062 297.814 343.334V319.52C297.814 318.764 298.038 318.162 298.486 317.714C298.962 317.266 299.592 317.042 300.376 317.042C301.16 317.042 301.79 317.266 302.266 317.714C302.742 318.162 302.98 318.764 302.98 319.52V320.57C303.596 319.422 304.478 318.54 305.626 317.924C306.802 317.28 308.132 316.958 309.616 316.958ZM308.23 334.262C309.882 334.262 311.17 333.702 312.094 332.582C313.018 331.434 313.48 329.824 313.48 327.752C313.48 325.624 313.018 323.972 312.094 322.796C311.17 321.62 309.882 321.032 308.23 321.032C306.55 321.032 305.248 321.606 304.324 322.754C303.428 323.902 302.98 325.54 302.98 327.668C302.98 329.768 303.428 331.392 304.324 332.54C305.248 333.688 306.55 334.262 308.23 334.262Z" fill="#DADADA"/>
<path d="M52.894 440.21C52.054 440.21 51.382 439.972 50.878 439.496C50.402 438.992 50.164 438.334 50.164 437.522V414.842H42.52C40.84 414.842 40 414.1 40 412.616C40 411.132 40.84 410.39 42.52 410.39H63.226C64.906 410.39 65.746 411.132 65.746 412.616C65.746 414.1 64.906 414.842 63.226 414.842H55.582V437.522C55.582 438.334 55.33 438.992 54.826 439.496C54.35 439.972 53.706 440.21 52.894 440.21ZM83.5606 434.372C84.0366 434.372 84.4146 434.554 84.6946 434.918C85.0026 435.282 85.1566 435.772 85.1566 436.388C85.1566 437.256 84.6386 437.984 83.6026 438.572C82.6506 439.104 81.5726 439.538 80.3686 439.874C79.1646 440.182 78.0166 440.336 76.9246 440.336C73.6206 440.336 71.0026 439.384 69.0706 437.48C67.1386 435.576 66.1726 432.972 66.1726 429.668C66.1726 427.568 66.5926 425.706 67.4326 424.082C68.2726 422.458 69.4486 421.198 70.9606 420.302C72.5006 419.406 74.2366 418.958 76.1686 418.958C78.0166 418.958 79.6266 419.364 80.9986 420.176C82.3706 420.988 83.4346 422.136 84.1906 423.62C84.9466 425.104 85.3246 426.854 85.3246 428.87C85.3246 430.074 84.7926 430.676 83.7286 430.676H71.3386C71.5066 432.608 72.0526 434.036 72.9766 434.96C73.9006 435.856 75.2446 436.304 77.0086 436.304C77.9046 436.304 78.6886 436.192 79.3606 435.968C80.0606 435.744 80.8446 435.436 81.7126 435.044C82.5526 434.596 83.1686 434.372 83.5606 434.372ZM76.2946 422.654C74.8666 422.654 73.7186 423.102 72.8506 423.998C72.0106 424.894 71.5066 426.182 71.3386 427.862H80.8306C80.7746 426.154 80.3546 424.866 79.5706 423.998C78.7866 423.102 77.6946 422.654 76.2946 422.654ZM103.647 418.958C106.111 418.958 107.945 419.658 109.149 421.058C110.353 422.458 110.955 424.572 110.955 427.4V437.732C110.955 438.516 110.717 439.132 110.241 439.58C109.793 440.028 109.163 440.252 108.351 440.252C107.539 440.252 106.895 440.028 106.419 439.58C105.943 439.132 105.705 438.516 105.705 437.732V427.694C105.705 426.098 105.397 424.936 104.781 424.208C104.193 423.48 103.255 423.116 101.967 423.116C100.455 423.116 99.2371 423.592 98.3131 424.544C97.4171 425.496 96.9691 426.77 96.9691 428.366V437.732C96.9691 438.516 96.7311 439.132 96.2551 439.58C95.7791 440.028 95.1351 440.252 94.3231 440.252C93.5111 440.252 92.8671 440.028 92.3911 439.58C91.9431 439.132 91.7191 438.516 91.7191 437.732V421.478C91.7191 420.75 91.9571 420.162 92.4331 419.714C92.9091 419.266 93.5531 419.042 94.3651 419.042C95.0931 419.042 95.6811 419.266 96.1291 419.714C96.6051 420.134 96.8431 420.694 96.8431 421.394V422.528C97.5431 421.38 98.4811 420.498 99.6571 419.882C100.833 419.266 102.163 418.958 103.647 418.958ZM130.315 418.958C132.779 418.958 134.613 419.658 135.817 421.058C137.021 422.458 137.623 424.572 137.623 427.4V437.732C137.623 438.516 137.385 439.132 136.909 439.58C136.461 440.028 135.831 440.252 135.019 440.252C134.207 440.252 133.563 440.028 133.087 439.58C132.611 439.132 132.373 438.516 132.373 437.732V427.694C132.373 426.098 132.065 424.936 131.449 424.208C130.861 423.48 129.923 423.116 128.635 423.116C127.123 423.116 125.905 423.592 124.981 424.544C124.085 425.496 123.637 426.77 123.637 428.366V437.732C123.637 438.516 123.399 439.132 122.923 439.58C122.447 440.028 121.803 440.252 120.991 440.252C120.179 440.252 119.535 440.028 119.059 439.58C118.611 439.132 118.387 438.516 118.387 437.732V421.478C118.387 420.75 118.625 420.162 119.101 419.714C119.577 419.266 120.221 419.042 121.033 419.042C121.761 419.042 122.349 419.266 122.797 419.714C123.273 420.134 123.511 420.694 123.511 421.394V422.528C124.211 421.38 125.149 420.498 126.325 419.882C127.501 419.266 128.831 418.958 130.315 418.958ZM147.66 440.252C146.904 440.252 146.274 440.042 145.77 439.622C145.294 439.174 145.056 438.544 145.056 437.732V421.52C145.056 420.708 145.294 420.092 145.77 419.672C146.274 419.252 146.904 419.042 147.66 419.042C148.416 419.042 149.046 419.252 149.55 419.672C150.054 420.092 150.306 420.708 150.306 421.52V437.732C150.306 438.544 150.054 439.174 149.55 439.622C149.046 440.042 148.416 440.252 147.66 440.252ZM147.66 415.304C146.708 415.304 145.952 415.052 145.392 414.548C144.832 414.016 144.552 413.33 144.552 412.49C144.552 411.65 144.832 410.978 145.392 410.474C145.952 409.97 146.708 409.718 147.66 409.718C148.584 409.718 149.326 409.97 149.886 410.474C150.474 410.978 150.768 411.65 150.768 412.49C150.768 413.33 150.488 414.016 149.928 414.548C149.368 415.052 148.612 415.304 147.66 415.304ZM165.254 440.336C162.202 440.336 159.738 439.734 157.862 438.53C156.966 437.998 156.518 437.242 156.518 436.262C156.518 435.702 156.672 435.254 156.98 434.918C157.288 434.554 157.666 434.372 158.114 434.372C158.59 434.372 159.248 434.596 160.088 435.044C160.984 435.464 161.796 435.786 162.524 436.01C163.28 436.234 164.232 436.346 165.38 436.346C166.556 436.346 167.466 436.15 168.11 435.758C168.782 435.366 169.118 434.82 169.118 434.12C169.118 433.644 168.978 433.266 168.698 432.986C168.446 432.706 167.97 432.454 167.27 432.23C166.598 431.978 165.562 431.698 164.162 431.39C161.67 430.886 159.878 430.172 158.786 429.248C157.722 428.324 157.19 427.05 157.19 425.426C157.19 424.194 157.554 423.088 158.282 422.108C159.01 421.1 160.004 420.33 161.264 419.798C162.552 419.238 164.008 418.958 165.632 418.958C166.808 418.958 167.942 419.112 169.034 419.42C170.126 419.7 171.106 420.12 171.974 420.68C172.87 421.24 173.318 421.982 173.318 422.906C173.318 423.466 173.164 423.942 172.856 424.334C172.548 424.698 172.17 424.88 171.722 424.88C171.414 424.88 171.106 424.824 170.798 424.712C170.518 424.572 170.154 424.376 169.706 424.124C168.894 423.704 168.194 423.396 167.606 423.2C167.018 422.976 166.29 422.864 165.422 422.864C164.386 422.864 163.56 423.074 162.944 423.494C162.356 423.914 162.062 424.488 162.062 425.216C162.062 425.916 162.37 426.448 162.986 426.812C163.602 427.176 164.792 427.54 166.556 427.904C168.432 428.296 169.902 428.744 170.966 429.248C172.03 429.752 172.786 430.382 173.234 431.138C173.71 431.894 173.948 432.86 173.948 434.036C173.948 435.94 173.15 437.466 171.554 438.614C169.986 439.762 167.886 440.336 165.254 440.336ZM204.475 436.346C205.875 436.43 206.575 437.06 206.575 438.236C206.575 438.908 206.295 439.426 205.735 439.79C205.203 440.126 204.433 440.266 203.425 440.21L202.291 440.126C197.587 439.79 195.235 437.27 195.235 432.566V423.41H193.135C192.379 423.41 191.791 423.242 191.371 422.906C190.979 422.57 190.783 422.08 190.783 421.436C190.783 420.792 190.979 420.302 191.371 419.966C191.791 419.63 192.379 419.462 193.135 419.462H195.235V415.598C195.235 414.842 195.473 414.24 195.949 413.792C196.425 413.344 197.069 413.12 197.881 413.12C198.665 413.12 199.295 413.344 199.771 413.792C200.247 414.24 200.485 414.842 200.485 415.598V419.462H204.055C204.811 419.462 205.385 419.63 205.777 419.966C206.197 420.302 206.407 420.792 206.407 421.436C206.407 422.08 206.197 422.57 205.777 422.906C205.385 423.242 204.811 423.41 204.055 423.41H200.485V432.944C200.485 435.016 201.437 436.122 203.341 436.262L204.475 436.346ZM227.665 434.372C228.141 434.372 228.519 434.554 228.799 434.918C229.107 435.282 229.261 435.772 229.261 436.388C229.261 437.256 228.743 437.984 227.707 438.572C226.755 439.104 225.677 439.538 224.473 439.874C223.269 440.182 222.121 440.336 221.029 440.336C217.725 440.336 215.107 439.384 213.175 437.48C211.243 435.576 210.277 432.972 210.277 429.668C210.277 427.568 210.697 425.706 211.537 424.082C212.377 422.458 213.553 421.198 215.065 420.302C216.605 419.406 218.341 418.958 220.273 418.958C222.121 418.958 223.731 419.364 225.103 420.176C226.475 420.988 227.539 422.136 228.295 423.62C229.051 425.104 229.429 426.854 229.429 428.87C229.429 430.074 228.897 430.676 227.833 430.676H215.443C215.611 432.608 216.157 434.036 217.081 434.96C218.005 435.856 219.349 436.304 221.113 436.304C222.009 436.304 222.793 436.192 223.465 435.968C224.165 435.744 224.949 435.436 225.817 435.044C226.657 434.596 227.273 434.372 227.665 434.372ZM220.399 422.654C218.971 422.654 217.823 423.102 216.955 423.998C216.115 424.894 215.611 426.182 215.443 427.862H224.935C224.879 426.154 224.459 424.866 223.675 423.998C222.891 423.102 221.799 422.654 220.399 422.654ZM244.727 418.958C247.583 418.958 249.697 419.672 251.069 421.1C252.469 422.5 253.169 424.642 253.169 427.526V437.774C253.169 438.53 252.945 439.132 252.497 439.58C252.049 440 251.433 440.21 250.649 440.21C249.921 440.21 249.319 439.986 248.843 439.538C248.395 439.09 248.171 438.502 248.171 437.774V436.85C247.695 437.942 246.939 438.796 245.903 439.412C244.895 440.028 243.719 440.336 242.375 440.336C241.003 440.336 239.757 440.056 238.637 439.496C237.517 438.936 236.635 438.166 235.991 437.186C235.347 436.206 235.025 435.114 235.025 433.91C235.025 432.398 235.403 431.208 236.159 430.34C236.943 429.472 238.203 428.842 239.939 428.45C241.675 428.058 244.069 427.862 247.121 427.862H248.171V426.896C248.171 425.524 247.877 424.53 247.289 423.914C246.701 423.27 245.749 422.948 244.433 422.948C243.621 422.948 242.795 423.074 241.955 423.326C241.115 423.55 240.121 423.886 238.973 424.334C238.245 424.698 237.713 424.88 237.377 424.88C236.873 424.88 236.453 424.698 236.117 424.334C235.809 423.97 235.655 423.494 235.655 422.906C235.655 422.43 235.767 422.024 235.991 421.688C236.243 421.324 236.649 420.988 237.209 420.68C238.189 420.148 239.351 419.728 240.695 419.42C242.067 419.112 243.411 418.958 244.727 418.958ZM243.425 436.556C244.825 436.556 245.959 436.094 246.827 435.17C247.723 434.218 248.171 433 248.171 431.516V430.634H247.415C245.539 430.634 244.083 430.718 243.047 430.886C242.011 431.054 241.269 431.348 240.821 431.768C240.373 432.188 240.149 432.762 240.149 433.49C240.149 434.386 240.457 435.128 241.073 435.716C241.717 436.276 242.501 436.556 243.425 436.556ZM285.007 418.958C287.247 418.958 288.955 419.63 290.131 420.974C291.335 422.29 291.937 424.432 291.937 427.4V437.732C291.937 438.544 291.685 439.174 291.181 439.622C290.705 440.042 290.075 440.252 289.291 440.252C288.535 440.252 287.905 440.042 287.401 439.622C286.925 439.174 286.687 438.544 286.687 437.732V427.4C286.687 425.86 286.407 424.768 285.847 424.124C285.315 423.452 284.489 423.116 283.369 423.116C281.997 423.116 280.905 423.592 280.093 424.544C279.281 425.468 278.875 426.742 278.875 428.366V437.732C278.875 438.544 278.623 439.174 278.119 439.622C277.643 440.042 277.027 440.252 276.271 440.252C275.515 440.252 274.885 440.042 274.381 439.622C273.877 439.174 273.625 438.544 273.625 437.732V427.4C273.625 425.86 273.345 424.768 272.785 424.124C272.253 423.452 271.427 423.116 270.307 423.116C268.935 423.116 267.843 423.592 267.031 424.544C266.247 425.468 265.855 426.742 265.855 428.366V437.732C265.855 438.544 265.603 439.174 265.099 439.622C264.595 440.042 263.965 440.252 263.209 440.252C262.453 440.252 261.823 440.042 261.319 439.622C260.843 439.174 260.605 438.544 260.605 437.732V421.478C260.605 420.694 260.857 420.092 261.361 419.672C261.865 419.252 262.495 419.042 263.251 419.042C263.979 419.042 264.567 419.252 265.015 419.672C265.491 420.064 265.729 420.638 265.729 421.394V422.402C266.373 421.282 267.227 420.428 268.291 419.84C269.383 419.252 270.629 418.958 272.029 418.958C275.109 418.958 277.167 420.246 278.203 422.822C278.819 421.646 279.729 420.708 280.933 420.008C282.137 419.308 283.495 418.958 285.007 418.958Z" fill="#DADADA"/>
<path d="M66.88 824.598C67.216 825.102 67.384 825.592 67.384 826.068C67.384 826.712 67.118 827.244 66.586 827.664C66.082 828.084 65.48 828.294 64.78 828.294C64.332 828.294 63.898 828.196 63.478 828C63.086 827.776 62.75 827.454 62.47 827.034L56.884 818.55C56.324 817.654 55.722 817.024 55.078 816.66C54.462 816.296 53.65 816.114 52.642 816.114H48.526V825.522C48.526 826.362 48.288 827.034 47.812 827.538C47.336 828.014 46.692 828.252 45.88 828.252C45.068 828.252 44.41 828.014 43.906 827.538C43.43 827.034 43.192 826.362 43.192 825.522V800.952C43.192 800.14 43.416 799.51 43.864 799.062C44.34 798.614 44.984 798.39 45.796 798.39H56.296C59.656 798.39 62.204 799.146 63.94 800.658C65.704 802.142 66.586 804.298 66.586 807.126C66.586 809.422 65.928 811.312 64.612 812.796C63.324 814.252 61.49 815.19 59.11 815.61C59.922 815.806 60.636 816.156 61.252 816.66C61.868 817.164 62.47 817.864 63.058 818.76L66.88 824.598ZM55.54 811.956C57.584 811.956 59.082 811.578 60.034 810.822C60.986 810.038 61.462 808.848 61.462 807.252C61.462 805.628 60.986 804.452 60.034 803.724C59.082 802.968 57.584 802.59 55.54 802.59H48.484V811.956H55.54ZM90.2871 822.372C90.7631 822.372 91.1411 822.554 91.4211 822.918C91.7291 823.282 91.8831 823.772 91.8831 824.388C91.8831 825.256 91.3651 825.984 90.3291 826.572C89.3771 827.104 88.2991 827.538 87.0951 827.874C85.8911 828.182 84.7431 828.336 83.6511 828.336C80.3471 828.336 77.7291 827.384 75.7971 825.48C73.8651 823.576 72.8991 820.972 72.8991 817.668C72.8991 815.568 73.3191 813.706 74.1591 812.082C74.9991 810.458 76.1751 809.198 77.6871 808.302C79.2271 807.406 80.9631 806.958 82.8951 806.958C84.7431 806.958 86.3531 807.364 87.7251 808.176C89.0971 808.988 90.1611 810.136 90.9171 811.62C91.6731 813.104 92.0511 814.854 92.0511 816.87C92.0511 818.074 91.5191 818.676 90.4551 818.676H78.0651C78.2331 820.608 78.7791 822.036 79.7031 822.96C80.6271 823.856 81.9711 824.304 83.7351 824.304C84.6311 824.304 85.4151 824.192 86.0871 823.968C86.7871 823.744 87.5711 823.436 88.4391 823.044C89.2791 822.596 89.8951 822.372 90.2871 822.372ZM83.0211 810.654C81.5931 810.654 80.4451 811.102 79.5771 811.998C78.7371 812.894 78.2331 814.182 78.0651 815.862H87.5571C87.5011 814.154 87.0811 812.866 86.2971 811.998C85.5131 811.102 84.4211 810.654 83.0211 810.654ZM108.827 824.346C110.227 824.43 110.927 825.06 110.927 826.236C110.927 826.908 110.647 827.426 110.087 827.79C109.555 828.126 108.785 828.266 107.777 828.21L106.643 828.126C101.939 827.79 99.5865 825.27 99.5865 820.566V811.41H97.4865C96.7305 811.41 96.1425 811.242 95.7225 810.906C95.3305 810.57 95.1345 810.08 95.1345 809.436C95.1345 808.792 95.3305 808.302 95.7225 807.966C96.1425 807.63 96.7305 807.462 97.4865 807.462H99.5865V803.598C99.5865 802.842 99.8245 802.24 100.301 801.792C100.777 801.344 101.421 801.12 102.233 801.12C103.017 801.12 103.647 801.344 104.123 801.792C104.599 802.24 104.837 802.842 104.837 803.598V807.462H108.407C109.163 807.462 109.737 807.63 110.129 807.966C110.549 808.302 110.759 808.792 110.759 809.436C110.759 810.08 110.549 810.57 110.129 810.906C109.737 811.242 109.163 811.41 108.407 811.41H104.837V820.944C104.837 823.016 105.789 824.122 107.693 824.262L108.827 824.346ZM131.974 807.042C132.786 807.042 133.43 807.266 133.906 807.714C134.382 808.162 134.62 808.764 134.62 809.52V825.816C134.62 826.544 134.368 827.132 133.864 827.58C133.388 828.028 132.758 828.252 131.974 828.252C131.218 828.252 130.616 828.042 130.168 827.622C129.72 827.202 129.496 826.628 129.496 825.9V824.85C128.852 825.97 127.984 826.838 126.892 827.454C125.8 828.042 124.568 828.336 123.196 828.336C118.156 828.336 115.636 825.508 115.636 819.852V809.52C115.636 808.764 115.874 808.162 116.35 807.714C116.826 807.266 117.456 807.042 118.24 807.042C119.052 807.042 119.696 807.266 120.172 807.714C120.648 808.162 120.886 808.764 120.886 809.52V819.894C120.886 821.35 121.18 822.428 121.768 823.128C122.356 823.828 123.28 824.178 124.54 824.178C125.996 824.178 127.158 823.702 128.026 822.75C128.922 821.77 129.37 820.482 129.37 818.886V809.52C129.37 808.764 129.608 808.162 130.084 807.714C130.56 807.266 131.19 807.042 131.974 807.042ZM153.651 807.042C154.379 806.986 154.953 807.14 155.373 807.504C155.793 807.868 156.003 808.414 156.003 809.142C156.003 809.898 155.821 810.458 155.457 810.822C155.093 811.186 154.435 811.424 153.483 811.536L152.223 811.662C150.571 811.83 149.353 812.39 148.569 813.342C147.813 814.294 147.435 815.484 147.435 816.912V825.732C147.435 826.544 147.183 827.174 146.679 827.622C146.175 828.042 145.545 828.252 144.789 828.252C144.033 828.252 143.403 828.042 142.899 827.622C142.423 827.174 142.185 826.544 142.185 825.732V809.478C142.185 808.694 142.423 808.092 142.899 807.672C143.403 807.252 144.019 807.042 144.747 807.042C145.475 807.042 146.063 807.252 146.511 807.672C146.959 808.064 147.183 808.638 147.183 809.394V811.074C147.715 809.842 148.499 808.89 149.535 808.218C150.599 807.546 151.775 807.168 153.063 807.084L153.651 807.042ZM172.291 806.958C174.755 806.958 176.589 807.658 177.793 809.058C178.997 810.458 179.599 812.572 179.599 815.4V825.732C179.599 826.516 179.361 827.132 178.885 827.58C178.437 828.028 177.807 828.252 176.995 828.252C176.183 828.252 175.539 828.028 175.063 827.58C174.587 827.132 174.349 826.516 174.349 825.732V815.694C174.349 814.098 174.041 812.936 173.425 812.208C172.837 811.48 171.899 811.116 170.611 811.116C169.099 811.116 167.881 811.592 166.957 812.544C166.061 813.496 165.613 814.77 165.613 816.366V825.732C165.613 826.516 165.375 827.132 164.899 827.58C164.423 828.028 163.779 828.252 162.967 828.252C162.155 828.252 161.511 828.028 161.035 827.58C160.587 827.132 160.363 826.516 160.363 825.732V809.478C160.363 808.75 160.601 808.162 161.077 807.714C161.553 807.266 162.197 807.042 163.009 807.042C163.737 807.042 164.325 807.266 164.773 807.714C165.249 808.134 165.487 808.694 165.487 809.394V810.528C166.187 809.38 167.125 808.498 168.301 807.882C169.477 807.266 170.807 806.958 172.291 806.958Z" fill="#E25454"/>
<path d="M70.03 742.766C70.198 743.13 70.282 743.494 70.282 743.858C70.282 744.502 70.016 745.048 69.484 745.496C68.98 745.944 68.392 746.168 67.72 746.168C67.272 746.168 66.852 746.056 66.46 745.832C66.068 745.58 65.76 745.202 65.536 744.698L63.016 739.07H48.232L45.712 744.698C45.488 745.202 45.18 745.58 44.788 745.832C44.396 746.056 43.962 746.168 43.486 746.168C42.842 746.168 42.254 745.944 41.722 745.496C41.19 745.048 40.924 744.502 40.924 743.858C40.924 743.494 41.008 743.13 41.176 742.766L52.768 717.86C53.02 717.3 53.398 716.88 53.902 716.6C54.434 716.292 54.994 716.138 55.582 716.138C56.17 716.138 56.716 716.292 57.22 716.6C57.752 716.88 58.144 717.3 58.396 717.86L70.03 742.766ZM50.08 734.87H61.168L55.624 722.396L50.08 734.87ZM93.1379 716.18C93.9219 716.18 94.5659 716.404 95.0699 716.852C95.5739 717.3 95.8259 717.888 95.8259 718.616V743.732C95.8259 744.488 95.5879 745.09 95.1119 745.538C94.6359 745.986 94.0059 746.21 93.2219 746.21C92.4379 746.21 91.8079 745.986 91.3319 745.538C90.8559 745.09 90.6179 744.488 90.6179 743.732V742.682C90.0019 743.83 89.1059 744.726 87.9299 745.37C86.7819 746.014 85.4659 746.336 83.9819 746.336C82.2179 746.336 80.6359 745.888 79.2359 744.992C77.8639 744.096 76.7859 742.836 76.0019 741.212C75.2459 739.56 74.8679 737.67 74.8679 735.542C74.8679 733.414 75.2459 731.552 76.0019 729.956C76.7859 728.36 77.8639 727.128 79.2359 726.26C80.6079 725.392 82.1899 724.958 83.9819 724.958C85.4659 724.958 86.7819 725.266 87.9299 725.882C89.0779 726.498 89.9599 727.366 90.5759 728.486V718.532C90.5759 717.832 90.7999 717.272 91.2479 716.852C91.7239 716.404 92.3539 716.18 93.1379 716.18ZM85.3679 742.262C87.0479 742.262 88.3359 741.688 89.2319 740.54C90.1559 739.392 90.6179 737.754 90.6179 735.626C90.6179 733.498 90.1559 731.874 89.2319 730.754C88.3359 729.606 87.0619 729.032 85.4099 729.032C83.7299 729.032 82.4279 729.592 81.5039 730.712C80.5799 731.832 80.1179 733.442 80.1179 735.542C80.1179 737.67 80.5799 739.322 81.5039 740.498C82.4279 741.674 83.7159 742.262 85.3679 742.262ZM120.462 716.18C121.246 716.18 121.89 716.404 122.394 716.852C122.898 717.3 123.15 717.888 123.15 718.616V743.732C123.15 744.488 122.912 745.09 122.436 745.538C121.96 745.986 121.33 746.21 120.546 746.21C119.762 746.21 119.132 745.986 118.656 745.538C118.18 745.09 117.942 744.488 117.942 743.732V742.682C117.326 743.83 116.43 744.726 115.254 745.37C114.106 746.014 112.79 746.336 111.306 746.336C109.542 746.336 107.96 745.888 106.56 744.992C105.188 744.096 104.11 742.836 103.326 741.212C102.57 739.56 102.192 737.67 102.192 735.542C102.192 733.414 102.57 731.552 103.326 729.956C104.11 728.36 105.188 727.128 106.56 726.26C107.932 725.392 109.514 724.958 111.306 724.958C112.79 724.958 114.106 725.266 115.254 725.882C116.402 726.498 117.284 727.366 117.9 728.486V718.532C117.9 717.832 118.124 717.272 118.572 716.852C119.048 716.404 119.678 716.18 120.462 716.18ZM112.692 742.262C114.372 742.262 115.66 741.688 116.556 740.54C117.48 739.392 117.942 737.754 117.942 735.626C117.942 733.498 117.48 731.874 116.556 730.754C115.66 729.606 114.386 729.032 112.734 729.032C111.054 729.032 109.752 729.592 108.828 730.712C107.904 731.832 107.442 733.442 107.442 735.542C107.442 737.67 107.904 739.322 108.828 740.498C109.752 741.674 111.04 742.262 112.692 742.262ZM161.541 725.042C162.325 725.042 162.955 725.266 163.431 725.714C163.907 726.162 164.145 726.764 164.145 727.52V744.11C164.145 747.33 163.249 749.766 161.457 751.418C159.665 753.07 157.019 753.896 153.519 753.896C150.467 753.896 147.919 753.322 145.875 752.174C144.839 751.558 144.321 750.816 144.321 749.948C144.321 749.332 144.461 748.842 144.741 748.478C145.049 748.114 145.441 747.932 145.917 747.932C146.169 747.932 146.477 747.988 146.841 748.1C147.205 748.24 147.583 748.394 147.975 748.562C148.983 748.982 149.879 749.304 150.663 749.528C151.475 749.752 152.399 749.864 153.435 749.864C157.103 749.864 158.937 748.072 158.937 744.488V741.8C158.321 742.948 157.425 743.844 156.249 744.488C155.073 745.104 153.729 745.412 152.217 745.412C150.425 745.412 148.829 744.992 147.429 744.152C146.057 743.284 144.979 742.08 144.195 740.54C143.411 739 143.019 737.222 143.019 735.206C143.019 733.19 143.397 731.412 144.153 729.872C144.937 728.304 146.029 727.1 147.429 726.26C148.829 725.392 150.425 724.958 152.217 724.958C153.729 724.958 155.073 725.28 156.249 725.924C157.425 726.54 158.321 727.422 158.937 728.57V727.478C158.937 726.75 159.175 726.162 159.651 725.714C160.127 725.266 160.757 725.042 161.541 725.042ZM153.603 741.338C155.283 741.338 156.585 740.792 157.509 739.7C158.461 738.608 158.937 737.11 158.937 735.206C158.937 733.274 158.461 731.762 157.509 730.67C156.585 729.578 155.283 729.032 153.603 729.032C151.951 729.032 150.649 729.578 149.697 730.67C148.745 731.762 148.269 733.274 148.269 735.206C148.269 737.11 148.745 738.608 149.697 739.7C150.649 740.792 151.951 741.338 153.603 741.338ZM183.149 725.042C183.877 724.986 184.451 725.14 184.871 725.504C185.291 725.868 185.501 726.414 185.501 727.142C185.501 727.898 185.319 728.458 184.955 728.822C184.591 729.186 183.933 729.424 182.981 729.536L181.721 729.662C180.069 729.83 178.851 730.39 178.067 731.342C177.311 732.294 176.933 733.484 176.933 734.912V743.732C176.933 744.544 176.681 745.174 176.177 745.622C175.673 746.042 175.043 746.252 174.287 746.252C173.531 746.252 172.901 746.042 172.397 745.622C171.921 745.174 171.683 744.544 171.683 743.732V727.478C171.683 726.694 171.921 726.092 172.397 725.672C172.901 725.252 173.517 725.042 174.245 725.042C174.973 725.042 175.561 725.252 176.009 725.672C176.457 726.064 176.681 726.638 176.681 727.394V729.074C177.213 727.842 177.997 726.89 179.033 726.218C180.097 725.546 181.273 725.168 182.561 725.084L183.149 725.042ZM206.073 725.042C206.885 725.042 207.529 725.266 208.005 725.714C208.481 726.162 208.719 726.764 208.719 727.52V743.816C208.719 744.544 208.467 745.132 207.963 745.58C207.487 746.028 206.857 746.252 206.073 746.252C205.317 746.252 204.715 746.042 204.267 745.622C203.819 745.202 203.595 744.628 203.595 743.9V742.85C202.951 743.97 202.083 744.838 200.991 745.454C199.899 746.042 198.667 746.336 197.295 746.336C192.255 746.336 189.735 743.508 189.735 737.852V727.52C189.735 726.764 189.973 726.162 190.449 725.714C190.925 725.266 191.555 725.042 192.339 725.042C193.151 725.042 193.795 725.266 194.271 725.714C194.747 726.162 194.985 726.764 194.985 727.52V737.894C194.985 739.35 195.279 740.428 195.867 741.128C196.455 741.828 197.379 742.178 198.639 742.178C200.095 742.178 201.257 741.702 202.125 740.75C203.021 739.77 203.469 738.482 203.469 736.886V727.52C203.469 726.764 203.707 726.162 204.183 725.714C204.659 725.266 205.289 725.042 206.073 725.042ZM228.086 724.958C229.85 724.958 231.418 725.406 232.79 726.302C234.19 727.198 235.268 728.472 236.024 730.124C236.808 731.748 237.2 733.624 237.2 735.752C237.2 737.88 236.808 739.742 236.024 741.338C235.268 742.934 234.204 744.166 232.832 745.034C231.46 745.902 229.878 746.336 228.086 746.336C226.63 746.336 225.328 746.028 224.18 745.412C223.032 744.796 222.15 743.942 221.534 742.85V751.418C221.534 752.146 221.296 752.72 220.82 753.14C220.344 753.56 219.714 753.77 218.93 753.77C218.146 753.77 217.502 753.546 216.998 753.098C216.522 752.65 216.284 752.062 216.284 751.334V727.52C216.284 726.764 216.508 726.162 216.956 725.714C217.432 725.266 218.062 725.042 218.846 725.042C219.63 725.042 220.26 725.266 220.736 725.714C221.212 726.162 221.45 726.764 221.45 727.52V728.57C222.066 727.422 222.948 726.54 224.096 725.924C225.272 725.28 226.602 724.958 228.086 724.958ZM226.7 742.262C228.352 742.262 229.64 741.702 230.564 740.582C231.488 739.434 231.95 737.824 231.95 735.752C231.95 733.624 231.488 731.972 230.564 730.796C229.64 729.62 228.352 729.032 226.7 729.032C225.02 729.032 223.718 729.606 222.794 730.754C221.898 731.902 221.45 733.54 221.45 735.668C221.45 737.768 221.898 739.392 222.794 740.54C223.718 741.688 225.02 742.262 226.7 742.262Z" fill="#F2A154"/>
</g>
<rect x="0.5" y="0.5" width="427" height="925" stroke="black"/>
</g>
<defs>
<filter id="filter0_d_36_155" x="-4" y="0" width="436" height="934" filterUnits="userSpaceOnUse" color-interpolation-filters="sRGB">
<feFlood flood-opacity="0" result="BackgroundImageFix"/>
<feColorMatrix in="SourceAlpha" type="matrix" values="0 0 0 0 0 0 0 0 0 0 0 0 0 0 0 0 0 0 127 0" result="hardAlpha"/>
<feOffset dy="4"/>
<feGaussianBlur stdDeviation="2"/>
<feComposite in2="hardAlpha" operator="out"/>
<feColorMatrix type="matrix" values="0 0 0 0 0 0 0 0 0 0 0 0 0 0 0 0 0 0 0.25 0"/>
<feBlend mode="normal" in2="BackgroundImageFix" result="effect1_dropShadow_36_155"/>
<feBlend mode="normal" in="SourceGraphic" in2="effect1_dropShadow_36_155" result="shape"/>
</filter>
<clipPath id="clip0_36_155">
<rect width="428" height="926" fill="white"/>
</clipPath>
</defs>
</svg>
